<svg width="22" height="16" viewBox="0 0 22 16" fill="none" xmlns="http://www.w3.org/2000/svg">
<path d="M10.25 15.5H5.5C4.118 15.5 2.93917 15.0198 1.9635 14.0595C0.987833 13.0993 0.5 11.9283 0.5 10.5463C0.5 9.32308 0.891667 8.23525 1.675 7.28275C2.45833 6.33008 3.45767 5.76658 4.673 5.59225C4.9935 4.09742 5.74517 2.875 6.928 1.925C8.11067 0.975 9.468 0.5 11 0.5C12.809 0.5 14.3446 1.13108 15.6068 2.39325C16.8689 3.65542 17.5 5.191 17.5 7V7.5H17.8078C18.8616 7.582 19.7404 8.00575 20.4443 8.77125C21.1481 9.53658 21.5 10.4462 21.5 11.5C21.5 12.6153 21.1122 13.5608 20.3365 14.3365C19.5608 15.1122 18.6153 15.5 17.5 15.5H11.75V8.21525L13.6 10.0345L14.6538 8.9905L11 5.3365L7.34625 8.9905L8.4 10.0345L10.25 8.21525V15.5Z" fill="black" fill-opacity="0.4"/>
</svg>
