<svg width="32" height="32" viewBox="0 0 14 14" fill="currentColor" xmlns="http://www.w3.org/2000/svg">
                       <path stroke="null" id="svg_1" d="m7.00838,13.9845a0.45656,0.46084 0 0 1 -0.34926,-0.16565l-5.55663,-6.43055l-0.00421,-0.00425c-0.67328,-0.79957 -1.04778,-1.86142 -1.04778,-2.9891c0,-1.12874 0.37451,-2.19484 1.04778,-2.99441l0.08311,-0.09981c0.69011,-0.81762 1.60639,-1.26572 2.58475,-1.26572c0.97835,0 1.8978,0.4481 2.58054,1.26572l0.6617,0.78364l0.6575,-0.78364c0.69011,-0.81762 1.60639,-1.26572 2.58475,-1.26572c0.97309,0 1.89359,0.4481 2.58054,1.26572l0.08206,0.09875c0.67328,0.80063 1.04778,1.86673 1.04778,2.99123c0,1.12344 -0.37451,2.18953 -1.04778,2.99016l-0.00421,0.00425l-5.55557,6.43799a0.45762,0.4619 0 0 1 -0.34505,0.1614zm-5.21157,-7.28003l5.21157,6.02705l5.21052,-6.02705c1.07303,-1.2774 1.07303,-3.35119 -0.00421,-4.6286l-0.08206,-0.09981c-0.50496,-0.59676 -1.17613,-0.92912 -1.88622,-0.92912c-0.71115,0 -1.38127,0.33236 -1.88307,0.92912l-1.00571,1.19989a0.45867,0.46297 0 0 1 -0.70273,0l-1.00676,-1.19989c-0.50496,-0.59676 -1.17613,-0.92912 -1.88307,-0.92912c-0.70589,0 -1.38021,0.33236 -1.88202,0.92912l-0.08206,0.09981c-1.0804,1.2774 -1.0804,3.35119 -0.00421,4.62966l0,-0.00106zm0,0"/>
                    </svg>