<svg xmlns="http://www.w3.org/2000/svg" xmlns:xlink="http://www.w3.org/1999/xlink" width="48" zoomAndPan="magnify" viewBox="0 0 24 29" height="56" preserveAspectRatio="xMidYMid meet" version="1.0"><defs><clipPath id="c97825bfd2"><path d="M 1 2 L 23.859375 2 L 23.859375 24.90625 L 1 24.90625 Z M 1 2 " clip-rule="nonzero"/></clipPath><clipPath id="e9eaffdcad"><path d="M 0.417969 0 L 23 0 L 23 23 L 0.417969 23 Z M 0.417969 0 " clip-rule="nonzero"/></clipPath></defs><g clip-path="url(#c97825bfd2)"><path fill="#000000" d="M 23.855469 24.613281 L 23.820312 21.933594 C 23.808594 21.039062 23.796875 20.144531 23.78125 19.253906 L 23.734375 16.574219 C 23.71875 15.679688 23.699219 14.789062 23.679688 13.894531 C 23.65625 14.789062 23.636719 15.679688 23.621094 16.574219 L 23.574219 19.253906 C 23.5625 20.144531 23.546875 21.039062 23.535156 21.933594 L 23.503906 24.433594 C 19.90625 24.390625 16.308594 24.359375 12.710938 24.34375 C 10.882812 24.332031 9.054688 24.328125 7.226562 24.320312 C 5.496094 24.316406 3.765625 24.316406 2.039062 24.316406 C 2.039062 22.578125 2.035156 20.84375 2.03125 19.105469 C 2.027344 17.269531 2.019531 15.433594 2.011719 13.597656 C 2 11.761719 1.988281 9.929688 1.972656 8.09375 C 1.957031 6.316406 1.941406 4.539062 1.921875 2.761719 L 4.410156 2.730469 C 5.300781 2.71875 6.191406 2.703125 7.078125 2.691406 L 9.75 2.644531 C 10.636719 2.625 11.527344 2.609375 12.417969 2.585938 C 11.527344 2.566406 10.636719 2.546875 9.75 2.53125 L 8.414062 2.503906 L 7.078125 2.484375 C 6.191406 2.46875 5.300781 2.457031 4.410156 2.445312 L 1.742188 2.410156 L 1.570312 2.40625 L 1.566406 2.585938 C 1.546875 4.421875 1.527344 6.257812 1.511719 8.09375 C 1.5 9.929688 1.484375 11.761719 1.476562 13.597656 C 1.46875 15.433594 1.460938 17.269531 1.457031 19.105469 C 1.449219 20.941406 1.449219 22.777344 1.449219 24.613281 L 1.449219 24.90625 L 1.742188 24.90625 C 3.570312 24.90625 5.398438 24.90625 7.226562 24.902344 C 9.054688 24.894531 10.882812 24.890625 12.710938 24.878906 C 16.367188 24.859375 20.023438 24.832031 23.679688 24.789062 L 23.855469 24.789062 Z M 23.855469 24.613281 " fill-opacity="1" fill-rule="nonzero"/></g><g clip-path="url(#e9eaffdcad)"><path fill="#000000" d="M 11.570312 0.566406 C 13.398438 0.574219 15.222656 0.582031 17.050781 0.585938 C 18.78125 0.589844 20.511719 0.59375 22.242188 0.59375 C 22.242188 2.328125 22.246094 4.066406 22.25 5.800781 C 22.253906 7.636719 22.261719 9.472656 22.269531 11.308594 C 22.277344 13.144531 22.289062 14.980469 22.304688 16.816406 C 22.320312 18.59375 22.339844 20.371094 22.359375 22.148438 L 19.867188 22.179688 C 18.976562 22.191406 18.089844 22.203125 17.199219 22.21875 L 15.867188 22.242188 L 14.53125 22.265625 C 13.640625 22.28125 12.753906 22.300781 11.863281 22.320312 C 12.753906 22.34375 13.640625 22.363281 14.53125 22.378906 L 15.867188 22.402344 L 17.199219 22.425781 C 18.089844 22.4375 18.976562 22.453125 19.867188 22.464844 L 22.535156 22.496094 L 22.710938 22.5 L 22.710938 22.320312 C 22.734375 20.484375 22.75 18.648438 22.765625 16.816406 C 22.78125 14.980469 22.792969 13.144531 22.804688 11.308594 C 22.8125 9.472656 22.820312 7.636719 22.824219 5.800781 C 22.828125 3.96875 22.832031 2.132812 22.832031 0.296875 L 22.832031 0 L 22.535156 0 C 20.707031 0 18.878906 0.00390625 17.050781 0.0078125 C 15.222656 0.0117188 13.398438 0.0195312 11.570312 0.0273438 C 7.914062 0.046875 4.257812 0.078125 0.601562 0.117188 L 0.421875 0.121094 L 0.425781 0.296875 L 0.457031 2.976562 C 0.46875 3.867188 0.484375 4.761719 0.5 5.65625 L 0.519531 6.996094 L 0.542969 8.335938 C 0.5625 9.226562 0.578125 10.121094 0.601562 11.011719 C 0.621094 10.121094 0.640625 9.226562 0.65625 8.335938 L 0.683594 6.996094 L 0.703125 5.65625 C 0.71875 4.761719 0.730469 3.867188 0.746094 2.976562 L 0.777344 0.476562 C 4.375 0.515625 7.972656 0.546875 11.570312 0.566406 Z M 11.570312 0.566406 " fill-opacity="1" fill-rule="nonzero"/></g></svg>