<svg xmlns="http://www.w3.org/2000/svg" xmlns:xlink="http://www.w3.org/1999/xlink" width="48" zoomAndPan="magnify" viewBox="0 0 24 29" height="56" preserveAspectRatio="xMidYMid meet" version="1.0"><defs><clipPath id="8d336b6e97"><path d="M 0.417969 0.292969 L 23.859375 0.292969 L 23.859375 23.734375 L 0.417969 23.734375 Z M 0.417969 0.292969 " clip-rule="nonzero"/></clipPath></defs><g clip-path="url(#8d336b6e97)"><path fill="#000000" d="M 9.421875 23.585938 C 9.421875 23.578125 9.421875 23.574219 9.417969 23.570312 C 9.410156 23.570312 9.398438 23.574219 9.386719 23.574219 C 9.390625 23.578125 9.390625 23.582031 9.390625 23.585938 C 9.398438 23.585938 9.410156 23.585938 9.421875 23.585938 Z M 6.160156 23.378906 C 6.164062 23.367188 6.167969 23.359375 6.167969 23.355469 C 6.167969 23.351562 6.160156 23.347656 6.160156 23.347656 C 6.15625 23.347656 6.148438 23.351562 6.148438 23.355469 C 6.148438 23.355469 6.152344 23.363281 6.160156 23.378906 Z M 21.03125 23.265625 C 21.027344 23.261719 21.023438 23.253906 21.023438 23.253906 C 21.019531 23.253906 21.011719 23.257812 21.007812 23.261719 C 21.011719 23.265625 21.011719 23.269531 21.015625 23.269531 C 21.019531 23.269531 21.027344 23.265625 21.03125 23.265625 Z M 3.957031 23.050781 C 3.957031 23.046875 3.957031 23.042969 3.960938 23.035156 C 3.949219 23.035156 3.9375 23.035156 3.925781 23.035156 C 3.925781 23.039062 3.925781 23.042969 3.925781 23.046875 C 3.933594 23.046875 3.945312 23.046875 3.957031 23.050781 Z M 22.808594 3.214844 C 22.804688 3.210938 22.804688 3.207031 22.800781 3.203125 C 22.796875 3.207031 22.792969 3.214844 22.792969 3.214844 C 22.796875 3.21875 22.800781 3.222656 22.804688 3.226562 C 22.808594 3.222656 22.808594 3.21875 22.808594 3.214844 Z M 22.945312 13.902344 C 22.941406 13.894531 22.9375 13.890625 22.933594 13.890625 C 22.925781 13.890625 22.921875 13.894531 22.914062 13.898438 C 22.917969 13.902344 22.921875 13.914062 22.925781 13.910156 C 22.933594 13.910156 22.9375 13.90625 22.945312 13.902344 Z M 23.429688 14.285156 C 23.425781 14.28125 23.417969 14.277344 23.414062 14.273438 C 23.410156 14.277344 23.40625 14.28125 23.410156 14.285156 C 23.410156 14.289062 23.414062 14.292969 23.417969 14.296875 C 23.421875 14.296875 23.425781 14.289062 23.429688 14.285156 Z M 23.582031 8.894531 C 23.585938 8.890625 23.59375 8.890625 23.597656 8.890625 C 23.59375 8.878906 23.589844 8.871094 23.585938 8.859375 C 23.582031 8.859375 23.578125 8.863281 23.574219 8.863281 C 23.578125 8.875 23.582031 8.882812 23.582031 8.894531 Z M 23.433594 16.574219 C 23.433594 16.578125 23.4375 16.582031 23.441406 16.585938 C 23.445312 16.585938 23.449219 16.582031 23.453125 16.582031 C 23.453125 16.578125 23.449219 16.570312 23.445312 16.566406 C 23.445312 16.566406 23.4375 16.570312 23.433594 16.574219 Z M 6.691406 23.230469 C 6.699219 23.222656 6.710938 23.21875 6.710938 23.214844 C 6.714844 23.210938 6.707031 23.203125 6.703125 23.199219 C 6.699219 23.203125 6.691406 23.203125 6.6875 23.210938 C 6.683594 23.210938 6.6875 23.222656 6.691406 23.230469 Z M 5.636719 1.09375 C 5.632812 1.089844 5.628906 1.082031 5.628906 1.082031 C 5.621094 1.082031 5.617188 1.085938 5.609375 1.085938 C 5.613281 1.089844 5.613281 1.097656 5.617188 1.097656 C 5.621094 1.097656 5.628906 1.097656 5.636719 1.09375 Z M 23.238281 15.941406 C 23.234375 15.9375 23.230469 15.9375 23.226562 15.9375 C 23.222656 15.941406 23.21875 15.945312 23.21875 15.945312 C 23.222656 15.953125 23.226562 15.960938 23.230469 15.96875 C 23.234375 15.957031 23.234375 15.949219 23.238281 15.941406 Z M 23.613281 8.617188 C 23.605469 8.621094 23.601562 8.628906 23.597656 8.632812 C 23.601562 8.636719 23.605469 8.644531 23.609375 8.644531 C 23.617188 8.644531 23.625 8.640625 23.625 8.632812 C 23.628906 8.628906 23.621094 8.625 23.613281 8.617188 Z M 22.957031 20.535156 C 22.949219 20.53125 22.945312 20.527344 22.941406 20.523438 C 22.9375 20.523438 22.933594 20.53125 22.929688 20.535156 C 22.933594 20.539062 22.9375 20.542969 22.945312 20.546875 C 22.945312 20.546875 22.949219 20.542969 22.957031 20.535156 Z M 23.398438 16 C 23.402344 16.003906 23.40625 16.007812 23.40625 16.011719 C 23.417969 16.003906 23.429688 15.992188 23.4375 15.984375 C 23.4375 15.980469 23.433594 15.976562 23.429688 15.976562 C 23.421875 15.984375 23.410156 15.992188 23.398438 16 Z M 15.421875 0.652344 C 15.425781 0.644531 15.433594 0.636719 15.433594 0.632812 C 15.433594 0.628906 15.425781 0.621094 15.425781 0.621094 C 15.417969 0.625 15.410156 0.628906 15.40625 0.632812 C 15.410156 0.636719 15.414062 0.644531 15.421875 0.652344 Z M 20.703125 22.984375 C 20.703125 22.980469 20.703125 22.976562 20.703125 22.96875 C 20.6875 22.972656 20.675781 22.972656 20.660156 22.976562 C 20.660156 22.980469 20.660156 22.984375 20.664062 22.988281 C 20.675781 22.988281 20.691406 22.984375 20.703125 22.984375 Z M 23.515625 13.09375 C 23.5 13.074219 23.496094 13.070312 23.492188 13.070312 C 23.488281 13.078125 23.480469 13.082031 23.476562 13.09375 C 23.476562 13.09375 23.484375 13.101562 23.488281 13.101562 C 23.496094 13.101562 23.507812 13.097656 23.515625 13.09375 Z M 23.464844 12.238281 C 23.460938 12.234375 23.453125 12.230469 23.449219 12.226562 C 23.441406 12.242188 23.4375 12.253906 23.429688 12.265625 C 23.433594 12.269531 23.4375 12.269531 23.441406 12.273438 C 23.449219 12.261719 23.457031 12.25 23.464844 12.238281 Z M 11.445312 0.480469 C 11.449219 0.488281 11.449219 0.496094 11.453125 0.5 C 11.460938 0.496094 11.472656 0.492188 11.484375 0.484375 C 11.480469 0.480469 11.480469 0.476562 11.480469 0.472656 C 11.46875 0.476562 11.457031 0.480469 11.445312 0.480469 Z M 1.75 20.929688 C 1.742188 20.9375 1.738281 20.941406 1.734375 20.945312 C 1.738281 20.949219 1.742188 20.960938 1.75 20.960938 C 1.753906 20.960938 1.761719 20.953125 1.765625 20.949219 C 1.761719 20.941406 1.757812 20.9375 1.75 20.929688 Z M 23.242188 16.171875 C 23.234375 16.160156 23.234375 16.15625 23.230469 16.148438 C 23.222656 16.152344 23.214844 16.15625 23.210938 16.160156 C 23.210938 16.167969 23.21875 16.175781 23.222656 16.179688 C 23.226562 16.179688 23.234375 16.175781 23.242188 16.171875 Z M 19.941406 23.125 C 19.941406 23.117188 19.941406 23.113281 19.941406 23.105469 C 19.925781 23.105469 19.910156 23.105469 19.894531 23.105469 C 19.894531 23.109375 19.894531 23.113281 19.894531 23.113281 C 19.910156 23.117188 19.925781 23.121094 19.941406 23.125 Z M 0.621094 8.453125 C 0.625 8.453125 0.632812 8.453125 0.636719 8.457031 C 0.640625 8.449219 0.652344 8.4375 0.652344 8.433594 C 0.648438 8.421875 0.640625 8.414062 0.625 8.390625 C 0.625 8.421875 0.621094 8.4375 0.621094 8.453125 Z M 22.734375 20.191406 C 22.726562 20.183594 22.71875 20.171875 22.714844 20.175781 C 22.707031 20.175781 22.699219 20.183594 22.691406 20.191406 C 22.699219 20.195312 22.703125 20.203125 22.707031 20.210938 C 22.714844 20.203125 22.722656 20.199219 22.734375 20.191406 Z M 23.273438 18.585938 C 23.269531 18.582031 23.265625 18.574219 23.261719 18.570312 C 23.253906 18.574219 23.242188 18.582031 23.230469 18.585938 C 23.234375 18.59375 23.242188 18.605469 23.242188 18.605469 C 23.253906 18.597656 23.261719 18.59375 23.273438 18.585938 Z M 0.910156 16.902344 C 0.898438 16.910156 0.890625 16.914062 0.882812 16.917969 C 0.890625 16.925781 0.894531 16.9375 0.902344 16.941406 C 0.90625 16.945312 0.921875 16.933594 0.917969 16.929688 C 0.917969 16.921875 0.914062 16.914062 0.910156 16.902344 Z M 23.09375 18.757812 C 23.09375 18.753906 23.089844 18.746094 23.085938 18.738281 C 23.074219 18.746094 23.0625 18.753906 23.046875 18.761719 C 23.046875 18.761719 23.054688 18.773438 23.054688 18.773438 C 23.066406 18.769531 23.082031 18.765625 23.09375 18.757812 Z M 23.226562 15.691406 C 23.21875 15.699219 23.214844 15.707031 23.210938 15.710938 C 23.21875 15.71875 23.226562 15.726562 23.234375 15.726562 C 23.234375 15.726562 23.246094 15.714844 23.246094 15.710938 C 23.242188 15.703125 23.234375 15.699219 23.226562 15.691406 Z M 23.617188 8.53125 C 23.609375 8.527344 23.605469 8.523438 23.597656 8.519531 C 23.59375 8.527344 23.589844 8.539062 23.589844 8.550781 C 23.589844 8.558594 23.597656 8.566406 23.601562 8.574219 C 23.609375 8.566406 23.621094 8.5625 23.625 8.554688 C 23.628906 8.550781 23.621094 8.539062 23.617188 8.53125 Z M 23.171875 16.398438 C 23.214844 16.414062 23.226562 16.402344 23.230469 16.359375 C 23.207031 16.375 23.195312 16.382812 23.171875 16.398438 Z M 23.078125 9.328125 C 23.074219 9.324219 23.066406 9.320312 23.058594 9.320312 C 23.054688 9.332031 23.050781 9.347656 23.042969 9.363281 C 23.050781 9.363281 23.054688 9.367188 23.058594 9.367188 C 23.066406 9.355469 23.074219 9.339844 23.078125 9.328125 Z M 23.359375 16.707031 C 23.363281 16.703125 23.367188 16.699219 23.371094 16.695312 C 23.359375 16.6875 23.347656 16.679688 23.339844 16.671875 C 23.335938 16.675781 23.332031 16.683594 23.328125 16.6875 C 23.335938 16.695312 23.347656 16.703125 23.359375 16.707031 Z M 22.941406 13.773438 C 22.941406 13.777344 22.941406 13.785156 22.941406 13.789062 C 22.957031 13.789062 22.972656 13.785156 22.988281 13.78125 C 22.988281 13.78125 22.988281 13.769531 22.984375 13.761719 C 22.972656 13.765625 22.957031 13.769531 22.941406 13.773438 Z M 23.367188 9.339844 C 23.367188 9.332031 23.371094 9.328125 23.375 9.324219 C 23.363281 9.300781 23.347656 9.285156 23.304688 9.289062 C 23.332031 9.308594 23.347656 9.324219 23.367188 9.339844 Z M 23.441406 14.132812 C 23.433594 14.132812 23.429688 14.132812 23.421875 14.128906 C 23.421875 14.144531 23.417969 14.160156 23.421875 14.175781 C 23.421875 14.179688 23.433594 14.179688 23.441406 14.179688 C 23.441406 14.164062 23.441406 14.148438 23.441406 14.132812 Z M 21.8125 1.550781 C 21.796875 1.542969 21.785156 1.535156 21.777344 1.535156 C 21.769531 1.535156 21.761719 1.546875 21.753906 1.550781 C 21.761719 1.558594 21.769531 1.570312 21.777344 1.570312 C 21.785156 1.570312 21.796875 1.5625 21.8125 1.550781 Z M 23.503906 13.335938 C 23.492188 13.320312 23.484375 13.304688 23.480469 13.304688 C 23.46875 13.308594 23.457031 13.316406 23.449219 13.324219 C 23.449219 13.328125 23.457031 13.347656 23.460938 13.347656 C 23.472656 13.347656 23.484375 13.34375 23.503906 13.335938 Z M 23.226562 16.257812 C 23.199219 16.269531 23.183594 16.28125 23.152344 16.296875 C 23.1875 16.304688 23.203125 16.308594 23.226562 16.316406 C 23.226562 16.296875 23.226562 16.28125 23.226562 16.257812 Z M 23.25 18.484375 C 23.277344 18.460938 23.289062 18.445312 23.273438 18.417969 C 23.242188 18.429688 23.230469 18.445312 23.25 18.484375 Z M 22.796875 19.738281 C 22.796875 19.710938 22.796875 19.6875 22.796875 19.65625 C 22.757812 19.683594 22.757812 19.683594 22.796875 19.738281 Z M 9.972656 23.472656 C 10 23.476562 10.027344 23.476562 10.070312 23.480469 C 10.03125 23.425781 10 23.457031 9.972656 23.472656 Z M 23.613281 8.691406 C 23.574219 8.71875 23.574219 8.738281 23.613281 8.761719 C 23.613281 8.730469 23.613281 8.710938 23.613281 8.691406 Z M 23.480469 12.902344 C 23.457031 12.9375 23.445312 12.960938 23.476562 12.988281 C 23.5 12.960938 23.511719 12.941406 23.480469 12.902344 Z M 23.5 13.164062 C 23.449219 13.195312 23.449219 13.195312 23.5 13.238281 C 23.5 13.210938 23.5 13.1875 23.5 13.164062 Z M 3.683594 22.996094 C 3.6875 22.988281 3.691406 22.980469 3.691406 22.972656 C 3.671875 22.941406 3.648438 22.945312 3.597656 22.96875 C 3.640625 22.980469 3.660156 22.988281 3.683594 22.996094 Z M 16.179688 0.523438 C 16.136719 0.507812 16.109375 0.5 16.089844 0.53125 C 16.085938 0.539062 16.097656 0.558594 16.101562 0.570312 C 16.128906 0.554688 16.148438 0.542969 16.179688 0.523438 Z M 23.125 11.59375 C 23.175781 11.539062 23.171875 11.507812 23.125 11.460938 C 23.125 11.503906 23.125 11.539062 23.125 11.59375 Z M 23.160156 15.867188 C 23.195312 15.867188 23.230469 15.875 23.238281 15.863281 C 23.25 15.84375 23.246094 15.8125 23.25 15.769531 C 23.21875 15.804688 23.195312 15.828125 23.160156 15.867188 Z M 23.453125 12.425781 C 23.421875 12.496094 23.421875 12.496094 23.46875 12.53125 C 23.488281 12.496094 23.480469 12.464844 23.453125 12.425781 Z M 2.589844 22.648438 C 2.542969 22.570312 2.507812 22.558594 2.46875 22.601562 C 2.503906 22.617188 2.539062 22.628906 2.589844 22.648438 Z M 23.363281 17.199219 C 23.34375 17.128906 23.339844 17.125 23.277344 17.148438 C 23.300781 17.175781 23.3125 17.207031 23.363281 17.199219 Z M 23.6875 8.488281 C 23.636719 8.46875 23.640625 8.421875 23.625 8.378906 C 23.613281 8.410156 23.601562 8.441406 23.582031 8.480469 C 23.625 8.484375 23.65625 8.484375 23.6875 8.488281 Z M 2.46875 22.351562 C 2.511719 22.390625 2.542969 22.414062 2.59375 22.40625 C 2.570312 22.347656 2.546875 22.335938 2.46875 22.351562 Z M 23.628906 8.058594 C 23.632812 8.011719 23.695312 7.960938 23.621094 7.910156 C 23.582031 7.960938 23.605469 8.011719 23.628906 8.058594 Z M 23.167969 19.550781 C 23.105469 19.625 23.226562 19.628906 23.199219 19.6875 C 23.207031 19.6875 23.214844 19.6875 23.21875 19.683594 C 23.226562 19.652344 23.230469 19.617188 23.238281 19.582031 C 23.210938 19.570312 23.191406 19.558594 23.167969 19.550781 Z M 23.039062 9.15625 C 22.96875 9.148438 22.921875 9.179688 22.910156 9.234375 C 22.984375 9.269531 23 9.1875 23.039062 9.15625 Z M 23.488281 13.386719 C 23.433594 13.40625 23.40625 13.433594 23.410156 13.46875 C 23.417969 13.507812 23.445312 13.515625 23.488281 13.507812 C 23.476562 13.46875 23.523438 13.433594 23.488281 13.386719 Z M 23.292969 17.078125 C 23.339844 17.074219 23.378906 17.054688 23.382812 17 C 23.34375 16.980469 23.347656 16.976562 23.347656 16.945312 C 23.347656 16.933594 23.332031 16.925781 23.320312 16.914062 C 23.316406 16.917969 23.3125 16.921875 23.304688 16.921875 C 23.320312 16.976562 23.246094 17.019531 23.292969 17.078125 Z M 22.804688 20.058594 C 22.765625 20.058594 22.753906 20.058594 22.742188 20.058594 C 22.722656 20.03125 22.761719 19.988281 22.710938 19.96875 C 22.671875 20.023438 22.65625 20.078125 22.691406 20.148438 C 22.726562 20.121094 22.757812 20.09375 22.804688 20.058594 Z M 23.492188 12.824219 C 23.503906 12.738281 23.515625 12.664062 23.523438 12.585938 C 23.496094 12.582031 23.480469 12.582031 23.460938 12.582031 C 23.460938 12.660156 23.460938 12.738281 23.460938 12.820312 C 23.46875 12.820312 23.480469 12.820312 23.492188 12.824219 Z M 23.164062 19.226562 C 23.15625 19.226562 23.152344 19.230469 23.144531 19.230469 C 23.148438 19.277344 23.148438 19.328125 23.152344 19.378906 C 23.179688 19.386719 23.210938 19.390625 23.257812 19.398438 C 23.242188 19.367188 23.234375 19.351562 23.226562 19.335938 C 23.246094 19.328125 23.253906 19.324219 23.265625 19.320312 C 23.226562 19.285156 23.195312 19.257812 23.164062 19.226562 Z M 23.398438 15.46875 C 23.40625 15.367188 23.414062 15.277344 23.421875 15.179688 C 23.359375 15.21875 23.359375 15.21875 23.359375 15.269531 C 23.359375 15.328125 23.359375 15.390625 23.359375 15.464844 C 23.367188 15.464844 23.386719 15.46875 23.398438 15.46875 Z M 23.394531 5.429688 C 23.410156 5.316406 23.390625 5.214844 23.355469 5.097656 C 23.34375 5.1875 23.332031 5.261719 23.328125 5.332031 C 23.328125 5.371094 23.332031 5.417969 23.394531 5.429688 Z M 3.113281 22.832031 C 3.085938 22.800781 3.0625 22.765625 3.011719 22.777344 C 2.980469 22.78125 2.957031 22.769531 2.941406 22.742188 C 2.929688 22.730469 2.914062 22.714844 2.898438 22.707031 C 2.84375 22.691406 2.785156 22.675781 2.730469 22.664062 C 2.710938 22.660156 2.691406 22.664062 2.671875 22.664062 C 2.671875 22.671875 2.671875 22.679688 2.667969 22.683594 C 2.695312 22.695312 2.71875 22.703125 2.742188 22.710938 C 2.765625 22.71875 2.792969 22.71875 2.8125 22.734375 C 2.898438 22.796875 3.003906 22.804688 3.101562 22.839844 C 3.101562 22.839844 3.105469 22.835938 3.113281 22.832031 Z M 23.363281 15.511719 C 23.328125 15.59375 23.324219 15.734375 23.347656 15.816406 C 23.367188 15.792969 23.394531 15.769531 23.410156 15.742188 C 23.421875 15.726562 23.4375 15.703125 23.433594 15.683594 C 23.421875 15.648438 23.402344 15.613281 23.386719 15.570312 C 23.394531 15.5625 23.410156 15.550781 23.433594 15.527344 C 23.402344 15.519531 23.382812 15.515625 23.363281 15.511719 Z M 23.414062 14.675781 C 23.367188 14.757812 23.351562 15.035156 23.378906 15.144531 C 23.449219 15.125 23.441406 15.0625 23.441406 15.007812 C 23.441406 14.933594 23.4375 14.863281 23.429688 14.792969 C 23.429688 14.757812 23.421875 14.722656 23.414062 14.675781 Z M 23.546875 5.601562 C 23.511719 5.699219 23.558594 6.15625 23.605469 6.230469 C 23.605469 6.109375 23.617188 5.992188 23.609375 5.882812 C 23.601562 5.785156 23.570312 5.695312 23.546875 5.601562 Z M 23.035156 19.886719 C 22.972656 20.074219 22.945312 20.269531 22.933594 20.480469 C 22.953125 20.46875 22.972656 20.460938 22.976562 20.453125 C 23.039062 20.269531 23.054688 20.078125 23.035156 19.886719 Z M 23.082031 3.722656 C 23.089844 3.71875 23.09375 3.714844 23.101562 3.710938 C 23.097656 3.695312 23.097656 3.679688 23.089844 3.664062 C 23.078125 3.613281 23.0625 3.5625 23.050781 3.511719 C 23 3.277344 22.96875 3.035156 22.875 2.808594 C 22.871094 2.800781 22.859375 2.792969 22.851562 2.785156 C 22.855469 2.875 22.867188 2.957031 22.890625 3.035156 C 22.929688 3.148438 22.945312 3.265625 22.949219 3.386719 C 22.949219 3.429688 22.960938 3.476562 22.976562 3.515625 C 23.003906 3.578125 23.039062 3.640625 23.070312 3.699219 C 23.074219 3.707031 23.078125 3.714844 23.082031 3.722656 Z M 23.621094 7.816406 C 23.628906 7.8125 23.640625 7.8125 23.648438 7.8125 C 23.652344 7.789062 23.652344 7.765625 23.652344 7.746094 C 23.652344 7.640625 23.632812 7.535156 23.648438 7.4375 C 23.667969 7.289062 23.617188 7.148438 23.625 7.003906 C 23.628906 6.960938 23.632812 6.925781 23.644531 6.886719 C 23.652344 6.851562 23.621094 6.808594 23.621094 6.769531 C 23.617188 6.726562 23.636719 6.683594 23.625 6.644531 C 23.605469 6.570312 23.613281 6.496094 23.613281 6.421875 C 23.613281 6.40625 23.609375 6.390625 23.601562 6.367188 C 23.585938 6.414062 23.570312 6.449219 23.566406 6.484375 C 23.558594 6.515625 23.554688 6.554688 23.5625 6.582031 C 23.578125 6.648438 23.578125 6.710938 23.566406 6.773438 C 23.5625 6.8125 23.558594 6.859375 23.566406 6.898438 C 23.585938 6.957031 23.59375 7.015625 23.589844 7.078125 C 23.585938 7.140625 23.550781 7.199219 23.597656 7.261719 C 23.601562 7.265625 23.597656 7.277344 23.59375 7.285156 C 23.5625 7.347656 23.578125 7.414062 23.59375 7.472656 C 23.617188 7.5625 23.621094 7.652344 23.613281 7.746094 C 23.613281 7.769531 23.617188 7.792969 23.621094 7.816406 Z M 23.339844 4.292969 C 23.332031 4.375 23.320312 4.460938 23.320312 4.542969 C 23.316406 4.585938 23.320312 4.632812 23.335938 4.671875 C 23.375 4.792969 23.414062 4.910156 23.425781 5.035156 C 23.429688 5.085938 23.433594 5.144531 23.453125 5.191406 C 23.484375 5.253906 23.492188 5.316406 23.496094 5.382812 C 23.496094 5.414062 23.496094 5.445312 23.527344 5.484375 C 23.546875 5.386719 23.527344 5.304688 23.519531 5.21875 C 23.507812 5.125 23.480469 5.03125 23.488281 4.9375 C 23.492188 4.828125 23.4375 4.722656 23.464844 4.609375 C 23.429688 4.503906 23.425781 4.386719 23.339844 4.292969 Z M 0.855469 17.390625 C 0.867188 17.441406 0.878906 17.476562 0.886719 17.515625 C 0.898438 17.570312 0.90625 17.628906 0.917969 17.683594 C 0.933594 17.75 0.960938 17.808594 0.949219 17.878906 C 0.941406 17.925781 0.933594 17.976562 0.949219 18.015625 C 0.996094 18.113281 0.964844 18.214844 0.964844 18.3125 C 0.964844 18.386719 0.972656 18.457031 1 18.523438 C 1.015625 18.5625 1.023438 18.59375 1.015625 18.636719 C 1.007812 18.683594 1.015625 18.730469 1.058594 18.78125 C 1.054688 18.617188 1.054688 18.464844 1.046875 18.3125 C 1.042969 18.210938 1.019531 18.109375 1.023438 18.003906 C 1.023438 17.925781 1.003906 17.851562 1 17.777344 C 0.992188 17.648438 0.949219 17.527344 0.945312 17.398438 C 0.941406 17.296875 0.917969 17.191406 0.925781 17.085938 C 0.925781 17.0625 0.914062 17.039062 0.90625 17.011719 C 0.867188 17.03125 0.863281 17.054688 0.871094 17.085938 C 0.875 17.109375 0.871094 17.136719 0.871094 17.164062 C 0.875 17.183594 0.871094 17.207031 0.878906 17.21875 C 0.921875 17.289062 0.917969 17.347656 0.855469 17.390625 Z M 23.054688 3.9375 C 23.050781 3.9375 23.042969 3.9375 23.039062 3.9375 C 23.046875 4.050781 23.058594 4.164062 23.058594 4.277344 C 23.0625 4.371094 23.054688 4.460938 23.054688 4.554688 C 23.054688 4.613281 23.078125 4.671875 23.066406 4.726562 C 23.050781 4.839844 23.082031 4.941406 23.097656 5.050781 C 23.117188 5.179688 23.144531 5.304688 23.117188 5.4375 C 23.117188 5.449219 23.117188 5.46875 23.125 5.476562 C 23.167969 5.523438 23.148438 5.570312 23.128906 5.617188 C 23.125 5.628906 23.117188 5.640625 23.117188 5.652344 C 23.121094 5.699219 23.128906 5.746094 23.136719 5.792969 C 23.136719 5.800781 23.148438 5.804688 23.167969 5.820312 C 23.171875 5.753906 23.179688 5.703125 23.179688 5.648438 C 23.175781 5.523438 23.164062 5.398438 23.167969 5.273438 C 23.167969 5.144531 23.199219 5.015625 23.167969 4.882812 C 23.164062 4.878906 23.167969 4.871094 23.167969 4.867188 C 23.160156 4.691406 23.15625 4.511719 23.148438 4.335938 C 23.140625 4.242188 23.128906 4.148438 23.085938 4.0625 C 23.066406 4.023438 23.0625 3.976562 23.054688 3.9375 Z M 22.992188 9.535156 C 23.011719 9.582031 23.027344 9.617188 23.042969 9.652344 C 23.058594 9.683594 23.066406 9.710938 23.050781 9.746094 C 23.035156 9.785156 23.039062 9.832031 23.066406 9.871094 C 23.082031 9.902344 23.097656 9.9375 23.097656 9.96875 C 23.09375 10.046875 23.078125 10.121094 23.078125 10.199219 C 23.074219 10.339844 23.082031 10.476562 23.082031 10.613281 C 23.085938 10.621094 23.085938 10.625 23.089844 10.628906 C 23.128906 10.652344 23.109375 10.6875 23.105469 10.71875 C 23.101562 10.773438 23.089844 10.828125 23.085938 10.882812 C 23.078125 10.980469 23.074219 11.078125 23.101562 11.171875 C 23.121094 11.242188 23.128906 11.3125 23.140625 11.382812 C 23.140625 11.386719 23.148438 11.390625 23.164062 11.398438 C 23.171875 11.292969 23.191406 11.191406 23.191406 11.089844 C 23.195312 10.921875 23.203125 10.75 23.175781 10.582031 C 23.148438 10.402344 23.148438 10.222656 23.132812 10.039062 C 23.117188 9.894531 23.121094 9.746094 23.113281 9.597656 C 23.113281 9.542969 23.097656 9.488281 23.089844 9.429688 C 23.078125 9.488281 23.070312 9.535156 22.992188 9.535156 Z M 6.636719 23.355469 C 6.683594 23.324219 6.722656 23.324219 6.761719 23.332031 C 6.847656 23.347656 6.933594 23.367188 7.015625 23.328125 C 7.027344 23.324219 7.039062 23.328125 7.046875 23.328125 C 7.121094 23.335938 7.191406 23.351562 7.261719 23.351562 C 7.328125 23.355469 7.398438 23.347656 7.464844 23.335938 C 7.527344 23.324219 7.582031 23.316406 7.640625 23.34375 C 7.660156 23.351562 7.6875 23.363281 7.703125 23.355469 C 7.828125 23.320312 7.949219 23.316406 8.070312 23.355469 C 8.078125 23.359375 8.089844 23.359375 8.101562 23.355469 C 8.164062 23.339844 8.222656 23.324219 8.28125 23.308594 C 8.300781 23.230469 8.285156 23.210938 8.21875 23.222656 C 8.175781 23.226562 8.136719 23.242188 8.097656 23.21875 C 8.089844 23.214844 8.074219 23.214844 8.066406 23.21875 C 7.910156 23.273438 7.75 23.238281 7.59375 23.230469 C 7.503906 23.226562 7.414062 23.214844 7.324219 23.210938 C 7.195312 23.203125 7.066406 23.199219 6.9375 23.195312 C 6.882812 23.191406 6.828125 23.191406 6.773438 23.191406 C 6.789062 23.261719 6.785156 23.265625 6.734375 23.269531 C 6.707031 23.273438 6.675781 23.273438 6.644531 23.273438 C 6.640625 23.300781 6.640625 23.320312 6.636719 23.355469 Z M 22.769531 3.109375 C 22.773438 3.105469 22.777344 3.105469 22.785156 3.101562 C 22.78125 3.074219 22.777344 3.046875 22.769531 3.019531 C 22.765625 2.992188 22.753906 2.96875 22.75 2.945312 C 22.730469 2.816406 22.675781 2.699219 22.621094 2.585938 C 22.5625 2.464844 22.488281 2.347656 22.425781 2.226562 C 22.386719 2.148438 22.375 2.054688 22.277344 2.019531 C 22.273438 2.019531 22.269531 2.015625 22.269531 2.011719 C 22.253906 1.960938 22.210938 1.941406 22.175781 1.914062 C 22.164062 1.90625 22.152344 1.894531 22.148438 1.882812 C 22.109375 1.773438 22.007812 1.753906 21.917969 1.71875 C 21.875 1.699219 21.824219 1.691406 21.777344 1.675781 C 21.753906 1.667969 21.726562 1.652344 21.703125 1.679688 C 21.714844 1.742188 21.742188 1.789062 21.800781 1.816406 C 21.816406 1.820312 21.832031 1.835938 21.847656 1.847656 C 21.894531 1.898438 21.9375 1.953125 21.988281 2 C 22.113281 2.105469 22.214844 2.230469 22.300781 2.371094 C 22.3125 2.390625 22.324219 2.417969 22.339844 2.421875 C 22.390625 2.441406 22.398438 2.488281 22.425781 2.519531 C 22.460938 2.5625 22.488281 2.613281 22.515625 2.65625 C 22.542969 2.695312 22.570312 2.730469 22.585938 2.769531 C 22.628906 2.875 22.6875 2.972656 22.738281 3.074219 C 22.746094 3.085938 22.757812 3.097656 22.769531 3.109375 Z M 23.3125 9.175781 C 23.320312 9.105469 23.324219 9.042969 23.335938 8.980469 C 23.347656 8.925781 23.363281 8.875 23.332031 8.820312 C 23.324219 8.808594 23.328125 8.789062 23.332031 8.769531 C 23.332031 8.695312 23.335938 8.621094 23.339844 8.546875 C 23.339844 8.507812 23.335938 8.472656 23.339844 8.433594 C 23.34375 8.386719 23.355469 8.339844 23.324219 8.296875 C 23.316406 8.289062 23.320312 8.269531 23.324219 8.257812 C 23.351562 8.175781 23.351562 8.09375 23.34375 8.007812 C 23.339844 7.984375 23.351562 7.960938 23.355469 7.953125 C 23.34375 7.902344 23.339844 7.871094 23.332031 7.835938 C 23.332031 7.820312 23.335938 7.800781 23.332031 7.785156 C 23.304688 7.636719 23.316406 7.484375 23.3125 7.332031 C 23.308594 7.285156 23.304688 7.242188 23.300781 7.199219 C 23.296875 7.152344 23.289062 7.109375 23.292969 7.066406 C 23.300781 7 23.316406 6.933594 23.324219 6.867188 C 23.332031 6.8125 23.328125 6.808594 23.261719 6.808594 C 23.257812 6.816406 23.25 6.824219 23.25 6.832031 C 23.222656 6.957031 23.195312 7.082031 23.195312 7.210938 C 23.195312 7.300781 23.1875 7.386719 23.175781 7.476562 C 23.164062 7.535156 23.164062 7.589844 23.175781 7.648438 C 23.1875 7.691406 23.214844 7.742188 23.15625 7.773438 C 23.1875 7.820312 23.21875 7.863281 23.183594 7.921875 C 23.179688 7.929688 23.183594 7.941406 23.183594 7.953125 C 23.179688 8.09375 23.234375 8.234375 23.199219 8.375 C 23.199219 8.378906 23.203125 8.386719 23.203125 8.390625 C 23.226562 8.4375 23.207031 8.480469 23.191406 8.519531 C 23.1875 8.527344 23.183594 8.535156 23.179688 8.542969 C 23.199219 8.554688 23.210938 8.566406 23.226562 8.578125 C 23.21875 8.601562 23.203125 8.617188 23.203125 8.636719 C 23.199219 8.660156 23.207031 8.683594 23.210938 8.707031 C 23.214844 8.730469 23.214844 8.753906 23.226562 8.773438 C 23.265625 8.824219 23.253906 8.882812 23.257812 8.941406 C 23.261719 9.015625 23.28125 9.089844 23.292969 9.164062 C 23.292969 9.164062 23.296875 9.167969 23.3125 9.175781 Z M 23.199219 18.929688 C 23.210938 18.914062 23.226562 18.898438 23.242188 18.886719 C 23.261719 18.875 23.285156 18.867188 23.304688 18.859375 C 23.304688 18.847656 23.304688 18.828125 23.304688 18.8125 C 23.289062 18.820312 23.273438 18.828125 23.253906 18.839844 C 23.238281 18.816406 23.222656 18.785156 23.199219 18.769531 C 23.164062 18.742188 23.164062 18.71875 23.179688 18.683594 C 23.1875 18.664062 23.199219 18.636719 23.195312 18.621094 C 23.164062 18.515625 23.210938 18.417969 23.199219 18.316406 C 23.222656 18.3125 23.238281 18.3125 23.257812 18.308594 C 23.214844 18.253906 23.261719 18.214844 23.28125 18.175781 C 23.265625 18.140625 23.214844 18.128906 23.226562 18.082031 C 23.25 18.09375 23.273438 18.105469 23.296875 18.117188 C 23.277344 18.066406 23.242188 18.03125 23.234375 17.988281 C 23.226562 17.949219 23.25 17.898438 23.257812 17.847656 C 23.230469 17.820312 23.230469 17.816406 23.257812 17.777344 C 23.292969 17.726562 23.261719 17.664062 23.285156 17.613281 C 23.238281 17.582031 23.261719 17.535156 23.269531 17.5 C 23.28125 17.449219 23.285156 17.40625 23.253906 17.367188 C 23.269531 17.351562 23.28125 17.339844 23.292969 17.328125 C 23.257812 17.289062 23.289062 17.222656 23.238281 17.1875 C 23.222656 17.175781 23.238281 17.132812 23.226562 17.117188 C 23.1875 17.058594 23.195312 16.996094 23.207031 16.9375 C 23.234375 16.785156 23.226562 16.632812 23.230469 16.480469 C 23.230469 16.46875 23.222656 16.460938 23.21875 16.453125 C 23.207031 16.492188 23.207031 16.527344 23.203125 16.558594 C 23.191406 16.648438 23.164062 16.734375 23.191406 16.828125 C 23.113281 16.859375 23.15625 16.910156 23.164062 16.960938 C 23.109375 16.992188 23.074219 17.039062 23.089844 17.109375 C 23.105469 17.171875 23 17.164062 23.019531 17.230469 C 23.019531 17.234375 22.996094 17.242188 22.984375 17.25 C 22.980469 17.25 22.976562 17.246094 22.96875 17.246094 C 22.96875 17.25 22.964844 17.253906 22.960938 17.261719 C 22.976562 17.269531 22.996094 17.277344 23.007812 17.289062 C 23.007812 17.316406 23.007812 17.339844 23.007812 17.367188 C 22.988281 17.375 22.96875 17.378906 22.941406 17.386719 C 23.03125 17.410156 23.039062 17.417969 23.035156 17.535156 C 22.964844 17.539062 22.972656 17.597656 22.972656 17.652344 C 22.976562 17.710938 22.976562 17.769531 22.988281 17.824219 C 23.007812 17.898438 22.949219 17.972656 23.003906 18.039062 C 22.972656 18.078125 22.96875 18.113281 22.960938 18.15625 C 22.957031 18.195312 22.984375 18.214844 22.976562 18.242188 C 22.953125 18.320312 22.984375 18.390625 23.007812 18.460938 C 23.03125 18.527344 23.066406 18.589844 23.023438 18.660156 C 23.015625 18.671875 23.023438 18.691406 23.023438 18.710938 C 23.066406 18.707031 23.097656 18.703125 23.128906 18.699219 C 23.132812 18.707031 23.136719 18.710938 23.136719 18.710938 C 23.15625 18.796875 23.117188 18.886719 23.160156 18.96875 C 23.160156 18.972656 23.15625 18.984375 23.152344 18.992188 C 23.117188 19.035156 23.148438 19.082031 23.144531 19.128906 C 23.140625 19.207031 23.210938 19.1875 23.25 19.203125 C 23.257812 19.207031 23.269531 19.210938 23.277344 19.210938 C 23.292969 19.144531 23.257812 19.113281 23.191406 19.097656 C 23.222656 19.082031 23.238281 19.074219 23.261719 19.058594 C 23.238281 19.015625 23.21875 18.972656 23.199219 18.929688 Z M 22.898438 14.558594 C 22.84375 14.523438 22.835938 14.464844 22.824219 14.410156 C 22.8125 14.332031 22.851562 14.253906 22.828125 14.171875 C 22.824219 14.167969 22.839844 14.160156 22.84375 14.15625 C 22.828125 14.121094 22.808594 14.089844 22.804688 14.054688 C 22.796875 13.996094 22.804688 13.933594 22.804688 13.875 C 22.804688 13.828125 22.796875 13.785156 22.800781 13.742188 C 22.804688 13.679688 22.820312 13.621094 22.828125 13.558594 C 22.832031 13.539062 22.824219 13.515625 22.824219 13.492188 C 22.820312 13.472656 22.808594 13.445312 22.816406 13.425781 C 22.859375 13.339844 22.820312 13.242188 22.84375 13.152344 C 22.863281 13.070312 22.847656 12.984375 22.847656 12.898438 C 22.871094 12.882812 22.890625 12.867188 22.914062 12.851562 C 22.875 12.820312 22.839844 12.746094 22.859375 12.714844 C 22.882812 12.675781 22.878906 12.636719 22.875 12.597656 C 22.867188 12.539062 22.867188 12.480469 22.867188 12.425781 C 22.867188 12.375 22.882812 12.324219 22.878906 12.277344 C 22.863281 12.164062 22.863281 12.054688 22.933594 11.96875 C 22.914062 11.9375 22.882812 11.914062 22.886719 11.890625 C 22.886719 11.863281 22.917969 11.839844 22.933594 11.8125 C 22.886719 11.789062 22.875 11.753906 22.875 11.703125 C 22.875 11.660156 22.867188 11.613281 22.859375 11.570312 C 22.847656 11.511719 22.84375 11.449219 22.875 11.390625 C 22.886719 11.371094 22.894531 11.347656 22.875 11.324219 C 22.863281 11.3125 22.863281 11.292969 22.863281 11.277344 C 22.859375 11.234375 22.859375 11.1875 22.851562 11.140625 C 22.84375 11.082031 22.832031 11.019531 22.820312 10.960938 C 22.820312 10.953125 22.824219 10.945312 22.828125 10.9375 C 22.84375 10.933594 22.863281 10.933594 22.890625 10.925781 C 22.875 10.898438 22.867188 10.875 22.855469 10.855469 C 22.808594 10.769531 22.792969 10.679688 22.796875 10.582031 C 22.800781 10.53125 22.808594 10.488281 22.855469 10.460938 C 22.863281 10.460938 22.867188 10.449219 22.871094 10.441406 C 22.84375 10.433594 22.824219 10.425781 22.796875 10.417969 C 22.796875 10.351562 22.78125 10.285156 22.832031 10.234375 C 22.832031 10.246094 22.835938 10.257812 22.839844 10.273438 C 22.859375 10.242188 22.859375 10.242188 22.832031 10.234375 C 22.753906 10.152344 22.847656 10.105469 22.871094 10.046875 C 22.847656 10 22.820312 9.953125 22.804688 9.910156 C 22.792969 9.878906 22.78125 9.84375 22.792969 9.816406 C 22.796875 9.796875 22.839844 9.792969 22.867188 9.78125 C 22.871094 9.742188 22.859375 9.707031 22.824219 9.683594 C 22.808594 9.675781 22.792969 9.664062 22.789062 9.648438 C 22.765625 9.527344 22.765625 9.410156 22.84375 9.304688 C 22.835938 9.300781 22.824219 9.296875 22.808594 9.292969 C 22.808594 9.242188 22.808594 9.191406 22.808594 9.128906 C 22.828125 9.121094 22.851562 9.113281 22.875 9.101562 C 22.863281 9.09375 22.847656 9.082031 22.835938 9.074219 C 22.847656 9.023438 22.855469 8.980469 22.863281 8.9375 C 22.839844 8.925781 22.824219 8.914062 22.816406 8.910156 C 22.824219 8.867188 22.824219 8.835938 22.828125 8.804688 C 22.832031 8.785156 22.835938 8.761719 22.847656 8.742188 C 22.863281 8.71875 22.863281 8.695312 22.859375 8.664062 C 22.855469 8.625 22.84375 8.574219 22.898438 8.554688 C 22.867188 8.519531 22.878906 8.515625 22.859375 8.421875 C 22.835938 8.320312 22.871094 8.226562 22.890625 8.132812 C 22.902344 8.082031 22.917969 8.042969 22.894531 7.992188 C 22.890625 7.988281 22.890625 7.976562 22.894531 7.96875 C 22.925781 7.90625 22.878906 7.84375 22.886719 7.78125 C 22.890625 7.75 22.890625 7.71875 22.882812 7.691406 C 22.875 7.660156 22.878906 7.636719 22.886719 7.609375 C 22.902344 7.542969 22.925781 7.472656 22.917969 7.40625 C 22.914062 7.34375 22.921875 7.285156 22.933594 7.226562 C 22.9375 7.207031 22.9375 7.1875 22.933594 7.167969 C 22.910156 7.046875 22.933594 6.925781 22.949219 6.804688 C 22.96875 6.6875 22.972656 6.574219 22.953125 6.457031 C 22.945312 6.40625 22.929688 6.355469 22.96875 6.304688 C 22.976562 6.296875 22.976562 6.273438 22.976562 6.257812 C 22.972656 6.179688 22.96875 6.097656 22.972656 6.019531 C 22.972656 5.953125 22.980469 5.890625 22.980469 5.828125 C 22.980469 5.734375 22.96875 5.636719 23.019531 5.550781 C 23.03125 5.53125 23.035156 5.503906 23.03125 5.484375 C 23.019531 5.425781 23.011719 5.363281 23.027344 5.304688 C 23.03125 5.285156 23.019531 5.265625 23.019531 5.246094 C 22.996094 5.125 22.960938 5.007812 22.949219 4.886719 C 22.929688 4.691406 22.910156 4.5 22.929688 4.300781 C 22.945312 4.121094 22.902344 3.945312 22.890625 3.769531 C 22.886719 3.734375 22.882812 3.699219 22.871094 3.671875 C 22.8125 3.550781 22.785156 3.414062 22.679688 3.316406 C 22.671875 3.308594 22.671875 3.285156 22.667969 3.269531 C 22.664062 3.25 22.667969 3.230469 22.660156 3.214844 C 22.625 3.148438 22.617188 3.0625 22.554688 3.011719 C 22.546875 3.003906 22.539062 2.992188 22.539062 2.980469 C 22.507812 2.859375 22.421875 2.765625 22.351562 2.667969 C 22.269531 2.546875 22.164062 2.4375 22.074219 2.320312 C 22.007812 2.238281 21.9375 2.160156 21.867188 2.082031 C 21.828125 2.042969 21.777344 2.007812 21.742188 1.964844 C 21.65625 1.867188 21.53125 1.800781 21.472656 1.675781 C 21.464844 1.664062 21.449219 1.652344 21.4375 1.640625 C 21.351562 1.558594 21.242188 1.578125 21.136719 1.554688 C 21.140625 1.589844 21.144531 1.613281 21.148438 1.648438 C 21.042969 1.5625 21.027344 1.523438 21.0625 1.433594 C 21.046875 1.394531 21.023438 1.382812 20.984375 1.371094 C 20.886719 1.351562 20.792969 1.316406 20.695312 1.292969 C 20.582031 1.265625 20.464844 1.242188 20.351562 1.222656 C 20.273438 1.207031 20.195312 1.203125 20.121094 1.191406 C 20.011719 1.175781 19.902344 1.15625 19.796875 1.140625 C 19.777344 1.136719 19.757812 1.140625 19.738281 1.144531 C 19.683594 1.164062 19.632812 1.148438 19.601562 1.125 C 19.550781 1.132812 19.515625 1.144531 19.484375 1.144531 C 19.429688 1.140625 19.375 1.128906 19.320312 1.117188 C 19.28125 1.113281 19.242188 1.101562 19.199219 1.089844 C 19.105469 1.066406 19.011719 1.03125 18.910156 1.035156 C 18.863281 1.035156 18.820312 1.027344 18.773438 1.019531 C 18.648438 1.007812 18.523438 0.992188 18.394531 0.984375 C 18.230469 0.972656 18.066406 0.964844 17.902344 0.953125 C 17.761719 0.941406 17.621094 0.910156 17.480469 0.945312 C 17.449219 0.953125 17.410156 0.964844 17.375 0.960938 C 17.265625 0.953125 17.160156 0.988281 17.050781 1.007812 C 17.035156 1.007812 17.019531 1.007812 17 1.007812 C 17 0.972656 17 0.941406 17 0.90625 C 16.96875 0.898438 16.9375 0.894531 16.90625 0.890625 C 16.832031 0.886719 16.761719 0.886719 16.691406 0.878906 C 16.644531 0.875 16.597656 0.863281 16.554688 0.863281 C 16.4375 0.855469 16.324219 0.855469 16.207031 0.847656 C 16.09375 0.839844 15.976562 0.824219 15.859375 0.839844 C 15.832031 0.84375 15.800781 0.839844 15.769531 0.835938 C 15.613281 0.816406 15.453125 0.816406 15.292969 0.820312 C 15.167969 0.820312 15.042969 0.824219 14.921875 0.820312 C 14.765625 0.8125 14.613281 0.792969 14.460938 0.816406 C 14.449219 0.820312 14.4375 0.816406 14.425781 0.816406 C 14.347656 0.808594 14.265625 0.789062 14.191406 0.800781 C 14.078125 0.816406 13.972656 0.800781 13.863281 0.804688 C 13.652344 0.808594 13.445312 0.78125 13.238281 0.785156 C 13.125 0.785156 13.011719 0.769531 12.902344 0.765625 C 12.863281 0.765625 12.820312 0.753906 12.78125 0.78125 C 12.765625 0.792969 12.738281 0.789062 12.714844 0.789062 C 12.597656 0.785156 12.476562 0.78125 12.355469 0.78125 C 12.304688 0.78125 12.253906 0.789062 12.207031 0.789062 C 12.160156 0.789062 12.113281 0.785156 12.066406 0.785156 C 12.046875 0.785156 12.023438 0.792969 12.003906 0.792969 C 11.980469 0.792969 11.960938 0.796875 11.9375 0.796875 C 11.894531 0.796875 11.851562 0.792969 11.804688 0.789062 C 11.707031 0.777344 11.609375 0.8125 11.511719 0.785156 C 11.480469 0.773438 11.441406 0.785156 11.40625 0.792969 C 11.316406 0.804688 11.226562 0.789062 11.140625 0.828125 C 11.128906 0.835938 11.109375 0.824219 11.09375 0.824219 C 11.015625 0.828125 10.941406 0.796875 10.863281 0.8125 C 10.773438 0.828125 10.679688 0.792969 10.589844 0.8125 C 10.585938 0.8125 10.585938 0.8125 10.582031 0.8125 C 10.5 0.8125 10.417969 0.796875 10.335938 0.832031 C 10.300781 0.851562 10.25 0.847656 10.207031 0.847656 C 10.105469 0.84375 10.003906 0.816406 9.902344 0.832031 C 9.761719 0.851562 9.613281 0.824219 9.472656 0.867188 C 9.464844 0.871094 9.453125 0.871094 9.445312 0.871094 C 9.371094 0.855469 9.300781 0.863281 9.226562 0.878906 C 9.167969 0.886719 9.109375 0.878906 9.054688 0.902344 C 9.039062 0.910156 9.019531 0.898438 9 0.898438 C 8.972656 0.894531 8.949219 0.890625 8.925781 0.894531 C 8.648438 0.914062 8.375 0.960938 8.097656 0.972656 C 8 0.976562 7.90625 0.992188 7.808594 1 C 7.683594 1.011719 7.554688 1.015625 7.429688 1.035156 C 7.21875 1.066406 7.011719 1.101562 6.796875 1.089844 C 6.757812 1.089844 6.707031 1.078125 6.675781 1.09375 C 6.585938 1.144531 6.488281 1.128906 6.394531 1.152344 C 6.257812 1.183594 6.113281 1.183594 5.976562 1.210938 C 5.820312 1.238281 5.664062 1.234375 5.507812 1.269531 C 5.332031 1.3125 5.144531 1.335938 4.964844 1.367188 C 4.828125 1.390625 4.691406 1.414062 4.558594 1.4375 C 4.289062 1.484375 4.03125 1.554688 3.769531 1.632812 C 3.695312 1.65625 3.609375 1.664062 3.53125 1.679688 C 3.527344 1.59375 3.53125 1.589844 3.597656 1.574219 C 3.632812 1.570312 3.667969 1.570312 3.695312 1.554688 C 3.785156 1.492188 3.882812 1.460938 3.992188 1.445312 C 4.105469 1.425781 4.21875 1.371094 4.332031 1.34375 C 4.46875 1.316406 4.597656 1.25 4.746094 1.269531 C 4.757812 1.273438 4.769531 1.265625 4.785156 1.265625 C 4.859375 1.25 4.9375 1.238281 5.011719 1.222656 C 5.140625 1.199219 5.265625 1.171875 5.394531 1.144531 C 5.417969 1.140625 5.445312 1.128906 5.46875 1.121094 C 5.445312 1.113281 5.421875 1.109375 5.398438 1.113281 C 5.136719 1.15625 4.875 1.199219 4.613281 1.242188 C 4.242188 1.304688 3.875 1.398438 3.511719 1.503906 C 3.386719 1.542969 3.261719 1.585938 3.136719 1.632812 C 2.9375 1.703125 2.742188 1.777344 2.546875 1.851562 C 2.535156 1.859375 2.523438 1.867188 2.511719 1.875 C 2.425781 1.941406 2.347656 2.011719 2.261719 2.078125 C 2.226562 2.101562 2.210938 2.132812 2.191406 2.167969 C 2.132812 2.265625 2.117188 2.375 2.097656 2.484375 C 2.09375 2.515625 2.085938 2.550781 2.070312 2.578125 C 2.027344 2.675781 2.019531 2.769531 2.078125 2.867188 C 2.003906 2.875 2.003906 2.875 1.988281 2.941406 C 1.960938 3.078125 1.929688 3.210938 1.902344 3.347656 C 1.890625 3.394531 1.886719 3.4375 1.84375 3.46875 C 1.832031 3.480469 1.832031 3.503906 1.828125 3.523438 C 1.808594 3.640625 1.804688 3.761719 1.734375 3.867188 C 1.71875 3.886719 1.71875 3.914062 1.714844 3.9375 C 1.703125 3.980469 1.699219 4.023438 1.6875 4.066406 C 1.683594 4.097656 1.671875 4.125 1.664062 4.15625 C 1.644531 4.214844 1.628906 4.273438 1.609375 4.328125 C 1.558594 4.460938 1.507812 4.59375 1.453125 4.726562 C 1.421875 4.800781 1.421875 4.882812 1.398438 4.957031 C 1.375 5.042969 1.359375 5.132812 1.347656 5.21875 C 1.3125 5.433594 1.28125 5.648438 1.273438 5.867188 C 1.269531 5.921875 1.269531 5.980469 1.261719 6.039062 C 1.25 6.171875 1.226562 6.300781 1.226562 6.433594 C 1.230469 6.507812 1.238281 6.585938 1.222656 6.660156 C 1.210938 6.734375 1.238281 6.816406 1.1875 6.886719 C 1.183594 6.890625 1.1875 6.90625 1.1875 6.917969 C 1.191406 6.953125 1.191406 6.984375 1.191406 7.015625 C 1.183594 7.082031 1.171875 7.148438 1.164062 7.214844 C 1.15625 7.292969 1.144531 7.367188 1.136719 7.445312 C 1.128906 7.507812 1.117188 7.566406 1.113281 7.628906 C 1.109375 7.753906 1.105469 7.882812 1.101562 8.011719 C 1.101562 8.144531 1.046875 8.273438 1.082031 8.410156 C 1.082031 8.417969 1.078125 8.429688 1.078125 8.4375 C 1.066406 8.492188 1.058594 8.550781 1.046875 8.609375 C 1.03125 8.671875 0.996094 8.734375 0.996094 8.796875 C 1 8.871094 1.007812 8.941406 1 9.015625 C 0.992188 9.09375 1.011719 9.175781 1.015625 9.257812 C 1.015625 9.300781 1.011719 9.351562 0.957031 9.378906 C 0.976562 9.390625 0.992188 9.402344 1.011719 9.414062 C 1.003906 9.492188 1.003906 9.570312 0.988281 9.644531 C 0.96875 9.722656 0.957031 9.796875 0.992188 9.871094 C 1.007812 9.90625 1.007812 9.945312 0.9375 9.957031 C 1.007812 9.96875 0.996094 10.003906 0.980469 10.027344 C 0.941406 10.089844 0.945312 10.152344 0.960938 10.21875 C 0.964844 10.253906 0.976562 10.285156 0.972656 10.316406 C 0.964844 10.40625 0.992188 10.5 0.914062 10.566406 C 0.921875 10.585938 0.933594 10.597656 0.933594 10.613281 C 0.9375 10.722656 0.957031 10.832031 0.9375 10.945312 C 0.921875 11.003906 0.929688 11.066406 0.910156 11.125 C 0.902344 11.160156 0.894531 11.1875 0.902344 11.222656 C 0.910156 11.269531 0.878906 11.324219 0.925781 11.367188 C 0.929688 11.371094 0.925781 11.386719 0.929688 11.394531 C 0.933594 11.429688 0.9375 11.46875 0.945312 11.507812 C 0.960938 11.566406 0.945312 11.625 0.890625 11.667969 C 0.910156 11.671875 0.921875 11.675781 0.9375 11.683594 C 0.945312 11.714844 0.957031 11.746094 0.960938 11.777344 C 0.96875 11.839844 0.972656 11.902344 0.972656 11.960938 C 0.972656 12.015625 0.957031 12.066406 0.960938 12.117188 C 0.972656 12.25 0.929688 12.382812 0.96875 12.515625 C 0.976562 12.53125 0.964844 12.554688 0.960938 12.574219 C 0.960938 12.582031 0.957031 12.59375 0.960938 12.601562 C 0.980469 12.671875 0.96875 12.75 1.003906 12.820312 C 1.019531 12.851562 1.015625 12.894531 1.019531 12.933594 C 1.027344 13 1.035156 13.066406 1.042969 13.132812 C 1.042969 13.152344 1.054688 13.175781 1.050781 13.1875 C 1.015625 13.25 1.015625 13.308594 1.042969 13.371094 C 1.050781 13.390625 1.046875 13.414062 1.050781 13.4375 C 1.054688 13.53125 1.03125 13.625 1.066406 13.71875 C 1.070312 13.734375 1.058594 13.75 1.058594 13.769531 C 1.050781 13.839844 1.042969 13.910156 1.042969 13.980469 C 1.042969 14.050781 1.078125 14.117188 1.050781 14.191406 C 1.039062 14.230469 1.042969 14.28125 1.0625 14.316406 C 1.089844 14.375 1.082031 14.4375 1.078125 14.496094 C 1.070312 14.554688 1.070312 14.617188 1.078125 14.675781 C 1.082031 14.691406 1.082031 14.707031 1.078125 14.71875 C 1.054688 14.757812 1.09375 14.777344 1.101562 14.785156 C 1.089844 14.855469 1.078125 14.910156 1.078125 14.964844 C 1.078125 15.027344 1.085938 15.089844 1.09375 15.152344 C 1.105469 15.320312 1.121094 15.484375 1.136719 15.648438 C 1.148438 15.769531 1.160156 15.886719 1.171875 16.007812 C 1.191406 16.199219 1.214844 16.394531 1.238281 16.585938 C 1.253906 16.707031 1.273438 16.828125 1.292969 16.949219 C 1.296875 17.007812 1.296875 17.066406 1.304688 17.125 C 1.324219 17.253906 1.351562 17.382812 1.371094 17.511719 C 1.386719 17.617188 1.394531 17.71875 1.410156 17.824219 C 1.414062 17.863281 1.417969 17.902344 1.421875 17.941406 C 1.433594 18.101562 1.445312 18.261719 1.453125 18.421875 C 1.453125 18.492188 1.496094 18.554688 1.46875 18.625 C 1.46875 18.628906 1.46875 18.636719 1.472656 18.640625 C 1.515625 18.730469 1.488281 18.828125 1.5 18.921875 C 1.511719 19.003906 1.492188 19.089844 1.53125 19.167969 C 1.542969 19.183594 1.542969 19.207031 1.539062 19.222656 C 1.519531 19.351562 1.578125 19.46875 1.59375 19.59375 C 1.609375 19.714844 1.652344 19.835938 1.683594 19.957031 C 1.710938 20.0625 1.734375 20.167969 1.769531 20.269531 C 1.796875 20.34375 1.824219 20.421875 1.820312 20.503906 C 1.820312 20.519531 1.824219 20.535156 1.832031 20.550781 C 1.890625 20.703125 1.945312 20.859375 2.007812 21.007812 C 2.027344 21.050781 2.023438 21.101562 2.070312 21.136719 C 2.097656 21.160156 2.097656 21.21875 2.113281 21.265625 C 2.175781 21.273438 2.179688 21.339844 2.191406 21.394531 C 2.195312 21.417969 2.195312 21.433594 2.214844 21.449219 C 2.277344 21.507812 2.273438 21.542969 2.203125 21.601562 C 2.15625 21.554688 2.15625 21.554688 2.109375 21.5625 C 2.042969 21.492188 2.035156 21.382812 1.953125 21.320312 C 1.949219 21.316406 1.949219 21.308594 1.949219 21.304688 C 1.949219 21.25 1.90625 21.214844 1.882812 21.171875 C 1.863281 21.128906 1.839844 21.132812 1.796875 21.152344 C 1.8125 21.210938 1.824219 21.269531 1.839844 21.324219 C 1.859375 21.386719 1.882812 21.449219 1.945312 21.488281 C 1.960938 21.496094 1.976562 21.523438 1.972656 21.535156 C 1.960938 21.578125 1.992188 21.601562 2.019531 21.613281 C 2.066406 21.632812 2.101562 21.671875 2.121094 21.710938 C 2.15625 21.773438 2.199219 21.828125 2.25 21.878906 C 2.332031 21.957031 2.410156 22.042969 2.496094 22.113281 C 2.589844 22.183594 2.679688 22.253906 2.777344 22.316406 C 2.910156 22.402344 3.039062 22.484375 3.195312 22.511719 C 3.210938 22.515625 3.226562 22.523438 3.238281 22.535156 C 3.3125 22.59375 3.398438 22.625 3.484375 22.652344 C 3.546875 22.671875 3.609375 22.691406 3.667969 22.726562 C 3.734375 22.765625 3.808594 22.792969 3.882812 22.8125 C 3.953125 22.828125 4.03125 22.816406 4.09375 22.867188 C 4.097656 22.875 4.109375 22.875 4.117188 22.875 C 4.222656 22.898438 4.328125 22.925781 4.433594 22.9375 C 4.578125 22.957031 4.710938 23.027344 4.859375 23.019531 C 4.953125 23.015625 5.046875 23.027344 5.140625 23.03125 C 5.1875 23.035156 5.234375 23.046875 5.292969 23.058594 C 5.304688 23.054688 5.332031 23.035156 5.351562 23.042969 C 5.410156 23.066406 5.46875 23.046875 5.53125 23.046875 C 5.707031 23.042969 5.882812 23.039062 6.058594 23.035156 C 6.109375 23.03125 6.160156 23.035156 6.207031 23.042969 C 6.265625 23.054688 6.320312 23.035156 6.375 23.039062 C 6.484375 23.039062 6.597656 23.050781 6.707031 23.023438 C 6.726562 23.015625 6.746094 23.019531 6.765625 23.023438 C 6.832031 23.027344 6.902344 23.039062 6.96875 23.042969 C 7.03125 23.050781 7.089844 23.050781 7.148438 23.058594 C 7.167969 23.058594 7.1875 23.0625 7.207031 23.058594 C 7.242188 23.046875 7.269531 23.058594 7.300781 23.070312 C 7.332031 23.085938 7.371094 23.105469 7.402344 23.097656 C 7.480469 23.089844 7.558594 23.085938 7.636719 23.097656 C 7.683594 23.101562 7.730469 23.109375 7.777344 23.109375 C 7.898438 23.105469 8.023438 23.097656 8.144531 23.101562 C 8.25 23.105469 8.355469 23.121094 8.464844 23.136719 C 8.5 23.140625 8.542969 23.136719 8.574219 23.152344 C 8.617188 23.171875 8.660156 23.171875 8.703125 23.171875 C 8.722656 23.171875 8.75 23.164062 8.765625 23.171875 C 8.863281 23.21875 8.972656 23.164062 9.066406 23.222656 C 9.070312 23.222656 9.078125 23.222656 9.082031 23.21875 C 9.125 23.195312 9.171875 23.210938 9.21875 23.21875 C 9.316406 23.234375 9.414062 23.226562 9.511719 23.21875 C 9.546875 23.214844 9.578125 23.222656 9.613281 23.226562 C 9.683594 23.238281 9.757812 23.25 9.828125 23.261719 C 9.835938 23.261719 9.839844 23.261719 9.84375 23.257812 C 9.890625 23.238281 9.933594 23.234375 9.984375 23.242188 C 10.0625 23.257812 10.144531 23.246094 10.222656 23.246094 C 10.269531 23.246094 10.316406 23.234375 10.359375 23.261719 C 10.378906 23.273438 10.421875 23.285156 10.433594 23.273438 C 10.484375 23.21875 10.539062 23.242188 10.59375 23.257812 C 10.628906 23.265625 10.660156 23.257812 10.695312 23.242188 C 10.734375 23.21875 10.777344 23.210938 10.820312 23.195312 C 10.871094 23.242188 10.929688 23.21875 10.984375 23.21875 C 11.050781 23.214844 11.113281 23.265625 11.179688 23.226562 C 11.320312 23.222656 11.464844 23.238281 11.605469 23.210938 C 11.664062 23.199219 11.71875 23.222656 11.773438 23.222656 C 11.863281 23.226562 11.953125 23.246094 12.042969 23.214844 C 12.058594 23.210938 12.074219 23.21875 12.09375 23.222656 C 12.117188 23.226562 12.140625 23.238281 12.164062 23.238281 C 12.246094 23.234375 12.324219 23.203125 12.40625 23.246094 C 12.460938 23.207031 12.519531 23.25 12.578125 23.242188 C 12.609375 23.242188 12.644531 23.230469 12.667969 23.246094 C 12.714844 23.28125 12.765625 23.265625 12.820312 23.265625 C 12.871094 23.265625 12.921875 23.269531 12.976562 23.273438 C 13.054688 23.277344 13.136719 23.296875 13.21875 23.269531 C 13.238281 23.261719 13.261719 23.265625 13.28125 23.265625 C 13.324219 23.265625 13.367188 23.261719 13.40625 23.269531 C 13.519531 23.285156 13.625 23.226562 13.742188 23.261719 C 13.808594 23.28125 13.894531 23.261719 13.96875 23.246094 C 14.15625 23.203125 14.347656 23.199219 14.542969 23.210938 C 14.714844 23.222656 14.894531 23.246094 15.066406 23.1875 C 15.078125 23.183594 15.097656 23.179688 15.105469 23.183594 C 15.160156 23.21875 15.214844 23.183594 15.265625 23.195312 C 15.28125 23.195312 15.296875 23.199219 15.308594 23.210938 C 15.335938 23.238281 15.359375 23.238281 15.382812 23.203125 C 15.386719 23.195312 15.398438 23.1875 15.410156 23.1875 C 15.464844 23.191406 15.519531 23.15625 15.578125 23.1875 C 15.59375 23.195312 15.628906 23.191406 15.640625 23.175781 C 15.675781 23.132812 15.710938 23.152344 15.75 23.164062 C 15.78125 23.171875 15.808594 23.175781 15.839844 23.175781 C 15.878906 23.179688 15.917969 23.179688 15.953125 23.183594 C 15.96875 23.183594 15.980469 23.179688 15.992188 23.175781 C 16.066406 23.148438 16.066406 23.148438 16.113281 23.214844 C 16.144531 23.15625 16.144531 23.152344 16.203125 23.171875 C 16.25 23.183594 16.292969 23.183594 16.339844 23.167969 C 16.363281 23.15625 16.386719 23.15625 16.417969 23.152344 C 16.417969 23.179688 16.417969 23.195312 16.417969 23.207031 C 16.53125 23.199219 16.644531 23.179688 16.761719 23.195312 C 16.859375 23.207031 16.960938 23.222656 17.058594 23.246094 C 17.195312 23.28125 17.332031 23.320312 17.472656 23.316406 C 17.488281 23.316406 17.5 23.320312 17.515625 23.324219 C 17.59375 23.359375 17.675781 23.398438 17.757812 23.429688 C 17.785156 23.4375 17.816406 23.441406 17.84375 23.441406 C 17.890625 23.4375 17.9375 23.421875 17.980469 23.414062 C 18.042969 23.40625 18.105469 23.398438 18.171875 23.390625 C 18.175781 23.371094 18.183594 23.359375 18.1875 23.339844 C 18.195312 23.300781 18.21875 23.285156 18.257812 23.28125 C 18.316406 23.277344 18.371094 23.269531 18.429688 23.265625 C 18.527344 23.253906 18.621094 23.242188 18.71875 23.234375 C 18.933594 23.214844 19.148438 23.195312 19.367188 23.179688 C 19.46875 23.171875 19.570312 23.160156 19.671875 23.140625 C 19.714844 23.132812 19.757812 23.128906 19.796875 23.101562 C 19.839844 23.070312 19.890625 23.0625 19.945312 23.066406 C 20.003906 23.070312 20.058594 23.074219 20.109375 23.027344 C 20.117188 23.019531 20.132812 23.011719 20.148438 23.015625 C 20.214844 23.03125 20.265625 22.972656 20.328125 22.957031 C 20.382812 22.945312 20.433594 22.894531 20.472656 22.847656 C 20.503906 22.808594 20.539062 22.792969 20.582031 22.777344 C 20.632812 22.757812 20.691406 22.742188 20.726562 22.707031 C 20.757812 22.675781 20.78125 22.664062 20.820312 22.671875 C 20.824219 22.671875 20.828125 22.667969 20.832031 22.664062 C 20.828125 22.652344 20.828125 22.640625 20.824219 22.632812 C 20.855469 22.617188 20.894531 22.613281 20.910156 22.59375 C 20.949219 22.535156 21.007812 22.523438 21.066406 22.507812 C 21.101562 22.5 21.136719 22.488281 21.136719 22.441406 C 21.136719 22.429688 21.152344 22.414062 21.160156 22.410156 C 21.203125 22.402344 21.222656 22.371094 21.238281 22.34375 C 21.261719 22.347656 21.277344 22.351562 21.289062 22.355469 C 21.292969 22.335938 21.285156 22.316406 21.292969 22.304688 C 21.367188 22.226562 21.425781 22.132812 21.519531 22.078125 C 21.554688 22.054688 21.609375 22.046875 21.613281 21.996094 C 21.621094 21.929688 21.695312 21.957031 21.71875 21.917969 C 21.722656 21.90625 21.730469 21.898438 21.734375 21.886719 C 21.742188 21.875 21.75 21.859375 21.757812 21.855469 C 21.8125 21.828125 21.832031 21.773438 21.859375 21.730469 C 21.886719 21.691406 21.921875 21.65625 21.949219 21.625 C 22 21.570312 22.0625 21.523438 22.09375 21.464844 C 22.144531 21.351562 22.195312 21.246094 22.273438 21.152344 C 22.316406 21.105469 22.347656 21.054688 22.363281 20.992188 C 22.371094 20.960938 22.390625 20.929688 22.414062 20.910156 C 22.492188 20.832031 22.476562 20.714844 22.542969 20.636719 C 22.546875 20.628906 22.542969 20.617188 22.542969 20.609375 C 22.546875 20.554688 22.550781 20.5 22.554688 20.445312 C 22.5625 20.359375 22.582031 20.273438 22.574219 20.191406 C 22.5625 20.105469 22.570312 20.03125 22.597656 19.953125 C 22.585938 19.941406 22.570312 19.933594 22.5625 19.925781 C 22.5625 19.882812 22.609375 19.859375 22.589844 19.8125 C 22.574219 19.785156 22.554688 19.75 22.558594 19.722656 C 22.566406 19.695312 22.597656 19.671875 22.621094 19.644531 C 22.628906 19.632812 22.640625 19.625 22.652344 19.617188 C 22.660156 19.632812 22.671875 19.648438 22.671875 19.664062 C 22.671875 19.71875 22.664062 19.773438 22.667969 19.828125 C 22.671875 19.917969 22.6875 19.929688 22.78125 19.917969 C 22.753906 19.902344 22.699219 19.902344 22.722656 19.839844 C 22.746094 19.84375 22.769531 19.84375 22.792969 19.84375 C 22.792969 19.839844 22.792969 19.835938 22.796875 19.832031 C 22.769531 19.816406 22.746094 19.800781 22.722656 19.789062 C 22.707031 19.71875 22.722656 19.585938 22.761719 19.527344 C 22.792969 19.472656 22.789062 19.429688 22.75 19.386719 C 22.78125 19.3125 22.78125 19.308594 22.761719 19.238281 C 22.757812 19.222656 22.757812 19.210938 22.753906 19.195312 C 22.738281 19.054688 22.761719 18.910156 22.71875 18.773438 C 22.714844 18.757812 22.71875 18.742188 22.71875 18.722656 C 22.722656 18.710938 22.730469 18.691406 22.726562 18.683594 C 22.675781 18.601562 22.707031 18.515625 22.726562 18.441406 C 22.765625 18.292969 22.769531 18.144531 22.78125 17.992188 C 22.785156 17.953125 22.792969 17.910156 22.792969 17.871094 C 22.792969 17.773438 22.792969 17.679688 22.785156 17.585938 C 22.785156 17.535156 22.792969 17.496094 22.851562 17.46875 C 22.777344 17.433594 22.816406 17.375 22.808594 17.328125 C 22.800781 17.285156 22.8125 17.234375 22.8125 17.1875 C 22.816406 17.136719 22.804688 17.074219 22.832031 17.042969 C 22.867188 17 22.8125 16.9375 22.871094 16.917969 C 22.863281 16.882812 22.847656 16.851562 22.851562 16.824219 C 22.863281 16.695312 22.875 16.570312 22.890625 16.441406 C 22.90625 16.316406 22.941406 16.195312 22.933594 16.070312 C 22.929688 16.042969 22.9375 16.019531 22.941406 15.996094 C 22.949219 15.914062 22.960938 15.832031 22.960938 15.753906 C 22.960938 15.628906 22.957031 15.503906 22.992188 15.378906 C 22.996094 15.363281 23.003906 15.347656 23 15.332031 C 22.957031 15.179688 23.035156 15.03125 23.015625 14.878906 C 23.007812 14.839844 23.007812 14.808594 22.976562 14.789062 C 22.941406 14.769531 22.921875 14.742188 22.921875 14.703125 C 22.9375 14.695312 22.949219 14.6875 22.964844 14.675781 C 22.929688 14.65625 22.90625 14.640625 22.882812 14.628906 C 22.941406 14.605469 22.941406 14.605469 22.9375 14.554688 C 22.921875 14.554688 22.910156 14.558594 22.898438 14.558594 Z M 22.269531 21.539062 C 22.242188 21.566406 22.214844 21.589844 22.199219 21.621094 C 22.121094 21.746094 22.015625 21.847656 21.914062 21.953125 C 21.824219 22.046875 21.726562 22.132812 21.632812 22.222656 C 21.5625 22.292969 21.496094 22.367188 21.417969 22.433594 C 21.308594 22.527344 21.191406 22.617188 21.070312 22.695312 C 21 22.746094 20.941406 22.816406 20.847656 22.839844 C 20.828125 22.84375 20.8125 22.875 20.792969 22.894531 C 20.796875 22.898438 20.800781 22.90625 20.804688 22.910156 C 20.972656 22.867188 21.144531 22.828125 21.292969 22.730469 C 21.335938 22.703125 21.378906 22.683594 21.414062 22.65625 C 21.480469 22.59375 21.570312 22.554688 21.628906 22.476562 C 21.636719 22.464844 21.65625 22.460938 21.671875 22.449219 C 21.683594 22.4375 21.699219 22.425781 21.710938 22.410156 C 21.761719 22.355469 21.808594 22.296875 21.859375 22.242188 C 22.007812 22.085938 22.167969 21.941406 22.246094 21.730469 C 22.308594 21.671875 22.289062 21.605469 22.265625 21.539062 C 22.316406 21.535156 22.316406 21.535156 22.308594 21.488281 C 22.277344 21.488281 22.269531 21.511719 22.269531 21.539062 Z M 1.722656 21.453125 C 1.691406 21.390625 1.671875 21.320312 1.667969 21.246094 C 1.664062 21.207031 1.660156 21.167969 1.65625 21.128906 C 1.648438 21.089844 1.640625 21.046875 1.578125 21.023438 C 1.589844 21.09375 1.609375 21.152344 1.601562 21.203125 C 1.589844 21.296875 1.664062 21.351562 1.675781 21.429688 C 1.679688 21.4375 1.707031 21.445312 1.722656 21.453125 C 1.726562 21.492188 1.722656 21.535156 1.734375 21.570312 C 1.769531 21.699219 1.832031 21.816406 1.890625 21.9375 C 1.914062 21.976562 1.933594 22.019531 1.964844 22.046875 C 2.035156 22.105469 2.089844 22.1875 2.167969 22.242188 C 2.210938 22.269531 2.242188 22.285156 2.292969 22.289062 C 2.335938 22.292969 2.375 22.332031 2.425781 22.320312 C 2.441406 22.320312 2.457031 22.3125 2.488281 22.300781 C 2.457031 22.273438 2.4375 22.25 2.414062 22.238281 C 2.335938 22.207031 2.28125 22.152344 2.230469 22.09375 C 2.1875 22.046875 2.152344 21.988281 2.101562 21.953125 C 2 21.875 1.929688 21.773438 1.859375 21.671875 C 1.835938 21.636719 1.8125 21.601562 1.792969 21.566406 C 1.769531 21.527344 1.746094 21.492188 1.722656 21.453125 Z M 23.328125 16.171875 C 23.324219 16.1875 23.316406 16.203125 23.316406 16.21875 C 23.3125 16.296875 23.316406 16.378906 23.316406 16.457031 C 23.316406 16.460938 23.324219 16.464844 23.332031 16.476562 C 23.347656 16.46875 23.367188 16.460938 23.386719 16.457031 C 23.375 16.402344 23.363281 16.355469 23.351562 16.308594 C 23.339844 16.269531 23.375 16.257812 23.390625 16.25 C 23.367188 16.222656 23.347656 16.195312 23.328125 16.171875 C 23.335938 16.15625 23.34375 16.140625 23.347656 16.125 C 23.34375 16.121094 23.339844 16.121094 23.332031 16.117188 C 23.332031 16.136719 23.328125 16.152344 23.328125 16.171875 Z M 23.460938 13.703125 C 23.410156 13.742188 23.394531 13.796875 23.421875 13.878906 C 23.441406 13.816406 23.480469 13.769531 23.460938 13.703125 C 23.46875 13.671875 23.476562 13.640625 23.480469 13.609375 C 23.488281 13.558594 23.460938 13.554688 23.40625 13.5625 C 23.425781 13.613281 23.445312 13.660156 23.460938 13.703125 Z M 23.394531 14.527344 C 23.371094 14.601562 23.371094 14.601562 23.429688 14.640625 C 23.460938 14.585938 23.417969 14.558594 23.394531 14.527344 C 23.445312 14.464844 23.445312 14.453125 23.382812 14.429688 C 23.386719 14.464844 23.390625 14.496094 23.394531 14.527344 Z M 21.605469 1.511719 C 21.617188 1.519531 21.625 1.527344 21.636719 1.535156 C 21.640625 1.527344 21.640625 1.523438 21.644531 1.515625 C 21.632812 1.515625 21.617188 1.511719 21.605469 1.511719 C 21.597656 1.492188 21.589844 1.476562 21.585938 1.460938 C 21.566406 1.472656 21.546875 1.480469 21.519531 1.5 C 21.558594 1.503906 21.582031 1.507812 21.605469 1.511719 Z M 23.394531 18.570312 C 23.363281 18.609375 23.324219 18.640625 23.320312 18.703125 C 23.347656 18.699219 23.371094 18.691406 23.394531 18.6875 C 23.390625 18.695312 23.386719 18.707031 23.382812 18.71875 C 23.347656 18.777344 23.347656 18.777344 23.390625 18.828125 C 23.433594 18.875 23.429688 18.90625 23.390625 18.957031 C 23.34375 19.015625 23.300781 19.074219 23.355469 19.15625 C 23.367188 19.171875 23.351562 19.210938 23.347656 19.238281 L 23.34375 19.242188 C 23.335938 19.257812 23.324219 19.273438 23.3125 19.285156 C 23.328125 19.292969 23.347656 19.300781 23.363281 19.308594 C 23.363281 19.34375 23.367188 19.382812 23.371094 19.421875 C 23.328125 19.429688 23.289062 19.441406 23.253906 19.441406 C 23.21875 19.441406 23.1875 19.429688 23.148438 19.4375 C 23.171875 19.457031 23.199219 19.480469 23.230469 19.503906 C 23.25 19.5 23.277344 19.480469 23.304688 19.480469 C 23.347656 19.476562 23.363281 19.507812 23.34375 19.546875 C 23.335938 19.566406 23.316406 19.582031 23.308594 19.601562 C 23.300781 19.617188 23.285156 19.644531 23.292969 19.65625 C 23.316406 19.691406 23.316406 19.722656 23.292969 19.753906 C 23.289062 19.761719 23.292969 19.773438 23.296875 19.785156 C 23.320312 19.828125 23.316406 19.875 23.277344 19.921875 C 23.257812 19.917969 23.234375 19.910156 23.210938 19.90625 C 23.195312 19.847656 23.304688 19.789062 23.195312 19.742188 C 23.179688 19.773438 23.160156 19.800781 23.144531 19.832031 C 23.179688 19.878906 23.179688 19.964844 23.285156 19.945312 C 23.246094 19.988281 23.21875 20.015625 23.1875 20.046875 C 23.214844 20.121094 23.207031 20.167969 23.167969 20.199219 C 23.171875 20.246094 23.171875 20.28125 23.175781 20.320312 C 23.179688 20.351562 23.191406 20.382812 23.191406 20.410156 C 23.1875 20.4375 23.171875 20.464844 23.160156 20.492188 C 23.148438 20.519531 23.136719 20.550781 23.148438 20.582031 C 23.152344 20.597656 23.152344 20.621094 23.140625 20.628906 C 23.085938 20.691406 23.082031 20.769531 23.058594 20.84375 C 23.019531 20.949219 22.976562 21.050781 22.933594 21.152344 C 22.910156 21.210938 22.882812 21.261719 22.859375 21.320312 C 22.820312 21.402344 22.777344 21.480469 22.75 21.566406 C 22.71875 21.652344 22.679688 21.730469 22.671875 21.824219 C 22.664062 21.914062 22.625 22.003906 22.59375 22.089844 C 22.582031 22.117188 22.554688 22.140625 22.539062 22.164062 C 22.503906 22.21875 22.46875 22.273438 22.433594 22.332031 C 22.425781 22.339844 22.425781 22.351562 22.417969 22.359375 C 22.363281 22.425781 22.304688 22.488281 22.25 22.550781 C 22.207031 22.605469 22.152344 22.65625 22.089844 22.691406 C 22.078125 22.699219 22.0625 22.714844 22.0625 22.730469 C 22.0625 22.804688 22.027344 22.839844 21.957031 22.832031 C 21.949219 22.859375 21.941406 22.878906 21.9375 22.894531 C 21.890625 22.910156 21.851562 22.917969 21.8125 22.933594 C 21.796875 22.941406 21.785156 22.964844 21.769531 22.976562 C 21.710938 23.042969 21.640625 23.085938 21.546875 23.089844 C 21.523438 23.089844 21.5 23.09375 21.476562 23.105469 C 21.441406 23.121094 21.402344 23.140625 21.363281 23.160156 C 21.371094 23.171875 21.378906 23.1875 21.390625 23.203125 C 21.351562 23.242188 21.304688 23.234375 21.257812 23.246094 C 21.230469 23.253906 21.203125 23.25 21.179688 23.277344 C 21.171875 23.289062 21.144531 23.292969 21.128906 23.296875 C 21.074219 23.304688 21.027344 23.324219 20.976562 23.335938 C 20.910156 23.355469 20.832031 23.339844 20.757812 23.339844 C 20.738281 23.339844 20.71875 23.335938 20.695312 23.339844 C 20.652344 23.34375 20.605469 23.355469 20.558594 23.363281 C 20.546875 23.363281 20.53125 23.363281 20.519531 23.371094 C 20.484375 23.398438 20.445312 23.398438 20.40625 23.375 C 20.375 23.355469 20.339844 23.347656 20.308594 23.378906 C 20.304688 23.382812 20.300781 23.390625 20.296875 23.390625 C 20.214844 23.40625 20.132812 23.417969 20.050781 23.4375 C 20.023438 23.445312 20 23.464844 19.964844 23.480469 C 19.964844 23.464844 19.960938 23.453125 19.957031 23.4375 C 19.953125 23.4375 19.945312 23.4375 19.941406 23.4375 C 19.875 23.480469 19.804688 23.503906 19.722656 23.496094 C 19.695312 23.496094 19.664062 23.511719 19.625 23.527344 C 19.609375 23.523438 19.578125 23.515625 19.546875 23.515625 C 19.511719 23.515625 19.46875 23.535156 19.441406 23.523438 C 19.335938 23.480469 19.242188 23.523438 19.144531 23.546875 C 19.101562 23.558594 19.058594 23.558594 19.015625 23.566406 C 18.898438 23.585938 18.78125 23.613281 18.664062 23.601562 C 18.519531 23.589844 18.375 23.625 18.230469 23.621094 C 18.171875 23.617188 18.105469 23.597656 18.058594 23.652344 C 18.054688 23.660156 18.039062 23.660156 18.027344 23.65625 C 18 23.652344 17.957031 23.628906 17.945312 23.640625 C 17.910156 23.671875 17.894531 23.636719 17.875 23.628906 C 17.863281 23.625 17.847656 23.621094 17.84375 23.625 C 17.800781 23.675781 17.730469 23.636719 17.683594 23.675781 C 17.675781 23.6875 17.660156 23.691406 17.648438 23.691406 C 17.523438 23.683594 17.402344 23.699219 17.277344 23.683594 C 17.152344 23.667969 17.019531 23.65625 16.890625 23.679688 C 16.847656 23.6875 16.796875 23.691406 16.753906 23.683594 C 16.617188 23.660156 16.484375 23.671875 16.371094 23.71875 C 16.328125 23.699219 16.300781 23.679688 16.273438 23.671875 C 16.230469 23.660156 16.183594 23.65625 16.140625 23.648438 C 16.132812 23.648438 16.117188 23.644531 16.109375 23.648438 C 16.027344 23.691406 15.945312 23.652344 15.863281 23.640625 C 15.847656 23.640625 15.832031 23.644531 15.816406 23.644531 C 15.679688 23.664062 15.542969 23.683594 15.40625 23.632812 C 15.390625 23.625 15.367188 23.628906 15.351562 23.628906 C 15.339844 23.628906 15.328125 23.640625 15.316406 23.636719 C 15.214844 23.605469 15.117188 23.667969 15.007812 23.648438 C 14.910156 23.628906 14.808594 23.644531 14.707031 23.628906 C 14.628906 23.617188 14.550781 23.636719 14.476562 23.621094 C 14.402344 23.605469 14.328125 23.617188 14.253906 23.601562 C 14.179688 23.585938 14.105469 23.578125 14.027344 23.59375 C 13.972656 23.605469 13.914062 23.585938 13.847656 23.578125 C 13.804688 23.539062 13.804688 23.539062 13.738281 23.566406 C 13.722656 23.574219 13.707031 23.574219 13.691406 23.578125 C 13.652344 23.589844 13.613281 23.597656 13.570312 23.609375 C 13.550781 23.605469 13.523438 23.601562 13.496094 23.601562 C 13.4375 23.597656 13.375 23.613281 13.320312 23.578125 C 13.3125 23.574219 13.292969 23.574219 13.28125 23.582031 C 13.230469 23.605469 13.175781 23.617188 13.121094 23.621094 C 13.105469 23.625 13.089844 23.613281 13.066406 23.601562 C 13.082031 23.582031 13.09375 23.566406 13.113281 23.542969 C 13.089844 23.542969 13.074219 23.542969 13.0625 23.546875 C 13.03125 23.554688 12.996094 23.570312 12.964844 23.585938 C 12.960938 23.585938 12.953125 23.585938 12.949219 23.589844 C 12.898438 23.625 12.898438 23.625 12.878906 23.570312 C 12.808594 23.625 12.730469 23.636719 12.644531 23.613281 C 12.609375 23.601562 12.570312 23.609375 12.53125 23.609375 C 12.507812 23.609375 12.484375 23.613281 12.460938 23.613281 C 12.386719 23.617188 12.308594 23.617188 12.234375 23.613281 C 12.214844 23.613281 12.199219 23.589844 12.175781 23.574219 C 12.117188 23.589844 12.042969 23.585938 11.984375 23.640625 C 11.972656 23.652344 11.933594 23.652344 11.925781 23.640625 C 11.871094 23.582031 11.8125 23.625 11.757812 23.621094 C 11.746094 23.621094 11.722656 23.636719 11.71875 23.632812 C 11.652344 23.574219 11.585938 23.640625 11.523438 23.632812 C 11.457031 23.625 11.390625 23.628906 11.324219 23.625 C 11.300781 23.625 11.277344 23.625 11.257812 23.613281 C 11.1875 23.585938 11.117188 23.585938 11.042969 23.597656 C 10.972656 23.605469 10.898438 23.605469 10.828125 23.605469 C 10.792969 23.609375 10.757812 23.605469 10.71875 23.605469 C 10.710938 23.59375 10.707031 23.578125 10.699219 23.554688 C 10.578125 23.632812 10.441406 23.59375 10.304688 23.609375 C 10.316406 23.636719 10.332031 23.660156 10.347656 23.691406 C 10.316406 23.71875 10.28125 23.695312 10.246094 23.671875 C 10.175781 23.734375 10.097656 23.730469 10.015625 23.703125 C 10.019531 23.683594 10.019531 23.664062 10.023438 23.636719 C 9.945312 23.640625 9.875 23.625 9.800781 23.652344 C 9.765625 23.664062 9.726562 23.65625 9.6875 23.652344 C 9.652344 23.652344 9.617188 23.632812 9.582031 23.636719 C 9.460938 23.660156 9.339844 23.640625 9.21875 23.652344 C 9.101562 23.667969 8.984375 23.65625 8.867188 23.621094 C 8.851562 23.617188 8.828125 23.613281 8.8125 23.621094 C 8.742188 23.667969 8.664062 23.648438 8.585938 23.648438 C 8.527344 23.648438 8.46875 23.652344 8.40625 23.648438 C 8.363281 23.648438 8.320312 23.640625 8.277344 23.640625 C 8.242188 23.640625 8.210938 23.652344 8.175781 23.648438 C 8.101562 23.648438 8.023438 23.625 7.949219 23.636719 C 7.84375 23.65625 7.742188 23.628906 7.636719 23.628906 C 7.523438 23.625 7.410156 23.621094 7.300781 23.625 C 7.207031 23.625 7.117188 23.636719 7.027344 23.644531 C 6.976562 23.648438 6.925781 23.65625 6.878906 23.640625 C 6.828125 23.625 6.78125 23.632812 6.746094 23.648438 C 6.660156 23.683594 6.589844 23.664062 6.527344 23.617188 C 6.46875 23.574219 6.417969 23.578125 6.359375 23.609375 C 6.304688 23.640625 6.246094 23.644531 6.183594 23.628906 C 6.136719 23.617188 6.085938 23.621094 6.039062 23.613281 C 5.972656 23.601562 5.90625 23.582031 5.839844 23.5625 C 5.726562 23.527344 5.605469 23.542969 5.488281 23.542969 C 5.402344 23.542969 5.316406 23.546875 5.230469 23.527344 C 5.121094 23.503906 5.003906 23.519531 4.890625 23.5 C 4.78125 23.480469 4.667969 23.480469 4.554688 23.464844 C 4.496094 23.460938 4.433594 23.445312 4.375 23.4375 C 4.175781 23.410156 3.976562 23.386719 3.777344 23.355469 C 3.558594 23.320312 3.34375 23.28125 3.128906 23.242188 C 3.0625 23.230469 3 23.203125 2.9375 23.183594 C 2.859375 23.160156 2.777344 23.140625 2.695312 23.109375 C 2.585938 23.074219 2.476562 23.035156 2.371094 22.988281 C 2.257812 22.941406 2.148438 22.890625 2.039062 22.839844 C 1.996094 22.820312 1.957031 22.792969 1.914062 22.773438 C 1.851562 22.738281 1.78125 22.707031 1.714844 22.675781 C 1.703125 22.667969 1.691406 22.664062 1.679688 22.65625 C 1.585938 22.558594 1.492188 22.460938 1.402344 22.367188 C 1.417969 22.324219 1.441406 22.332031 1.464844 22.335938 C 1.480469 22.339844 1.503906 22.339844 1.527344 22.34375 C 1.523438 22.324219 1.527344 22.3125 1.523438 22.308594 C 1.441406 22.21875 1.398438 22.113281 1.347656 22.003906 C 1.3125 21.925781 1.265625 21.847656 1.234375 21.765625 C 1.191406 21.660156 1.160156 21.554688 1.121094 21.449219 C 1.109375 21.414062 1.101562 21.378906 1.085938 21.347656 C 1.058594 21.277344 1.027344 21.207031 1.027344 21.132812 C 1.023438 21.113281 1.023438 21.097656 1.015625 21.082031 C 0.957031 20.964844 0.960938 20.832031 0.9375 20.707031 C 0.902344 20.527344 0.882812 20.34375 0.863281 20.164062 C 0.851562 20.082031 0.851562 20 0.84375 19.921875 C 0.832031 19.824219 0.8125 19.726562 0.800781 19.625 C 0.796875 19.570312 0.804688 19.511719 0.800781 19.453125 C 0.800781 19.40625 0.804688 19.355469 0.789062 19.3125 C 0.769531 19.25 0.773438 19.191406 0.792969 19.132812 C 0.804688 19.101562 0.804688 19.078125 0.78125 19.058594 C 0.746094 19.03125 0.742188 18.992188 0.746094 18.953125 C 0.753906 18.832031 0.742188 18.714844 0.710938 18.59375 C 0.695312 18.53125 0.699219 18.449219 0.742188 18.382812 C 0.726562 18.371094 0.710938 18.359375 0.695312 18.351562 C 0.6875 18.285156 0.710938 18.214844 0.675781 18.15625 C 0.671875 18.152344 0.671875 18.144531 0.671875 18.136719 C 0.664062 18.046875 0.652344 17.957031 0.648438 17.867188 C 0.644531 17.855469 0.664062 17.839844 0.675781 17.820312 C 0.671875 17.816406 0.652344 17.8125 0.652344 17.808594 C 0.652344 17.726562 0.59375 17.667969 0.589844 17.589844 C 0.589844 17.507812 0.585938 17.425781 0.597656 17.347656 C 0.605469 17.308594 0.597656 17.273438 0.585938 17.234375 C 0.574219 17.171875 0.566406 17.109375 0.566406 17.042969 C 0.566406 16.976562 0.578125 16.90625 0.589844 16.835938 C 0.597656 16.742188 0.613281 16.652344 0.625 16.558594 C 0.625 16.539062 0.625 16.519531 0.625 16.5 C 0.617188 16.433594 0.617188 16.375 0.648438 16.3125 C 0.664062 16.277344 0.664062 16.222656 0.652344 16.183594 C 0.621094 16.113281 0.636719 16.046875 0.640625 15.976562 C 0.640625 15.964844 0.644531 15.949219 0.644531 15.9375 C 0.644531 15.859375 0.640625 15.785156 0.636719 15.707031 C 0.636719 15.683594 0.632812 15.65625 0.644531 15.640625 C 0.6875 15.589844 0.660156 15.539062 0.652344 15.484375 C 0.644531 15.414062 0.617188 15.339844 0.644531 15.265625 C 0.664062 15.214844 0.65625 15.160156 0.664062 15.105469 C 0.667969 15.089844 0.6875 15.078125 0.707031 15.058594 C 0.6875 15.046875 0.667969 15.03125 0.644531 15.015625 C 0.65625 14.984375 0.667969 14.949219 0.679688 14.910156 C 0.597656 14.863281 0.625 14.78125 0.636719 14.707031 C 0.652344 14.640625 0.644531 14.582031 0.621094 14.519531 C 0.609375 14.492188 0.601562 14.460938 0.605469 14.433594 C 0.609375 14.367188 0.625 14.300781 0.625 14.234375 C 0.621094 14.160156 0.621094 14.082031 0.617188 14.007812 C 0.609375 13.9375 0.621094 13.863281 0.609375 13.792969 C 0.609375 13.777344 0.617188 13.757812 0.609375 13.746094 C 0.570312 13.671875 0.585938 13.59375 0.582031 13.515625 C 0.582031 13.46875 0.582031 13.421875 0.578125 13.375 C 0.554688 13.230469 0.558594 13.089844 0.574219 12.949219 C 0.585938 12.855469 0.574219 12.761719 0.550781 12.667969 C 0.523438 12.550781 0.492188 12.433594 0.496094 12.3125 C 0.496094 12.230469 0.484375 12.144531 0.492188 12.0625 C 0.503906 11.953125 0.496094 11.847656 0.488281 11.738281 C 0.480469 11.605469 0.507812 11.472656 0.515625 11.339844 C 0.523438 11.273438 0.53125 11.207031 0.535156 11.140625 C 0.535156 11.117188 0.53125 11.089844 0.519531 11.070312 C 0.492188 11.019531 0.496094 10.972656 0.503906 10.921875 C 0.507812 10.890625 0.515625 10.859375 0.511719 10.832031 C 0.488281 10.707031 0.511719 10.585938 0.507812 10.464844 C 0.503906 10.433594 0.496094 10.40625 0.488281 10.375 C 0.46875 10.304688 0.445312 10.230469 0.464844 10.15625 C 0.476562 10.117188 0.472656 10.078125 0.472656 10.039062 C 0.464844 9.9375 0.449219 9.839844 0.445312 9.738281 C 0.445312 9.667969 0.449219 9.589844 0.464844 9.519531 C 0.488281 9.421875 0.46875 9.328125 0.464844 9.234375 C 0.460938 9.167969 0.449219 9.097656 0.445312 9.03125 C 0.441406 8.972656 0.441406 8.917969 0.433594 8.863281 C 0.421875 8.777344 0.421875 8.6875 0.433594 8.601562 C 0.441406 8.550781 0.433594 8.5 0.433594 8.449219 C 0.4375 8.324219 0.4375 8.195312 0.449219 8.066406 C 0.460938 7.910156 0.484375 7.757812 0.5 7.601562 C 0.507812 7.539062 0.507812 7.476562 0.511719 7.410156 C 0.511719 7.324219 0.515625 7.238281 0.515625 7.152344 C 0.519531 7.128906 0.519531 7.101562 0.523438 7.078125 C 0.535156 6.957031 0.546875 6.835938 0.558594 6.714844 C 0.5625 6.679688 0.574219 6.644531 0.578125 6.605469 C 0.578125 6.53125 0.578125 6.457031 0.574219 6.382812 C 0.570312 6.34375 0.570312 6.304688 0.597656 6.273438 C 0.605469 6.257812 0.617188 6.242188 0.617188 6.226562 C 0.617188 6.152344 0.617188 6.078125 0.617188 6.003906 C 0.617188 5.960938 0.613281 5.914062 0.625 5.871094 C 0.632812 5.828125 0.632812 5.789062 0.625 5.75 C 0.605469 5.683594 0.597656 5.617188 0.621094 5.550781 C 0.625 5.535156 0.625 5.515625 0.621094 5.503906 C 0.585938 5.394531 0.59375 5.289062 0.636719 5.183594 C 0.65625 5.128906 0.65625 5.078125 0.644531 5.019531 C 0.632812 4.941406 0.617188 4.859375 0.640625 4.78125 C 0.65625 4.726562 0.671875 4.675781 0.695312 4.609375 C 0.664062 4.554688 0.636719 4.480469 0.6875 4.414062 C 0.679688 4.378906 0.664062 4.347656 0.667969 4.316406 C 0.671875 4.242188 0.679688 4.167969 0.6875 4.09375 C 0.691406 4.046875 0.691406 4 0.695312 3.953125 C 0.699219 3.910156 0.707031 3.867188 0.710938 3.824219 C 0.714844 3.804688 0.722656 3.789062 0.722656 3.773438 C 0.726562 3.664062 0.734375 3.558594 0.769531 3.453125 C 0.796875 3.378906 0.800781 3.292969 0.816406 3.210938 C 0.820312 3.175781 0.832031 3.140625 0.84375 3.105469 C 0.863281 3.054688 0.886719 3.003906 0.882812 2.945312 C 0.882812 2.921875 0.898438 2.890625 0.914062 2.871094 C 0.949219 2.832031 0.953125 2.792969 0.941406 2.746094 C 0.929688 2.703125 0.933594 2.664062 0.96875 2.632812 C 0.980469 2.617188 0.992188 2.597656 0.996094 2.578125 C 1.046875 2.394531 1.144531 2.230469 1.230469 2.058594 C 1.230469 1.964844 1.3125 1.933594 1.359375 1.878906 C 1.371094 1.867188 1.386719 1.859375 1.386719 1.847656 C 1.40625 1.785156 1.464844 1.753906 1.507812 1.710938 C 1.574219 1.648438 1.648438 1.589844 1.703125 1.515625 C 1.738281 1.472656 1.800781 1.449219 1.851562 1.425781 C 1.980469 1.367188 2.113281 1.308594 2.246094 1.253906 C 2.359375 1.210938 2.476562 1.167969 2.59375 1.132812 C 2.707031 1.097656 2.824219 1.074219 2.9375 1.042969 C 3.027344 1.015625 3.109375 0.980469 3.199219 0.957031 C 3.273438 0.9375 3.34375 0.925781 3.414062 0.882812 C 3.441406 0.863281 3.488281 0.863281 3.523438 0.855469 C 3.585938 0.847656 3.644531 0.835938 3.710938 0.824219 C 3.75 0.859375 3.75 0.851562 3.800781 0.820312 C 3.832031 0.800781 3.871094 0.804688 3.910156 0.800781 C 4.007812 0.789062 4.101562 0.78125 4.195312 0.777344 C 4.226562 0.773438 4.257812 0.785156 4.289062 0.78125 C 4.386719 0.765625 4.488281 0.75 4.585938 0.734375 C 4.617188 0.730469 4.648438 0.726562 4.675781 0.71875 C 4.695312 0.714844 4.714844 0.714844 4.730469 0.710938 C 4.769531 0.703125 4.804688 0.699219 4.84375 0.691406 C 4.867188 0.6875 4.890625 0.6875 4.914062 0.679688 C 4.949219 0.667969 4.972656 0.675781 4.980469 0.726562 C 5.042969 0.65625 5.117188 0.679688 5.1875 0.671875 C 5.242188 0.664062 5.296875 0.667969 5.351562 0.652344 C 5.46875 0.617188 5.589844 0.621094 5.710938 0.625 C 5.78125 0.625 5.851562 0.613281 5.925781 0.609375 C 6.027344 0.605469 6.128906 0.605469 6.230469 0.605469 C 6.324219 0.601562 6.421875 0.589844 6.519531 0.601562 C 6.574219 0.605469 6.636719 0.574219 6.695312 0.566406 C 6.828125 0.550781 6.960938 0.535156 7.097656 0.523438 C 7.109375 0.523438 7.125 0.519531 7.136719 0.527344 C 7.21875 0.574219 7.292969 0.535156 7.367188 0.503906 C 7.394531 0.496094 7.425781 0.476562 7.453125 0.484375 C 7.519531 0.503906 7.582031 0.492188 7.648438 0.484375 C 7.730469 0.480469 7.8125 0.476562 7.894531 0.46875 C 7.925781 0.464844 7.957031 0.46875 7.984375 0.457031 C 8.023438 0.441406 8.054688 0.449219 8.085938 0.46875 C 8.128906 0.496094 8.171875 0.503906 8.214844 0.464844 C 8.25 0.433594 8.289062 0.445312 8.328125 0.457031 C 8.386719 0.46875 8.441406 0.472656 8.496094 0.445312 C 8.511719 0.4375 8.535156 0.4375 8.554688 0.441406 C 8.644531 0.464844 8.726562 0.460938 8.800781 0.394531 C 8.828125 0.371094 8.859375 0.371094 8.894531 0.386719 C 8.945312 0.414062 9.003906 0.414062 9.0625 0.398438 C 9.089844 0.390625 9.121094 0.386719 9.152344 0.390625 C 9.203125 0.398438 9.257812 0.421875 9.3125 0.394531 C 9.320312 0.390625 9.328125 0.390625 9.335938 0.394531 C 9.417969 0.4375 9.507812 0.421875 9.589844 0.40625 C 9.683594 0.386719 9.777344 0.386719 9.871094 0.375 C 9.957031 0.363281 10.039062 0.34375 10.125 0.335938 C 10.175781 0.332031 10.226562 0.34375 10.277344 0.34375 C 10.34375 0.347656 10.410156 0.339844 10.472656 0.347656 C 10.535156 0.355469 10.59375 0.324219 10.660156 0.355469 C 10.703125 0.371094 10.753906 0.375 10.800781 0.394531 C 10.820312 0.40625 10.863281 0.402344 10.875 0.386719 C 10.898438 0.351562 10.925781 0.359375 10.957031 0.363281 C 10.984375 0.367188 11.007812 0.355469 11.035156 0.355469 C 11.109375 0.34375 11.191406 0.339844 11.265625 0.359375 C 11.308594 0.367188 11.332031 0.367188 11.367188 0.351562 C 11.417969 0.332031 11.476562 0.332031 11.523438 0.375 C 11.554688 0.40625 11.597656 0.40625 11.636719 0.402344 C 11.648438 0.398438 11.664062 0.394531 11.667969 0.390625 C 11.707031 0.308594 11.777344 0.328125 11.847656 0.332031 C 11.914062 0.339844 11.984375 0.355469 12.050781 0.339844 C 12.101562 0.328125 12.152344 0.320312 12.203125 0.3125 C 12.328125 0.292969 12.449219 0.300781 12.574219 0.332031 C 12.589844 0.335938 12.609375 0.339844 12.628906 0.335938 C 12.753906 0.324219 12.878906 0.3125 13.007812 0.300781 C 13.023438 0.300781 13.046875 0.296875 13.0625 0.308594 C 13.167969 0.363281 13.277344 0.332031 13.386719 0.335938 C 13.453125 0.339844 13.515625 0.34375 13.582031 0.347656 C 13.613281 0.351562 13.640625 0.351562 13.671875 0.34375 C 13.746094 0.332031 13.820312 0.316406 13.898438 0.34375 C 13.941406 0.363281 13.992188 0.359375 14.046875 0.347656 C 14.089844 0.335938 14.144531 0.351562 14.210938 0.359375 C 14.207031 0.363281 14.214844 0.351562 14.226562 0.335938 C 14.257812 0.363281 14.289062 0.367188 14.328125 0.355469 C 14.425781 0.320312 14.5 0.332031 14.574219 0.371094 C 14.660156 0.316406 14.75 0.304688 14.84375 0.347656 C 14.886719 0.367188 14.929688 0.382812 14.976562 0.386719 C 15.019531 0.390625 15.066406 0.375 15.113281 0.375 C 15.179688 0.371094 15.25 0.378906 15.316406 0.382812 C 15.347656 0.382812 15.375 0.386719 15.40625 0.390625 C 15.492188 0.398438 15.582031 0.382812 15.664062 0.417969 C 15.675781 0.425781 15.691406 0.425781 15.707031 0.421875 C 15.792969 0.417969 15.878906 0.414062 15.96875 0.410156 C 15.988281 0.40625 16.011719 0.414062 16.03125 0.417969 C 16.074219 0.429688 16.117188 0.445312 16.160156 0.457031 C 16.167969 0.460938 16.179688 0.453125 16.191406 0.449219 C 16.226562 0.433594 16.261719 0.421875 16.296875 0.457031 C 16.304688 0.464844 16.328125 0.460938 16.34375 0.460938 C 16.378906 0.460938 16.417969 0.460938 16.457031 0.457031 C 16.46875 0.453125 16.488281 0.453125 16.5 0.441406 C 16.566406 0.378906 16.644531 0.410156 16.707031 0.433594 C 16.757812 0.449219 16.796875 0.46875 16.851562 0.464844 C 16.882812 0.460938 16.914062 0.472656 16.945312 0.476562 C 16.957031 0.480469 16.972656 0.480469 16.980469 0.476562 C 17.078125 0.425781 17.179688 0.433594 17.28125 0.441406 C 17.402344 0.449219 17.523438 0.480469 17.648438 0.488281 C 17.75 0.5 17.851562 0.492188 17.953125 0.496094 C 18.023438 0.5 18.097656 0.503906 18.167969 0.519531 C 18.25 0.539062 18.335938 0.539062 18.421875 0.53125 C 18.515625 0.523438 18.609375 0.527344 18.703125 0.574219 C 18.746094 0.597656 18.808594 0.589844 18.863281 0.589844 C 18.902344 0.589844 18.9375 0.589844 18.96875 0.625 C 18.976562 0.636719 19.003906 0.636719 19.019531 0.632812 C 19.042969 0.632812 19.0625 0.625 19.085938 0.625 C 19.195312 0.632812 19.304688 0.640625 19.414062 0.648438 C 19.445312 0.648438 19.457031 0.671875 19.472656 0.699219 C 19.488281 0.726562 19.496094 0.769531 19.546875 0.753906 C 19.585938 0.75 19.625 0.769531 19.660156 0.738281 C 19.664062 0.734375 19.675781 0.730469 19.683594 0.734375 C 19.777344 0.765625 19.867188 0.738281 19.957031 0.71875 C 19.972656 0.714844 19.996094 0.71875 20.011719 0.726562 C 20.058594 0.75 20.109375 0.753906 20.164062 0.746094 C 20.203125 0.742188 20.242188 0.753906 20.285156 0.753906 C 20.308594 0.753906 20.332031 0.75 20.355469 0.75 C 20.398438 0.75 20.445312 0.742188 20.488281 0.746094 C 20.535156 0.75 20.582031 0.765625 20.632812 0.773438 C 20.796875 0.789062 20.957031 0.828125 21.113281 0.878906 C 21.117188 0.882812 21.121094 0.882812 21.121094 0.882812 C 21.195312 0.953125 21.296875 0.945312 21.382812 0.96875 C 21.464844 0.992188 21.550781 1.011719 21.625 1.054688 C 21.632812 1.058594 21.644531 1.066406 21.660156 1.078125 C 21.640625 1.09375 21.625 1.105469 21.605469 1.125 C 21.621094 1.140625 21.636719 1.167969 21.65625 1.171875 C 21.753906 1.210938 21.839844 1.265625 21.914062 1.34375 C 21.949219 1.378906 22.007812 1.394531 22.050781 1.421875 C 22.121094 1.476562 22.191406 1.535156 22.261719 1.59375 C 22.269531 1.601562 22.28125 1.609375 22.292969 1.617188 C 22.34375 1.636719 22.378906 1.667969 22.410156 1.71875 C 22.4375 1.761719 22.488281 1.792969 22.53125 1.828125 C 22.546875 1.839844 22.566406 1.851562 22.570312 1.871094 C 22.578125 1.910156 22.605469 1.929688 22.636719 1.953125 C 22.707031 2 22.75 2.070312 22.808594 2.125 C 22.824219 2.140625 22.839844 2.164062 22.839844 2.183594 C 22.863281 2.347656 22.9375 2.488281 23.015625 2.628906 C 23.027344 2.652344 23.042969 2.675781 23.046875 2.699219 C 23.078125 2.859375 23.175781 2.996094 23.214844 3.152344 C 23.226562 3.1875 23.238281 3.226562 23.246094 3.265625 C 23.269531 3.382812 23.289062 3.5 23.3125 3.617188 C 23.316406 3.65625 23.335938 3.691406 23.347656 3.730469 C 23.355469 3.761719 23.355469 3.800781 23.363281 3.832031 C 23.382812 3.890625 23.371094 3.949219 23.402344 4.003906 C 23.425781 4.042969 23.441406 4.082031 23.4375 4.128906 C 23.4375 4.171875 23.457031 4.210938 23.464844 4.253906 C 23.476562 4.296875 23.484375 4.34375 23.496094 4.390625 C 23.5 4.40625 23.507812 4.425781 23.519531 4.441406 C 23.546875 4.488281 23.558594 4.542969 23.554688 4.597656 C 23.550781 4.601562 23.546875 4.609375 23.550781 4.613281 C 23.617188 4.703125 23.585938 4.8125 23.601562 4.914062 C 23.613281 5.019531 23.632812 5.125 23.648438 5.230469 C 23.652344 5.277344 23.660156 5.328125 23.667969 5.378906 C 23.671875 5.421875 23.679688 5.46875 23.691406 5.515625 C 23.703125 5.59375 23.71875 5.667969 23.734375 5.742188 C 23.738281 5.765625 23.746094 5.785156 23.753906 5.808594 C 23.761719 5.84375 23.765625 5.882812 23.769531 5.921875 C 23.777344 5.96875 23.789062 6.019531 23.789062 6.066406 C 23.785156 6.226562 23.78125 6.386719 23.78125 6.542969 C 23.777344 6.5625 23.773438 6.582031 23.777344 6.601562 C 23.792969 6.667969 23.796875 6.730469 23.789062 6.800781 C 23.785156 6.890625 23.804688 6.984375 23.816406 7.078125 C 23.824219 7.144531 23.84375 7.207031 23.820312 7.277344 C 23.816406 7.292969 23.828125 7.320312 23.832031 7.339844 C 23.839844 7.375 23.847656 7.410156 23.855469 7.449219 C 23.835938 7.453125 23.820312 7.457031 23.796875 7.460938 C 23.820312 7.472656 23.839844 7.484375 23.847656 7.488281 C 23.847656 7.523438 23.847656 7.550781 23.847656 7.578125 C 23.847656 7.597656 23.851562 7.621094 23.847656 7.640625 C 23.835938 7.6875 23.800781 7.734375 23.835938 7.785156 C 23.839844 7.789062 23.835938 7.800781 23.832031 7.808594 C 23.78125 7.875 23.8125 7.949219 23.824219 8.015625 C 23.839844 8.097656 23.828125 8.171875 23.808594 8.246094 C 23.792969 8.296875 23.78125 8.347656 23.796875 8.398438 C 23.820312 8.484375 23.808594 8.566406 23.796875 8.648438 C 23.789062 8.707031 23.789062 8.75 23.835938 8.789062 C 23.820312 8.832031 23.785156 8.867188 23.824219 8.910156 C 23.828125 8.917969 23.820312 8.945312 23.8125 8.957031 C 23.773438 9.035156 23.765625 9.121094 23.773438 9.203125 C 23.773438 9.21875 23.777344 9.234375 23.773438 9.246094 C 23.726562 9.351562 23.765625 9.464844 23.753906 9.570312 C 23.746094 9.636719 23.75 9.707031 23.726562 9.765625 C 23.695312 9.84375 23.703125 9.914062 23.71875 9.992188 C 23.722656 10.003906 23.722656 10.019531 23.722656 10.03125 C 23.675781 10.175781 23.695312 10.324219 23.6875 10.46875 C 23.6875 10.5 23.679688 10.53125 23.671875 10.566406 C 23.671875 10.578125 23.664062 10.597656 23.671875 10.609375 C 23.683594 10.632812 23.679688 10.652344 23.660156 10.671875 C 23.65625 10.675781 23.652344 10.683594 23.652344 10.683594 C 23.695312 10.734375 23.644531 10.796875 23.671875 10.851562 C 23.695312 10.902344 23.707031 10.960938 23.695312 11.019531 C 23.691406 11.058594 23.707031 11.097656 23.710938 11.136719 C 23.714844 11.238281 23.710938 11.34375 23.726562 11.441406 C 23.746094 11.558594 23.75 11.675781 23.730469 11.792969 C 23.726562 11.828125 23.742188 11.871094 23.753906 11.917969 C 23.742188 11.929688 23.726562 11.945312 23.734375 11.980469 C 23.746094 12.046875 23.738281 12.117188 23.742188 12.1875 C 23.742188 12.246094 23.753906 12.308594 23.757812 12.367188 C 23.761719 12.402344 23.761719 12.441406 23.753906 12.472656 C 23.746094 12.511719 23.738281 12.546875 23.757812 12.585938 C 23.773438 12.617188 23.773438 12.652344 23.777344 12.683594 C 23.777344 12.738281 23.777344 12.796875 23.777344 12.851562 C 23.777344 12.867188 23.78125 12.882812 23.773438 12.890625 C 23.738281 12.949219 23.746094 13.007812 23.753906 13.074219 C 23.765625 13.199219 23.769531 13.328125 23.773438 13.453125 C 23.773438 13.476562 23.769531 13.5 23.761719 13.519531 C 23.71875 13.644531 23.730469 13.773438 23.75 13.898438 C 23.753906 13.925781 23.742188 13.957031 23.734375 13.984375 C 23.730469 14.003906 23.722656 14.023438 23.722656 14.039062 C 23.742188 14.164062 23.722656 14.285156 23.714844 14.40625 C 23.714844 14.433594 23.71875 14.460938 23.71875 14.488281 C 23.71875 14.527344 23.71875 14.566406 23.71875 14.601562 C 23.71875 14.613281 23.714844 14.625 23.714844 14.636719 C 23.738281 14.785156 23.726562 14.929688 23.691406 15.074219 C 23.6875 15.101562 23.679688 15.128906 23.6875 15.152344 C 23.714844 15.246094 23.6875 15.34375 23.699219 15.4375 C 23.71875 15.542969 23.710938 15.636719 23.644531 15.722656 C 23.636719 15.730469 23.636719 15.75 23.640625 15.761719 C 23.664062 15.855469 23.636719 15.941406 23.625 16.035156 C 23.617188 16.089844 23.597656 16.152344 23.617188 16.21875 C 23.621094 16.242188 23.617188 16.273438 23.609375 16.296875 C 23.59375 16.339844 23.59375 16.378906 23.605469 16.417969 C 23.636719 16.507812 23.632812 16.59375 23.597656 16.679688 C 23.585938 16.707031 23.59375 16.742188 23.585938 16.769531 C 23.570312 16.8125 23.605469 16.867188 23.550781 16.898438 C 23.554688 16.9375 23.5625 16.976562 23.5625 17.015625 C 23.5625 17.042969 23.566406 17.085938 23.550781 17.101562 C 23.527344 17.128906 23.53125 17.144531 23.539062 17.175781 C 23.550781 17.207031 23.5625 17.242188 23.53125 17.273438 C 23.527344 17.28125 23.53125 17.304688 23.535156 17.316406 C 23.558594 17.363281 23.535156 17.410156 23.503906 17.4375 C 23.472656 17.464844 23.460938 17.488281 23.464844 17.527344 C 23.46875 17.539062 23.453125 17.554688 23.441406 17.570312 C 23.460938 17.65625 23.480469 17.746094 23.503906 17.84375 C 23.484375 17.84375 23.472656 17.847656 23.449219 17.851562 C 23.460938 17.882812 23.472656 17.910156 23.480469 17.9375 C 23.464844 17.976562 23.4375 17.976562 23.402344 17.953125 C 23.390625 18.011719 23.46875 18.027344 23.464844 18.085938 C 23.445312 18.089844 23.425781 18.097656 23.402344 18.101562 C 23.453125 18.164062 23.453125 18.234375 23.398438 18.300781 C 23.417969 18.332031 23.449219 18.363281 23.417969 18.40625 C 23.410156 18.414062 23.417969 18.4375 23.425781 18.449219 C 23.441406 18.496094 23.4375 18.539062 23.394531 18.570312 C 23.394531 18.542969 23.394531 18.515625 23.394531 18.484375 C 23.359375 18.515625 23.363281 18.542969 23.394531 18.570312 " fill-opacity="1" fill-rule="nonzero"/></g></svg>