<svg xmlns="http://www.w3.org/2000/svg" xmlns:xlink="http://www.w3.org/1999/xlink" width="48" zoomAndPan="magnify" viewBox="0 0 24 29" height="56" preserveAspectRatio="xMidYMid meet" version="1.0"><defs><clipPath id="03131f22f9"><path d="M 0.417969 0 L 23.859375 0 L 23.859375 22 L 0.417969 22 Z M 0.417969 0 " clip-rule="nonzero"/></clipPath></defs><g clip-path="url(#03131f22f9)"><path fill="#ffca8e" d="M 23.851562 3.789062 C 23.847656 3.296875 23.75 2.824219 23.558594 2.371094 C 23.371094 1.917969 23.101562 1.515625 22.753906 1.167969 C 22.40625 0.820312 22.003906 0.550781 21.550781 0.363281 C 21.097656 0.175781 20.628906 0.078125 20.136719 0.078125 C 19.644531 0.0742188 19.171875 0.167969 18.71875 0.351562 C 18.261719 0.535156 17.859375 0.800781 17.511719 1.148438 C 17.160156 1.492188 16.886719 1.890625 16.695312 2.34375 C 16.5 2.796875 16.398438 3.269531 16.390625 3.761719 C 15.066406 3.109375 13.667969 2.785156 12.191406 2.785156 C 10.71875 2.785156 9.316406 3.109375 7.992188 3.761719 C 7.988281 3.273438 7.894531 2.804688 7.707031 2.355469 C 7.523438 1.90625 7.261719 1.507812 6.917969 1.164062 C 6.578125 0.816406 6.1875 0.546875 5.742188 0.351562 C 5.296875 0.160156 4.832031 0.0585938 4.347656 0.046875 C 3.863281 0.0351562 3.394531 0.117188 2.941406 0.289062 C 2.488281 0.460938 2.082031 0.714844 1.726562 1.046875 C 1.371094 1.375 1.089844 1.761719 0.886719 2.203125 C 0.679688 2.644531 0.5625 3.105469 0.539062 3.59375 C 0.511719 4.078125 0.578125 4.550781 0.738281 5.011719 C 0.894531 5.472656 1.132812 5.882812 1.453125 6.25 C 1.769531 6.617188 2.148438 6.910156 2.578125 7.128906 C 3.011719 7.351562 3.46875 7.480469 3.953125 7.519531 C 3.667969 8.003906 3.429688 8.507812 3.238281 9.035156 C 3.042969 9.5625 2.894531 10.101562 2.792969 10.652344 C 2.695312 11.203125 2.644531 11.761719 2.640625 12.320312 C 2.636719 12.882812 2.683594 13.441406 2.777344 13.992188 C 2.871094 14.546875 3.011719 15.085938 3.203125 15.613281 C 3.390625 16.140625 3.625 16.648438 3.902344 17.136719 C 4.179688 17.625 4.5 18.082031 4.855469 18.511719 C 5.214844 18.945312 5.609375 19.339844 6.035156 19.703125 C 6.460938 20.0625 6.917969 20.386719 7.402344 20.667969 C 7.886719 20.949219 8.390625 21.183594 8.914062 21.378906 C 9.441406 21.570312 9.976562 21.714844 10.527344 21.8125 C 11.078125 21.910156 11.632812 21.960938 12.191406 21.960938 C 12.75 21.960938 13.304688 21.910156 13.855469 21.8125 C 14.40625 21.714844 14.945312 21.570312 15.46875 21.378906 C 15.996094 21.183594 16.5 20.949219 16.984375 20.667969 C 17.46875 20.386719 17.921875 20.0625 18.351562 19.703125 C 18.777344 19.339844 19.171875 18.945312 19.527344 18.511719 C 19.886719 18.082031 20.203125 17.625 20.480469 17.136719 C 20.761719 16.648438 20.992188 16.140625 21.183594 15.613281 C 21.371094 15.085938 21.511719 14.546875 21.609375 13.992188 C 21.703125 13.441406 21.75 12.882812 21.746094 12.320312 C 21.742188 11.761719 21.691406 11.203125 21.589844 10.652344 C 21.488281 10.101562 21.34375 9.5625 21.148438 9.035156 C 20.953125 8.507812 20.714844 8.003906 20.433594 7.519531 C 20.898438 7.480469 21.339844 7.359375 21.761719 7.152344 C 22.179688 6.945312 22.550781 6.667969 22.867188 6.324219 C 23.183594 5.980469 23.425781 5.585938 23.597656 5.148438 C 23.765625 4.714844 23.851562 4.261719 23.851562 3.789062 Z M 23.851562 3.789062 " fill-opacity="1" fill-rule="nonzero"/></g><path fill="#ffffff" d="M 19.835938 12.375 C 19.835938 12.878906 19.785156 13.375 19.6875 13.871094 C 19.589844 14.363281 19.445312 14.84375 19.253906 15.308594 C 19.0625 15.773438 18.824219 16.214844 18.546875 16.632812 C 18.269531 17.054688 17.949219 17.441406 17.597656 17.796875 C 17.242188 18.152344 16.855469 18.472656 16.4375 18.75 C 16.019531 19.03125 15.582031 19.265625 15.117188 19.460938 C 14.652344 19.652344 14.175781 19.796875 13.683594 19.894531 C 13.191406 19.996094 12.695312 20.042969 12.191406 20.042969 C 11.691406 20.042969 11.195312 19.996094 10.703125 19.894531 C 10.210938 19.796875 9.730469 19.652344 9.269531 19.460938 C 8.804688 19.265625 8.363281 19.03125 7.945312 18.75 C 7.53125 18.472656 7.144531 18.152344 6.789062 17.796875 C 6.433594 17.441406 6.117188 17.054688 5.839844 16.632812 C 5.558594 16.214844 5.324219 15.773438 5.132812 15.308594 C 4.941406 14.84375 4.796875 14.363281 4.695312 13.871094 C 4.597656 13.375 4.550781 12.878906 4.550781 12.375 C 4.550781 11.871094 4.597656 11.371094 4.695312 10.878906 C 4.796875 10.382812 4.941406 9.902344 5.132812 9.4375 C 5.324219 8.972656 5.558594 8.53125 5.839844 8.113281 C 6.117188 7.695312 6.433594 7.304688 6.789062 6.949219 C 7.144531 6.59375 7.53125 6.277344 7.945312 5.996094 C 8.363281 5.71875 8.804688 5.480469 9.269531 5.289062 C 9.730469 5.09375 10.210938 4.949219 10.703125 4.851562 C 11.195312 4.753906 11.691406 4.703125 12.191406 4.703125 C 12.695312 4.703125 13.191406 4.753906 13.683594 4.851562 C 14.175781 4.949219 14.652344 5.09375 15.117188 5.289062 C 15.582031 5.480469 16.019531 5.71875 16.4375 5.996094 C 16.855469 6.277344 17.242188 6.59375 17.597656 6.949219 C 17.949219 7.304688 18.269531 7.695312 18.546875 8.113281 C 18.824219 8.53125 19.0625 8.972656 19.253906 9.4375 C 19.445312 9.902344 19.589844 10.382812 19.6875 10.878906 C 19.785156 11.371094 19.835938 11.871094 19.835938 12.375 Z M 19.835938 12.375 " fill-opacity="1" fill-rule="nonzero"/><path fill="#ffffff" d="M 6.628906 3.789062 C 6.628906 4.105469 6.570312 4.410156 6.449219 4.699219 C 6.328125 4.988281 6.15625 5.246094 5.9375 5.46875 C 5.714844 5.691406 5.457031 5.863281 5.167969 5.984375 C 4.878906 6.105469 4.578125 6.164062 4.261719 6.164062 C 3.949219 6.164062 3.648438 6.105469 3.359375 5.984375 C 3.070312 5.863281 2.8125 5.691406 2.589844 5.46875 C 2.367188 5.246094 2.199219 4.988281 2.078125 4.699219 C 1.957031 4.410156 1.898438 4.105469 1.898438 3.789062 C 1.898438 3.476562 1.957031 3.171875 2.078125 2.882812 C 2.199219 2.589844 2.367188 2.335938 2.589844 2.113281 C 2.8125 1.890625 3.070312 1.71875 3.359375 1.597656 C 3.648438 1.476562 3.949219 1.417969 4.261719 1.417969 C 4.578125 1.417969 4.878906 1.476562 5.167969 1.597656 C 5.457031 1.71875 5.714844 1.890625 5.9375 2.113281 C 6.15625 2.335938 6.328125 2.589844 6.449219 2.882812 C 6.570312 3.171875 6.628906 3.476562 6.628906 3.789062 Z M 6.628906 3.789062 " fill-opacity="1" fill-rule="nonzero"/><path fill="#ffffff" d="M 22.488281 3.789062 C 22.488281 4.105469 22.425781 4.410156 22.308594 4.699219 C 22.1875 4.988281 22.015625 5.246094 21.792969 5.46875 C 21.570312 5.691406 21.316406 5.863281 21.027344 5.984375 C 20.738281 6.105469 20.433594 6.164062 20.121094 6.164062 C 19.808594 6.164062 19.503906 6.105469 19.214844 5.984375 C 18.925781 5.863281 18.671875 5.691406 18.449219 5.46875 C 18.226562 5.246094 18.054688 4.988281 17.9375 4.699219 C 17.816406 4.410156 17.753906 4.105469 17.753906 3.789062 C 17.753906 3.476562 17.816406 3.171875 17.9375 2.882812 C 18.054688 2.589844 18.226562 2.335938 18.449219 2.113281 C 18.671875 1.890625 18.925781 1.71875 19.214844 1.597656 C 19.503906 1.476562 19.808594 1.417969 20.121094 1.417969 C 20.433594 1.417969 20.738281 1.476562 21.027344 1.597656 C 21.316406 1.71875 21.570312 1.890625 21.792969 2.113281 C 22.015625 2.335938 22.1875 2.589844 22.308594 2.882812 C 22.425781 3.171875 22.488281 3.476562 22.488281 3.789062 Z M 22.488281 3.789062 " fill-opacity="1" fill-rule="nonzero"/></svg>