<svg xmlns="http://www.w3.org/2000/svg" xmlns:xlink="http://www.w3.org/1999/xlink" width="48" zoomAndPan="magnify" viewBox="0 0 24 29" height="56" preserveAspectRatio="xMidYMid meet" version="1.0"><defs><clipPath id="9072c882d5"><path d="M 0.417969 0 L 23.859375 0 L 23.859375 23.441406 L 0.417969 23.441406 Z M 0.417969 0 " clip-rule="nonzero"/></clipPath></defs><g clip-path="url(#9072c882d5)"><path fill="#d1cce7" d="M 20.304688 10.527344 C 20.3125 10.433594 20.308594 10.34375 20.296875 10.253906 C 20.359375 10.21875 20.425781 10.183594 20.488281 10.148438 L 20.597656 10.339844 C 20.5 10.402344 20.402344 10.464844 20.304688 10.527344 Z M 20.058594 17.628906 L 19.953125 17.433594 L 20.199219 17.1875 L 20.308594 17.378906 C 20.292969 17.386719 20.074219 17.621094 20.058594 17.628906 Z M 9.410156 18.46875 C 9.285156 18.527344 9.160156 18.585938 9.039062 18.648438 L 8.933594 18.449219 C 9.003906 18.40625 9.070312 18.363281 9.136719 18.324219 C 9.378906 18.183594 9.621094 18.039062 9.859375 17.894531 C 9.886719 17.902344 9.910156 17.910156 9.9375 17.914062 C 10.132812 17.960938 10.320312 17.964844 10.503906 17.929688 C 10.140625 18.117188 9.773438 18.292969 9.410156 18.46875 Z M 8.960938 19.796875 L 8.839844 19.609375 C 8.859375 19.597656 9.023438 19.472656 9.039062 19.464844 L 9.164062 19.644531 C 9.152344 19.65625 8.984375 19.78125 8.960938 19.796875 Z M 5.324219 15.4375 C 5.421875 15.375 5.523438 15.304688 5.621094 15.238281 C 5.621094 15.261719 5.621094 15.289062 5.621094 15.3125 C 5.625 15.378906 5.628906 15.441406 5.640625 15.503906 C 5.574219 15.542969 5.507812 15.585938 5.441406 15.628906 Z M 3.007812 7.550781 L 2.886719 7.363281 L 2.9375 7.328125 C 3.011719 7.277344 3.070312 7.234375 3.113281 7.210938 L 3.234375 7.394531 C 3.15625 7.449219 3.078125 7.503906 3.007812 7.550781 Z M 2.714844 12.875 L 2.597656 12.6875 C 2.628906 12.667969 2.804688 12.511719 2.824219 12.5 L 2.933594 12.695312 C 2.910156 12.707031 2.738281 12.859375 2.714844 12.875 Z M 4.199219 4.480469 L 4.328125 4.664062 Z M 5.84375 2.042969 C 5.855469 2.058594 5.867188 2.074219 5.878906 2.089844 L 5.699219 2.214844 C 5.691406 2.207031 5.6875 2.199219 5.679688 2.191406 Z M 14.632812 3.09375 C 14.472656 3.210938 14.308594 3.328125 14.144531 3.441406 C 14.082031 3.351562 14.007812 3.265625 13.925781 3.191406 C 14.121094 3.097656 14.320312 3.003906 14.519531 2.902344 Z M 15.707031 5.34375 C 15.75 5.324219 15.792969 5.304688 15.835938 5.285156 L 15.945312 5.476562 C 15.730469 5.636719 15.503906 5.804688 15.273438 5.96875 C 15.273438 5.839844 15.257812 5.703125 15.222656 5.578125 C 15.382812 5.5 15.546875 5.421875 15.707031 5.34375 Z M 18.878906 7.40625 L 18.992188 7.597656 C 18.960938 7.617188 18.828125 7.730469 18.800781 7.746094 L 18.6875 7.558594 C 18.714844 7.539062 18.847656 7.421875 18.878906 7.40625 Z M 23.800781 14.496094 C 23.78125 14.464844 23.71875 14.460938 23.683594 14.460938 C 23.492188 14.460938 23.148438 14.597656 22.835938 14.800781 L 22.695312 14.628906 C 22.808594 14.5 22.855469 14.351562 22.8125 14.234375 C 22.769531 14.113281 22.636719 14.03125 22.4375 14.003906 L 22.15625 13.964844 L 22.390625 13.800781 C 23.148438 13.273438 23.601562 12.816406 23.632812 12.550781 C 23.640625 12.496094 23.628906 12.453125 23.597656 12.417969 C 23.5625 12.378906 23.503906 12.359375 23.421875 12.359375 C 23.371094 12.359375 23.308594 12.367188 23.238281 12.382812 L 22.894531 12.460938 L 23.132812 12.199219 C 23.324219 11.988281 23.472656 11.769531 23.578125 11.535156 C 23.484375 11.503906 23.382812 11.484375 23.277344 11.484375 C 23.234375 11.484375 23.1875 11.488281 23.140625 11.492188 L 22.882812 11.523438 L 23.042969 11.3125 C 23.054688 11.300781 23.066406 11.285156 23.074219 11.273438 C 23.390625 10.835938 23.414062 10.601562 23.382812 10.535156 C 23.378906 10.527344 23.371094 10.507812 23.3125 10.507812 C 23.246094 10.507812 23.050781 10.539062 22.664062 10.835938 L 22.53125 10.660156 C 23.339844 10.039062 23.304688 9.847656 23.304688 9.847656 C 23.300781 9.839844 23.265625 9.816406 23.160156 9.816406 C 22.882812 9.816406 22.324219 9.988281 21.789062 10.316406 L 21.671875 10.125 C 21.765625 10.058594 21.921875 9.96875 22.101562 9.863281 C 22.625 9.558594 23.496094 9.050781 23.558594 8.707031 C 23.585938 8.546875 23.574219 8.429688 23.523438 8.371094 C 23.488281 8.324219 23.421875 8.300781 23.328125 8.300781 C 23.085938 8.300781 22.753906 8.453125 22.542969 8.582031 L 22.417969 8.398438 C 22.9375 7.96875 22.917969 7.824219 22.917969 7.824219 C 22.914062 7.820312 22.882812 7.804688 22.8125 7.804688 C 22.621094 7.804688 22.316406 7.90625 22.023438 8.066406 C 21.292969 8.472656 20.558594 8.933594 19.84375 9.402344 C 19.792969 9.355469 19.734375 9.316406 19.675781 9.285156 C 19.625 9.257812 19.570312 9.230469 19.511719 9.207031 C 19.523438 9.199219 19.535156 9.191406 19.546875 9.183594 C 19.566406 9.167969 19.609375 9.140625 19.664062 9.101562 C 19.949219 8.910156 20.710938 8.402344 21.351562 7.902344 C 22.324219 7.140625 22.382812 6.902344 22.378906 6.855469 C 22.375 6.855469 22.371094 6.851562 22.363281 6.851562 C 22.3125 6.851562 22.207031 6.871094 21.992188 6.957031 L 21.886719 6.765625 C 22.277344 6.472656 22.550781 6.1875 22.726562 5.902344 C 22.800781 5.78125 22.871094 5.683594 22.925781 5.605469 C 22.957031 5.5625 22.992188 5.515625 23.011719 5.484375 C 22.976562 5.472656 22.90625 5.464844 22.78125 5.457031 C 22.765625 5.453125 22.746094 5.453125 22.730469 5.453125 C 22.390625 5.453125 21.882812 5.664062 21.179688 6.09375 L 21.035156 5.9375 C 21.140625 5.777344 21.183594 5.644531 21.148438 5.574219 C 21.121094 5.523438 21.039062 5.492188 20.925781 5.492188 C 20.804688 5.492188 20.660156 5.527344 20.515625 5.589844 L 20.414062 5.394531 C 20.578125 5.277344 20.671875 5.121094 20.652344 4.992188 C 20.632812 4.882812 20.527344 4.792969 20.34375 4.738281 C 20.328125 4.734375 20.3125 4.730469 20.289062 4.730469 L 19.894531 4.726562 L 20.238281 4.523438 C 20.707031 4.242188 20.792969 4.046875 20.785156 3.933594 C 20.773438 3.78125 20.710938 3.746094 20.617188 3.746094 C 20.316406 3.746094 19.730469 4.144531 19.433594 4.390625 L 19.28125 4.230469 C 19.949219 3.449219 19.875 3.253906 19.871094 3.246094 C 19.863281 3.222656 19.8125 3.214844 19.769531 3.214844 C 19.695312 3.214844 19.550781 3.238281 19.289062 3.339844 L 19.03125 3.4375 L 19.152344 3.183594 C 19.171875 3.140625 19.191406 3.09375 19.210938 3.050781 C 19.398438 2.558594 19.34375 2.398438 19.316406 2.351562 C 19.304688 2.339844 19.277344 2.296875 19.175781 2.296875 C 18.984375 2.296875 18.652344 2.441406 18.234375 2.699219 L 18.109375 2.519531 C 18.175781 2.460938 18.207031 2.40625 18.195312 2.371094 C 18.167969 2.300781 18.007812 2.230469 17.789062 2.230469 C 17.617188 2.230469 17.453125 2.273438 17.328125 2.351562 L 17.207031 2.167969 C 17.773438 1.734375 17.984375 1.402344 17.945312 1.273438 C 17.917969 1.191406 17.746094 1.140625 17.488281 1.140625 C 17.441406 1.140625 17.390625 1.144531 17.335938 1.148438 C 17.140625 1.160156 16.941406 1.21875 16.726562 1.335938 L 16.421875 1.496094 L 16.578125 1.1875 C 16.601562 1.136719 16.625 1.082031 16.648438 1.03125 C 16.632812 1.027344 16.617188 1.027344 16.597656 1.027344 C 16.21875 1.027344 15.820312 1.179688 15.347656 1.507812 L 15.222656 1.324219 C 15.75 0.949219 16.242188 0.566406 16.460938 0.0507812 C 16.34375 0.015625 16.21875 0 16.082031 0 C 15.53125 0 14.816406 0.269531 13.898438 0.820312 L 13.765625 0.898438 L 13.734375 0.742188 C 13.71875 0.664062 13.683594 0.589844 13.527344 0.589844 C 13.265625 0.589844 12.796875 0.804688 12.210938 1.195312 L 12.078125 1.019531 C 12.335938 0.777344 12.523438 0.515625 12.613281 0.273438 C 12.554688 0.257812 12.5 0.25 12.441406 0.25 C 12.242188 0.25 12.046875 0.351562 11.800781 0.484375 L 11.792969 0.488281 C 11.167969 0.820312 10.546875 1.199219 9.949219 1.566406 C 9.667969 1.738281 9.375 1.917969 9.089844 2.085938 L 8.976562 1.894531 L 9.035156 1.859375 C 11.113281 0.5625 11.210938 0.183594 11.191406 0.0976562 C 11.183594 0.0664062 11.117188 0.0234375 10.953125 0.0078125 C 10.929688 0.00390625 10.898438 0.00390625 10.871094 0.00390625 C 10.125 0.00390625 8.921875 0.914062 7.953125 1.644531 C 7.429688 2.039062 6.980469 2.378906 6.636719 2.5625 L 6.523438 2.375 C 6.558594 2.347656 6.617188 2.308594 6.691406 2.253906 C 7.964844 1.371094 8.597656 0.773438 8.566406 0.476562 C 8.566406 0.453125 8.558594 0.390625 8.433594 0.335938 C 8.386719 0.316406 8.339844 0.308594 8.289062 0.308594 C 7.886719 0.308594 7.289062 0.820312 6.761719 1.269531 C 6.285156 1.675781 5.835938 2.058594 5.492188 2.125 C 5.46875 2.128906 5.445312 2.140625 5.425781 2.152344 C 5.378906 2.179688 5.347656 2.222656 5.332031 2.277344 C 5.316406 2.332031 5.324219 2.386719 5.351562 2.4375 C 5.371094 2.46875 5.394531 2.492188 5.425781 2.511719 L 5.5625 2.597656 L 5.4375 2.695312 C 5.320312 2.789062 5.171875 2.890625 4.996094 3.007812 C 4.527344 3.328125 3.882812 3.765625 3.738281 4.167969 C 3.597656 4.566406 3.652344 4.679688 3.667969 4.695312 C 3.671875 4.703125 3.679688 4.71875 3.722656 4.71875 C 3.761719 4.71875 3.851562 4.703125 4.019531 4.601562 L 4.132812 4.792969 L 4.0625 4.839844 C 3.757812 5.039062 3.296875 5.339844 2.910156 5.648438 C 2.308594 6.128906 2.292969 6.3125 2.300781 6.355469 C 2.3125 6.40625 2.40625 6.445312 2.550781 6.464844 L 2.867188 6.492188 L 2.605469 6.671875 C 1.515625 7.410156 1.511719 7.730469 1.5625 7.832031 C 1.582031 7.878906 1.625 7.933594 1.742188 7.933594 C 1.921875 7.933594 2.199219 7.8125 2.570312 7.578125 L 2.691406 7.761719 C 2.351562 7.996094 2.019531 8.253906 1.855469 8.574219 C 1.929688 8.59375 2.007812 8.609375 2.089844 8.613281 L 2.375 8.636719 L 2.148438 8.8125 C 1.5625 9.273438 1.164062 9.742188 0.929688 10.238281 C 0.996094 10.261719 1.066406 10.273438 1.136719 10.273438 C 1.425781 10.273438 1.726562 10.082031 2.015625 9.898438 C 2.089844 9.851562 2.160156 9.804688 2.230469 9.761719 L 2.339844 9.957031 C 1.851562 10.25 1.140625 10.828125 1.171875 11.128906 C 1.179688 11.210938 1.261719 11.277344 1.410156 11.328125 C 1.425781 11.332031 1.441406 11.335938 1.460938 11.335938 C 1.53125 11.335938 1.671875 11.304688 1.933594 11.171875 L 2.042969 11.363281 C 0.71875 12.265625 0.695312 12.582031 0.707031 12.636719 C 0.71875 12.695312 0.816406 12.730469 0.878906 12.742188 C 0.878906 12.746094 0.882812 12.746094 0.886719 12.746094 L 1.097656 12.785156 L 0.941406 12.9375 C 0.707031 13.164062 0.558594 13.371094 0.496094 13.5625 C 0.429688 13.769531 0.460938 13.828125 0.464844 13.839844 C 0.480469 13.855469 0.515625 13.859375 0.535156 13.859375 C 0.898438 13.859375 1.847656 13.203125 2.160156 12.988281 L 2.285156 13.171875 C 1.558594 13.71875 1.4375 14.078125 1.476562 14.195312 C 1.5 14.273438 1.625 14.285156 1.699219 14.285156 C 1.859375 14.285156 2.234375 14.226562 2.917969 13.839844 L 3.023438 14.03125 C 1.082031 15.191406 1.148438 15.472656 1.148438 15.476562 C 1.148438 15.476562 1.1875 15.53125 1.4375 15.53125 C 1.457031 15.53125 1.476562 15.53125 1.496094 15.53125 L 1.660156 15.527344 L 1.597656 15.683594 C 1.328125 16.371094 1.371094 16.519531 1.386719 16.546875 C 1.394531 16.554688 1.410156 16.554688 1.421875 16.554688 C 1.566406 16.554688 1.890625 16.367188 2.234375 16.171875 C 2.285156 16.140625 2.339844 16.109375 2.394531 16.078125 C 3.207031 15.617188 4.074219 15.097656 5.101562 14.457031 C 5.105469 14.464844 5.113281 14.472656 5.117188 14.480469 C 5.160156 14.535156 5.207031 14.589844 5.257812 14.640625 C 4.773438 14.980469 4.328125 15.3125 3.90625 15.640625 C 3.820312 15.707031 3.714844 15.789062 3.601562 15.871094 C 3.351562 16.054688 2.910156 16.382812 2.792969 16.539062 C 2.796875 16.539062 2.796875 16.539062 2.796875 16.539062 C 2.882812 16.539062 3.019531 16.515625 3.199219 16.46875 C 3.625 16.367188 4.082031 16.171875 4.605469 15.878906 L 4.710938 16.074219 C 4.398438 16.261719 4.089844 16.449219 3.789062 16.625 C 3.648438 16.707031 3.496094 16.789062 3.347656 16.863281 C 2.949219 17.074219 2.542969 17.289062 2.257812 17.605469 C 2.277344 17.605469 2.292969 17.605469 2.3125 17.605469 C 2.738281 17.605469 3.375 17.351562 4.253906 16.835938 L 4.375 17.019531 C 3.554688 17.644531 3.457031 17.953125 3.472656 18.082031 C 3.484375 18.171875 3.515625 18.257812 3.691406 18.257812 C 3.898438 18.257812 4.234375 18.132812 4.652344 17.898438 L 4.773438 18.085938 C 3.925781 18.765625 3.878906 19.035156 3.898438 19.121094 C 3.914062 19.199219 4.035156 19.242188 4.128906 19.261719 L 4.339844 19.308594 L 4.179688 19.453125 C 3.996094 19.625 3.761719 19.890625 3.636719 20.21875 C 4.320312 20.195312 5.128906 19.601562 5.78125 19.121094 C 6.023438 18.941406 6.257812 18.769531 6.464844 18.640625 C 6.804688 18.429688 7.152344 18.214844 7.496094 18.003906 C 7.667969 18.023438 7.839844 18.015625 7.980469 17.964844 C 8.417969 17.8125 8.839844 17.636719 9.253906 17.4375 C 9.292969 17.488281 9.335938 17.539062 9.382812 17.585938 C 8.847656 17.953125 8.296875 18.324219 7.75 18.683594 C 7.605469 18.78125 7.449219 18.867188 7.289062 18.960938 C 6.824219 19.230469 6.347656 19.507812 6.089844 19.925781 C 6.253906 19.898438 6.421875 19.855469 6.605469 19.789062 L 6.707031 19.984375 C 6.03125 20.492188 5.941406 20.761719 5.949219 20.882812 C 5.949219 20.910156 5.953125 20.992188 6.09375 21.074219 C 6.136719 21.097656 6.1875 21.113281 6.253906 21.113281 C 6.449219 21.113281 6.730469 21.007812 7.101562 20.804688 L 7.226562 20.984375 C 6.921875 21.269531 6.90625 21.40625 6.917969 21.449219 C 6.925781 21.5 6.976562 21.546875 7.070312 21.582031 C 7.074219 21.582031 7.082031 21.585938 7.09375 21.585938 C 7.363281 21.585938 8.121094 21.039062 8.488281 20.777344 C 8.605469 20.695312 8.699219 20.625 8.753906 20.589844 L 8.875 20.773438 C 8.121094 21.320312 7.800781 21.839844 7.839844 21.964844 C 7.84375 21.976562 7.871094 21.980469 7.902344 21.980469 C 8.011719 21.980469 8.289062 21.921875 8.933594 21.523438 L 9.0625 21.703125 C 9.039062 21.722656 9.007812 21.75 8.964844 21.78125 C 8.691406 22.003906 7.855469 22.679688 7.847656 23.050781 C 7.84375 23.097656 7.859375 23.136719 7.898438 23.167969 C 7.914062 23.183594 7.9375 23.191406 7.976562 23.191406 C 8.289062 23.191406 8.980469 22.664062 9.3125 22.410156 C 9.417969 22.328125 9.5 22.269531 9.546875 22.238281 C 10.773438 21.460938 12.023438 20.695312 13.25 19.960938 C 13.289062 20.105469 13.367188 20.242188 13.46875 20.351562 C 13.234375 20.484375 12.988281 20.613281 12.726562 20.746094 C 12.066406 21.085938 11.378906 21.4375 10.929688 21.894531 C 10.78125 22.046875 10.636719 22.191406 10.5625 22.28125 C 10.675781 22.277344 10.859375 22.246094 11.101562 22.207031 L 11.117188 22.203125 C 11.269531 22.179688 11.429688 22.140625 11.59375 22.085938 L 11.699219 22.273438 C 11.40625 22.542969 11.195312 22.804688 11.074219 23.054688 C 10.964844 23.28125 10.929688 23.390625 10.921875 23.441406 C 10.992188 23.425781 11.121094 23.371094 11.253906 23.3125 C 11.34375 23.273438 11.449219 23.226562 11.5625 23.183594 C 12.152344 22.949219 12.84375 22.578125 13.671875 22.054688 L 13.796875 22.234375 C 13.183594 22.734375 13.082031 22.984375 13.078125 23.089844 C 13.074219 23.128906 13.089844 23.164062 13.117188 23.191406 C 13.121094 23.195312 13.136719 23.203125 13.171875 23.203125 C 13.628906 23.203125 15.152344 22.203125 15.84375 21.738281 C 15.933594 21.753906 16.019531 21.765625 16.109375 21.773438 L 16.132812 21.808594 C 15.847656 22.023438 15.671875 22.210938 15.617188 22.359375 C 16.246094 22.277344 18.863281 21.183594 19.753906 20.351562 C 19.703125 20.316406 19.664062 20.273438 19.632812 20.21875 L 19.820312 20.105469 C 19.839844 20.140625 19.871094 20.171875 19.90625 20.1875 C 19.957031 20.125 19.996094 20.0625 20.019531 20.003906 C 20.066406 19.894531 20.050781 19.8125 19.972656 19.734375 L 19.890625 19.652344 L 19.976562 19.570312 C 20.0625 19.496094 20.226562 19.386719 20.4375 19.253906 C 20.925781 18.9375 21.746094 18.410156 21.828125 18.007812 C 21.84375 17.933594 21.832031 17.875 21.792969 17.8125 C 21.773438 17.785156 21.738281 17.75 21.660156 17.75 C 21.433594 17.75 21.074219 17.996094 20.835938 18.160156 C 20.742188 18.222656 20.664062 18.277344 20.605469 18.308594 L 20.488281 18.121094 C 20.582031 18.046875 20.753906 17.929688 20.96875 17.777344 C 21.320312 17.535156 21.796875 17.203125 22.167969 16.902344 C 22.726562 16.453125 22.773438 16.300781 22.773438 16.273438 C 22.765625 16.265625 22.722656 16.246094 22.609375 16.246094 C 22.574219 16.246094 22.53125 16.246094 22.488281 16.25 L 22.417969 16.046875 C 23.066406 15.632812 23.476562 15.28125 23.636719 15.003906 C 23.851562 14.628906 23.808594 14.515625 23.800781 14.496094 " fill-opacity="1" fill-rule="nonzero"/></g></svg>