<svg xmlns="http://www.w3.org/2000/svg" xmlns:xlink="http://www.w3.org/1999/xlink" width="48" zoomAndPan="magnify" viewBox="0 0 24 29" height="56" preserveAspectRatio="xMidYMid meet" version="1.0"><defs><clipPath id="d10acbe259"><path d="M 0.417969 0 L 23.859375 0 L 23.859375 23.441406 L 0.417969 23.441406 Z M 0.417969 0 " clip-rule="nonzero"/></clipPath></defs><g clip-path="url(#d10acbe259)"><path fill="#3b3b3b" d="M 12.140625 0.234375 C 5.796875 0.234375 0.65625 5.378906 0.65625 11.722656 C 0.65625 18.066406 5.796875 23.210938 12.140625 23.210938 C 18.488281 23.210938 23.628906 18.066406 23.628906 11.722656 C 23.628906 5.378906 18.488281 0.234375 12.140625 0.234375 Z M 23.863281 11.722656 C 23.863281 18.195312 18.617188 23.445312 12.140625 23.445312 C 5.667969 23.445312 0.421875 18.195312 0.421875 11.722656 C 0.421875 5.25 5.667969 0.00390625 12.140625 0.00390625 C 18.617188 0.00390625 23.863281 5.25 23.863281 11.722656 Z M 12.140625 2.914062 C 7.277344 2.914062 3.332031 6.859375 3.332031 11.722656 C 3.332031 16.589844 7.277344 20.53125 12.140625 20.53125 C 17.007812 20.53125 20.949219 16.589844 20.949219 11.722656 C 20.949219 6.859375 17.007812 2.914062 12.140625 2.914062 Z M 21.179688 11.722656 C 21.179688 16.714844 17.132812 20.761719 12.140625 20.761719 C 7.152344 20.761719 3.105469 16.714844 3.105469 11.722656 C 3.105469 6.730469 7.152344 2.683594 12.140625 2.683594 C 17.132812 2.683594 21.179688 6.730469 21.179688 11.722656 Z M 10.71875 0.671875 C 11.808594 0.535156 12.703125 0.566406 13.566406 0.671875 L 13.402344 1.894531 C 13.097656 1.851562 13.238281 1.867188 12.792969 1.832031 L 12.808594 1.589844 C 12.808594 1.59375 13.171875 1.621094 13.175781 1.621094 C 13.230469 1.621094 13.21875 1.621094 13.285156 0.929688 C 13.289062 0.902344 13.269531 0.878906 13.242188 0.878906 C 13.222656 0.875 12.714844 0.835938 12.695312 0.835938 C 12.53125 0.832031 11.949219 0.808594 11.496094 0.84375 C 11.027344 0.878906 11.03125 0.867188 11.007812 0.894531 C 10.988281 0.917969 10.996094 0.902344 11.0625 1.578125 C 11.070312 1.636719 11.113281 1.621094 11.476562 1.589844 L 11.492188 1.832031 C 11.03125 1.867188 11.195312 1.851562 10.878906 1.894531 Z M 15.550781 2.410156 L 15.632812 2.183594 C 15.9375 2.292969 16.003906 2.359375 16.03125 2.289062 C 16.289062 1.660156 16.289062 1.679688 16.277344 1.652344 C 16.265625 1.621094 16.261719 1.628906 15.894531 1.484375 C 15.308594 1.285156 15.207031 1.242188 14.34375 1.042969 C 14.140625 1.003906 14.089844 0.988281 14.078125 1.046875 C 13.9375 1.8125 13.902344 1.722656 14.105469 1.757812 C 14.203125 1.777344 14.1875 1.773438 14.355469 1.8125 L 14.300781 2.046875 C 14.082031 2 14.222656 2.027344 13.699219 1.933594 L 13.882812 0.714844 C 14.886719 0.894531 15.65625 1.085938 16.617188 1.519531 L 16.121094 2.640625 C 15.957031 2.570312 15.585938 2.421875 15.550781 2.410156 Z M 7.65625 1.523438 C 8.605469 1.09375 9.414062 0.890625 10.390625 0.71875 L 10.578125 1.933594 C 10.0625 2.027344 10.195312 2 9.976562 2.050781 L 9.921875 1.8125 C 10.28125 1.730469 10.328125 1.753906 10.316406 1.6875 C 10.1875 1.007812 10.203125 1.007812 10.148438 1.007812 C 9.851562 1.007812 8.039062 1.558594 8 1.65625 C 7.984375 1.683594 7.988281 1.664062 8.246094 2.292969 C 8.253906 2.316406 8.28125 2.328125 8.304688 2.320312 C 8.304688 2.320312 8.640625 2.1875 8.644531 2.1875 L 8.726562 2.414062 C 8.691406 2.425781 8.34375 2.5625 8.15625 2.644531 Z M 12.285156 2.332031 L 12.296875 1.101562 C 12.789062 1.113281 12.613281 1.105469 12.960938 1.132812 L 12.941406 1.375 C 12.566406 1.34375 12.523438 1.335938 12.519531 1.394531 C 12.492188 2.148438 12.457031 2.09375 12.597656 2.097656 C 12.652344 2.097656 13.496094 2.140625 14.242188 2.316406 C 14.25 2.320312 14.472656 2.371094 14.480469 2.371094 C 14.53125 2.371094 14.515625 2.386719 14.683594 1.703125 C 14.691406 1.679688 14.675781 1.652344 14.648438 1.644531 L 14.289062 1.5625 L 14.335938 1.324219 C 14.871094 1.449219 14.742188 1.417969 14.980469 1.484375 L 14.648438 2.667969 C 13.835938 2.4375 13.121094 2.351562 12.285156 2.332031 Z M 9.296875 1.484375 C 9.546875 1.414062 9.40625 1.449219 9.945312 1.328125 L 9.992188 1.5625 C 9.621094 1.648438 9.617188 1.640625 9.601562 1.667969 C 9.585938 1.695312 9.589844 1.675781 9.753906 2.335938 C 9.777344 2.4375 10.167969 2.230469 11.164062 2.132812 C 11.175781 2.132812 11.640625 2.097656 11.652344 2.097656 C 11.839844 2.09375 11.792969 2.167969 11.761719 1.394531 C 11.761719 1.328125 11.695312 1.347656 11.34375 1.375 L 11.324219 1.132812 C 11.667969 1.105469 11.515625 1.113281 11.984375 1.101562 L 12 2.332031 C 11.183594 2.351562 10.425781 2.441406 9.632812 2.667969 Z M 14.929688 2.746094 L 15.285156 1.570312 C 15.320312 1.582031 15.753906 1.726562 15.914062 1.789062 L 15.828125 2.015625 C 15.472656 1.875 15.433594 1.867188 15.417969 1.917969 C 15.199219 2.5625 15.195312 2.542969 15.210938 2.570312 C 15.222656 2.601562 15.246094 2.597656 15.453125 2.667969 C 16.003906 2.886719 15.785156 2.792969 16.285156 3.019531 C 16.320312 3.035156 16.714844 3.238281 16.746094 3.253906 C 16.761719 3.261719 17.015625 3.414062 17.035156 3.414062 C 17.074219 3.414062 17.054688 3.429688 17.40625 2.828125 C 17.433594 2.78125 17.410156 2.765625 17.082031 2.589844 L 17.066406 2.578125 L 17.179688 2.367188 C 17.214844 2.382812 17.59375 2.597656 17.753906 2.703125 L 17.101562 3.742188 C 16.519531 3.371094 15.636719 2.960938 14.929688 2.746094 Z M 6.527344 2.703125 C 6.703125 2.589844 7.070312 2.382812 7.101562 2.367188 L 7.21875 2.578125 C 7.1875 2.59375 6.878906 2.761719 6.871094 2.792969 C 6.863281 2.824219 6.863281 2.804688 7.207031 3.390625 C 7.21875 3.414062 7.25 3.421875 7.269531 3.40625 C 8.03125 2.96875 8.722656 2.703125 8.882812 2.652344 C 9.015625 2.605469 9.09375 2.597656 9.074219 2.535156 C 8.847656 1.875 8.867188 1.886719 8.820312 1.886719 C 8.785156 1.886719 8.484375 2.003906 8.453125 2.015625 L 8.367188 1.789062 C 8.546875 1.71875 8.960938 1.582031 8.996094 1.570312 L 9.351562 2.75 C 8.554688 2.996094 7.753906 3.378906 7.183594 3.742188 Z M 18.039062 3.753906 L 18.179688 3.558594 C 18.441406 3.746094 18.488281 3.832031 18.535156 3.773438 C 18.957031 3.242188 18.953125 3.261719 18.949219 3.230469 C 18.941406 3.175781 18.367188 2.777344 18.265625 2.703125 C 18.226562 2.675781 17.808594 2.40625 17.75 2.375 C 17.0625 1.980469 17.042969 1.96875 17.015625 2.023438 C 16.703125 2.636719 16.683594 2.640625 16.738281 2.667969 C 16.757812 2.675781 16.972656 2.789062 16.988281 2.796875 L 17.0625 2.839844 L 16.941406 3.050781 C 16.839844 2.988281 16.457031 2.792969 16.398438 2.769531 L 16.921875 1.65625 C 17.605469 1.96875 18.5625 2.550781 19.316406 3.195312 L 18.519531 4.132812 C 18.429688 4.058594 18.085938 3.785156 18.039062 3.753906 Z M 4.96875 3.195312 C 5.675781 2.589844 6.660156 1.976562 7.363281 1.65625 L 7.886719 2.769531 C 7.832031 2.792969 7.457031 2.984375 7.339844 3.050781 L 7.222656 2.839844 C 7.503906 2.675781 7.597656 2.671875 7.566406 2.605469 C 7.269531 2.027344 7.265625 1.972656 7.207031 2.003906 C 6.15625 2.542969 5.339844 3.179688 5.335938 3.230469 C 5.332031 3.261719 5.328125 3.242188 5.75 3.773438 C 5.796875 3.832031 5.84375 3.746094 6.105469 3.558594 L 6.246094 3.753906 C 6.199219 3.785156 5.875 4.042969 5.765625 4.132812 Z M 19.144531 5.460938 C 18.578125 4.820312 17.859375 4.234375 17.339844 3.898438 L 18.019531 2.871094 C 18.105469 2.925781 18.46875 3.183594 18.558594 3.253906 L 18.414062 3.445312 C 18.109375 3.210938 18.074219 3.199219 18.042969 3.242188 C 17.652344 3.796875 17.628906 3.800781 17.679688 3.839844 C 17.726562 3.871094 18.054688 4.097656 18.375 4.375 C 18.742188 4.691406 18.976562 4.925781 19.039062 4.992188 C 19.148438 5.109375 19.160156 5.128906 19.191406 5.128906 C 19.21875 5.128906 19.199219 5.140625 19.695312 4.671875 C 19.714844 4.652344 19.714844 4.625 19.699219 4.605469 C 19.515625 4.414062 19.484375 4.378906 19.449219 4.347656 L 19.4375 4.335938 L 19.609375 4.164062 C 19.699219 4.253906 19.976562 4.542969 20.066406 4.644531 Z M 4.214844 4.648438 C 4.316406 4.53125 4.605469 4.230469 4.671875 4.167969 L 4.84375 4.339844 C 4.816406 4.367188 4.570312 4.601562 4.570312 4.640625 C 4.570312 4.671875 4.566406 4.652344 5.058594 5.121094 C 5.109375 5.167969 5.085938 5.136719 5.660156 4.589844 C 6.578125 3.792969 6.667969 3.847656 6.613281 3.773438 C 6.222656 3.214844 6.242188 3.226562 6.207031 3.222656 C 6.171875 3.214844 5.898438 3.425781 5.871094 3.449219 L 5.726562 3.253906 C 5.820312 3.179688 6.148438 2.945312 6.265625 2.871094 L 6.941406 3.898438 C 6.933594 3.902344 6 4.492188 5.136719 5.464844 Z M 20.042969 5.734375 L 20.234375 5.585938 C 20.246094 5.601562 20.273438 5.640625 20.285156 5.652344 L 20.449219 5.882812 C 20.488281 5.9375 20.5 5.902344 21.046875 5.519531 C 21.066406 5.503906 21.070312 5.472656 21.054688 5.453125 C 20.886719 5.214844 20.910156 5.242188 20.765625 5.058594 C 20.765625 5.058594 20.648438 4.90625 20.554688 4.789062 C 20.144531 4.3125 20.28125 4.464844 19.851562 4.015625 C 19.628906 3.804688 19.589844 3.742188 19.542969 3.789062 C 18.925781 4.449219 19.027344 4.210938 19.347656 4.570312 L 19.363281 4.582031 L 19.1875 4.75 C 19.121094 4.683594 18.835938 4.410156 18.742188 4.328125 L 19.558594 3.410156 C 20.007812 3.796875 20.839844 4.644531 21.425781 5.558594 L 20.398438 6.234375 C 20.351562 6.160156 20.113281 5.828125 20.042969 5.734375 Z M 2.855469 5.566406 C 3.296875 4.882812 3.984375 4.054688 4.71875 3.414062 L 5.535156 4.335938 C 5.453125 4.40625 5.15625 4.6875 5.089844 4.757812 L 4.917969 4.585938 C 5.132812 4.363281 5.234375 4.324219 5.179688 4.269531 C 4.738281 3.796875 4.714844 3.746094 4.667969 3.792969 C 4.035156 4.394531 3.601562 4.929688 3.222656 5.457031 C 3.207031 5.480469 3.210938 5.507812 3.234375 5.523438 C 3.949219 6.027344 3.730469 5.992188 4.046875 5.59375 L 4.238281 5.742188 C 4.183594 5.808594 3.9375 6.15625 3.882812 6.242188 Z M 19.335938 5.679688 L 20.273438 4.882812 C 20.375 5 20.648438 5.355469 20.6875 5.40625 L 20.492188 5.550781 C 20.453125 5.496094 20.492188 5.546875 20.261719 5.253906 C 20.21875 5.203125 20.203125 5.242188 19.6875 5.652344 C 19.609375 5.714844 19.804688 5.8125 20.152344 6.363281 C 20.449219 6.835938 20.261719 6.511719 20.503906 6.933594 C 20.753906 7.363281 20.726562 7.386719 20.777344 7.386719 C 20.796875 7.386719 21.363281 7.097656 21.378906 7.089844 C 21.402344 7.074219 21.414062 7.046875 21.402344 7.023438 C 21.390625 7.003906 21.28125 6.789062 21.269531 6.769531 L 21.226562 6.695312 L 21.4375 6.578125 C 21.523438 6.722656 21.710938 7.097656 21.742188 7.167969 L 20.628906 7.691406 C 20.378906 7.132812 19.863281 6.296875 19.335938 5.679688 Z M 2.539062 7.167969 C 2.578125 7.085938 2.785156 6.679688 2.84375 6.578125 L 3.058594 6.695312 C 3.039062 6.726562 2.867188 7.023438 2.878906 7.058594 C 2.890625 7.089844 2.878906 7.074219 3.484375 7.382812 C 3.558594 7.421875 3.527344 7.347656 3.90625 6.714844 C 4.582031 5.660156 4.667969 5.710938 4.59375 5.65625 C 4.082031 5.246094 4.0625 5.203125 4.019531 5.257812 C 3.789062 5.550781 3.835938 5.492188 3.792969 5.550781 L 3.597656 5.410156 C 3.640625 5.34375 3.910156 5.003906 4.007812 4.886719 L 4.945312 5.683594 C 4.414062 6.308594 3.898438 7.148438 3.652344 7.691406 Z M 21.613281 8.785156 C 21.601562 8.753906 21.472656 8.363281 21.410156 8.207031 L 21.636719 8.117188 C 21.691406 8.261719 21.667969 8.183594 21.757812 8.460938 C 21.785156 8.53125 21.835938 8.484375 22.4375 8.28125 C 22.449219 8.277344 22.457031 8.269531 22.464844 8.257812 C 22.476562 8.230469 22.460938 8.207031 22.40625 8.042969 C 22.304688 7.71875 21.988281 7.042969 21.972656 7.007812 C 21.835938 6.703125 21.566406 6.25 21.550781 6.214844 C 21.519531 6.164062 21.511719 6.183594 20.921875 6.527344 C 20.871094 6.558594 20.90625 6.59375 21.035156 6.816406 C 21.058594 6.859375 21.070312 6.875 21.085938 6.90625 L 20.871094 7.023438 C 20.855469 6.988281 20.660156 6.648438 20.5625 6.492188 L 21.601562 5.835938 C 22.117188 6.640625 22.59375 7.738281 22.789062 8.425781 Z M 1.496094 8.425781 C 1.683594 7.765625 2.140625 6.679688 2.679688 5.835938 L 3.722656 6.492188 C 3.628906 6.636719 3.429688 6.988281 3.414062 7.023438 L 3.199219 6.90625 C 3.332031 6.648438 3.429688 6.566406 3.363281 6.527344 C 2.773438 6.179688 2.765625 6.164062 2.734375 6.214844 C 2.25 7.058594 1.734375 8.242188 1.847656 8.28125 C 2.488281 8.5 2.503906 8.519531 2.523438 8.460938 C 2.617188 8.183594 2.59375 8.257812 2.648438 8.117188 L 2.871094 8.207031 C 2.816406 8.351562 2.679688 8.753906 2.671875 8.785156 Z M 20.75 7.953125 L 21.871094 7.453125 C 21.960938 7.648438 22.109375 8.035156 22.121094 8.066406 L 21.894531 8.148438 C 21.757812 7.773438 21.75 7.773438 21.714844 7.773438 C 21.699219 7.773438 21.109375 8.015625 21.09375 8.023438 C 21.035156 8.046875 21.070312 8.089844 21.179688 8.371094 C 21.199219 8.417969 21.183594 8.375 21.320312 8.78125 C 21.347656 8.855469 21.347656 8.855469 21.457031 9.238281 C 21.464844 9.269531 21.472656 9.300781 21.480469 9.332031 C 21.605469 9.871094 21.578125 9.746094 21.617188 9.953125 C 21.621094 9.976562 21.640625 9.992188 21.664062 9.992188 C 21.667969 9.992188 22.304688 9.875 22.3125 9.875 C 22.367188 9.863281 22.359375 9.828125 22.273438 9.453125 L 22.511719 9.402344 C 22.558594 9.617188 22.535156 9.492188 22.636719 10.054688 L 21.421875 10.238281 C 21.285156 9.476562 21.109375 8.746094 20.75 7.953125 Z M 1.648438 10.058594 C 1.75 9.476562 1.722656 9.621094 1.773438 9.40625 L 2.007812 9.457031 C 1.921875 9.832031 1.917969 9.867188 1.972656 9.878906 C 2.636719 10 2.65625 10.023438 2.667969 9.957031 C 2.785156 9.296875 2.960938 8.730469 3.214844 8.085938 C 3.238281 8.027344 3.222656 8.039062 2.589844 7.777344 C 2.535156 7.757812 2.523438 7.789062 2.390625 8.148438 L 2.160156 8.066406 C 2.175781 8.035156 2.324219 7.648438 2.414062 7.453125 L 3.535156 7.953125 C 3.199219 8.691406 3.003906 9.460938 2.863281 10.242188 Z M 22.023438 10.957031 L 22.265625 10.9375 C 22.265625 10.9375 22.28125 11.148438 22.28125 11.148438 C 22.300781 11.410156 22.167969 11.351562 22.988281 11.316406 C 23.011719 11.316406 23.03125 11.292969 23.03125 11.269531 L 23.03125 11.199219 C 23.03125 11.183594 23.03125 11.171875 23.027344 11.15625 C 23.027344 11.136719 22.988281 10.621094 22.988281 10.605469 C 22.984375 10.597656 22.917969 10.0625 22.917969 10.054688 C 22.800781 9.410156 22.847656 9.632812 22.71875 9.085938 C 22.714844 9.0625 22.695312 9.050781 22.675781 9.050781 C 22.664062 9.050781 22.039062 9.207031 22.03125 9.207031 C 22.007812 9.214844 21.992188 9.238281 21.996094 9.265625 L 22.078125 9.617188 L 21.839844 9.667969 C 21.722656 9.15625 21.753906 9.289062 21.695312 9.070312 L 22.878906 8.738281 C 23.097656 9.515625 23.25 10.355469 23.28125 11.554688 L 22.050781 11.570312 C 22.042969 11.152344 22.046875 11.273438 22.023438 10.957031 Z M 1.003906 11.566406 C 1.027344 10.613281 1.113281 9.765625 1.402344 8.746094 L 2.585938 9.078125 C 2.527344 9.292969 2.558594 9.171875 2.441406 9.675781 L 2.203125 9.625 C 2.285156 9.269531 2.3125 9.230469 2.25 9.214844 C 1.59375 9.050781 1.578125 9.03125 1.5625 9.09375 C 1.394531 9.8125 1.273438 10.515625 1.25 11.277344 C 1.25 11.300781 1.269531 11.324219 1.296875 11.324219 C 1.976562 11.351562 1.996094 11.371094 1.996094 11.304688 C 2 11.175781 1.996094 11.261719 2.019531 10.945312 L 2.261719 10.964844 C 2.234375 11.277344 2.242188 11.132812 2.230469 11.578125 Z M 21.460938 12.917969 C 21.550781 12.207031 21.574219 11.433594 21.460938 10.527344 L 22.679688 10.367188 C 22.726562 10.742188 22.703125 10.519531 22.742188 11.027344 L 22.5 11.042969 C 22.476562 10.695312 22.488281 10.621094 22.421875 10.628906 C 21.742188 10.699219 21.726562 10.683594 21.730469 10.746094 C 21.777344 11.347656 21.765625 11.125 21.78125 11.726562 C 21.765625 12.324219 21.777344 12.101562 21.730469 12.703125 C 21.726562 12.765625 21.742188 12.75 22.421875 12.816406 C 22.433594 12.820312 22.445312 12.816406 22.457031 12.808594 C 22.464844 12.800781 22.472656 12.789062 22.472656 12.773438 L 22.5 12.40625 L 22.742188 12.417969 C 22.707031 12.910156 22.726562 12.71875 22.679688 13.082031 Z M 1.539062 12.417969 L 1.78125 12.40625 C 1.808594 12.753906 1.796875 12.824219 1.863281 12.816406 C 2.542969 12.75 2.558594 12.765625 2.554688 12.703125 C 2.472656 11.632812 2.503906 11.390625 2.550781 10.75 C 2.558594 10.683594 2.542969 10.699219 1.863281 10.632812 C 1.792969 10.625 1.808594 10.699219 1.78125 11.046875 L 1.539062 11.03125 C 1.578125 10.554688 1.5625 10.695312 1.605469 10.371094 L 2.824219 10.53125 C 2.734375 11.242188 2.710938 12.03125 2.824219 12.917969 L 1.605469 13.082031 C 1.5625 12.75 1.578125 12.910156 1.539062 12.417969 Z M 21.695312 14.371094 C 21.757812 14.15625 21.726562 14.277344 21.84375 13.777344 L 22.078125 13.824219 C 21.996094 14.179688 21.972656 14.222656 22.03125 14.234375 C 22.042969 14.238281 22.664062 14.394531 22.675781 14.394531 C 22.695312 14.394531 22.714844 14.378906 22.722656 14.359375 C 22.757812 14.191406 22.851562 13.828125 22.921875 13.351562 C 22.964844 13.003906 23.003906 12.761719 23.03125 12.214844 C 23.03125 12.179688 23.039062 12.128906 22.988281 12.125 C 22.308594 12.097656 22.328125 12.089844 22.300781 12.113281 C 22.285156 12.128906 22.292969 12.113281 22.277344 12.351562 L 22.265625 12.507812 L 22.023438 12.488281 C 22.046875 12.1875 22.042969 12.308594 22.050781 11.875 L 23.28125 11.886719 C 23.257812 12.878906 23.152344 13.746094 22.878906 14.707031 Z M 1.003906 11.886719 L 2.230469 11.875 C 2.242188 12.308594 2.238281 12.175781 2.261719 12.488281 L 2.019531 12.507812 C 2.019531 12.507812 2.003906 12.300781 2.003906 12.300781 C 1.980469 12.03125 2.121094 12.09375 1.296875 12.125 C 1.238281 12.128906 1.253906 12.195312 1.253906 12.285156 C 1.304688 12.949219 1.285156 12.753906 1.34375 13.195312 C 1.414062 13.746094 1.511719 14.128906 1.5625 14.359375 C 1.578125 14.421875 1.601562 14.398438 2.25 14.234375 C 2.3125 14.222656 2.285156 14.179688 2.203125 13.824219 L 2.441406 13.777344 C 2.558594 14.285156 2.527344 14.15625 2.589844 14.371094 L 1.40625 14.707031 C 1.175781 13.902344 1.035156 13.113281 1.003906 11.886719 Z M 20.75 15.492188 C 21.144531 14.621094 21.300781 13.871094 21.421875 13.203125 L 22.636719 13.390625 C 22.539062 13.9375 22.5625 13.8125 22.511719 14.042969 L 22.277344 13.988281 C 22.324219 13.78125 22.308594 13.851562 22.347656 13.625 C 22.359375 13.5625 22.347656 13.574219 21.671875 13.449219 C 21.660156 13.449219 21.644531 13.453125 21.636719 13.457031 C 21.609375 13.476562 21.613281 13.5 21.59375 13.625 C 21.585938 13.660156 21.582031 13.675781 21.527344 13.917969 C 21.5 14.023438 21.480469 14.132812 21.457031 14.210938 C 21.339844 14.621094 21.351562 14.578125 21.332031 14.636719 C 21.167969 15.113281 21.210938 15 21.132812 15.203125 C 21.074219 15.347656 21.039062 15.398438 21.09375 15.421875 C 21.109375 15.425781 21.699219 15.667969 21.714844 15.667969 C 21.734375 15.667969 21.753906 15.65625 21.761719 15.640625 C 21.761719 15.632812 21.894531 15.300781 21.894531 15.292969 L 22.125 15.375 C 22.113281 15.410156 21.980469 15.753906 21.875 15.992188 Z M 2.160156 15.378906 L 2.390625 15.296875 C 2.527344 15.671875 2.535156 15.671875 2.570312 15.671875 C 2.585938 15.671875 3.175781 15.429688 3.191406 15.425781 C 3.25 15.398438 3.214844 15.359375 3.097656 15.058594 C 3.078125 15.011719 2.871094 14.417969 2.785156 14.035156 C 2.6875 13.613281 2.710938 13.742188 2.667969 13.488281 C 2.65625 13.425781 2.636719 13.445312 1.972656 13.570312 C 1.914062 13.582031 1.9375 13.644531 1.953125 13.730469 C 1.972656 13.828125 1.96875 13.8125 2.007812 13.988281 L 1.773438 14.042969 C 1.722656 13.832031 1.75 13.957031 1.648438 13.390625 L 2.863281 13.203125 C 2.992188 13.921875 3.179688 14.707031 3.535156 15.496094 L 2.414062 15.996094 C 2.320312 15.789062 2.175781 15.414062 2.160156 15.378906 Z M 20.5625 16.953125 C 20.660156 16.804688 20.855469 16.457031 20.875 16.421875 L 21.085938 16.535156 C 21.070312 16.570312 21.085938 16.539062 20.90625 16.851562 C 20.894531 16.875 20.902344 16.902344 20.925781 16.917969 L 21.484375 17.246094 C 21.492188 17.25 21.5 17.25 21.511719 17.25 C 21.515625 17.25 21.519531 17.25 21.523438 17.25 C 21.535156 17.246094 21.542969 17.238281 21.550781 17.226562 L 21.644531 17.0625 C 21.65625 17.046875 21.664062 17.03125 21.675781 17.011719 C 21.695312 16.976562 21.71875 16.9375 21.742188 16.894531 L 21.96875 16.449219 L 22.027344 16.320312 L 22.152344 16.039062 C 22.15625 16.03125 22.160156 16.023438 22.164062 16.015625 C 22.175781 15.996094 22.1875 15.96875 22.195312 15.941406 L 22.371094 15.496094 C 22.386719 15.464844 22.394531 15.429688 22.40625 15.402344 C 22.410156 15.386719 22.414062 15.371094 22.421875 15.359375 C 22.464844 15.234375 22.476562 15.214844 22.464844 15.1875 C 22.449219 15.15625 22.464844 15.171875 21.820312 14.953125 C 21.808594 14.949219 21.796875 14.949219 21.785156 14.957031 C 21.753906 14.96875 21.757812 14.992188 21.683594 15.214844 L 21.640625 15.324219 L 21.414062 15.238281 C 21.472656 15.085938 21.605469 14.691406 21.613281 14.660156 L 22.789062 15.015625 C 22.660156 15.46875 22.230469 16.628906 21.605469 17.605469 Z M 1.496094 15.023438 L 2.671875 14.664062 C 2.683594 14.699219 2.8125 15.085938 2.875 15.246094 L 2.648438 15.332031 C 2.609375 15.238281 2.601562 15.21875 2.59375 15.1875 C 2.53125 15 2.53125 14.976562 2.503906 14.964844 C 2.492188 14.957031 2.476562 14.957031 2.464844 14.960938 C 1.828125 15.175781 1.800781 15.167969 1.820312 15.230469 C 2.074219 15.976562 2.347656 16.554688 2.738281 17.234375 C 2.765625 17.289062 2.773438 17.269531 3.363281 16.921875 C 3.417969 16.890625 3.378906 16.855469 3.25 16.632812 C 3.226562 16.589844 3.214844 16.570312 3.199219 16.542969 L 3.414062 16.429688 C 3.429688 16.460938 3.628906 16.808594 3.722656 16.957031 L 2.683594 17.613281 C 2.339844 17.074219 1.773438 16.003906 1.496094 15.023438 Z M 19.335938 17.765625 C 19.917969 17.082031 20.425781 16.207031 20.628906 15.757812 L 21.742188 16.28125 C 21.714844 16.339844 21.53125 16.710938 21.4375 16.871094 L 21.226562 16.753906 C 21.246094 16.71875 21.414062 16.425781 21.402344 16.386719 C 21.394531 16.355469 21.40625 16.371094 20.800781 16.066406 C 20.738281 16.035156 20.757812 16.066406 20.457031 16.597656 C 20.367188 16.753906 20.152344 17.089844 20.128906 17.121094 C 19.679688 17.753906 19.628906 17.75 19.6875 17.792969 C 20.203125 18.203125 20.21875 18.246094 20.261719 18.191406 C 20.449219 17.953125 20.460938 17.941406 20.480469 17.910156 L 20.492188 17.898438 L 20.6875 18.042969 C 20.652344 18.089844 20.371094 18.449219 20.273438 18.5625 Z M 3.597656 18.042969 L 3.792969 17.898438 C 3.832031 17.953125 3.789062 17.898438 4.023438 18.191406 C 4.0625 18.246094 4.082031 18.207031 4.597656 17.792969 C 4.671875 17.734375 4.5625 17.753906 3.90625 16.730469 C 3.890625 16.710938 3.671875 16.328125 3.664062 16.308594 C 3.542969 16.078125 3.546875 16.0625 3.507812 16.0625 C 3.488281 16.0625 2.921875 16.355469 2.90625 16.363281 C 2.882812 16.375 2.871094 16.402344 2.886719 16.425781 C 2.894531 16.449219 3.007812 16.664062 3.015625 16.683594 L 3.058594 16.757812 L 2.847656 16.875 C 2.75 16.703125 2.5625 16.328125 2.542969 16.285156 L 3.65625 15.761719 C 3.941406 16.398438 4.488281 17.230469 4.949219 17.765625 L 4.011719 18.5625 C 3.898438 18.433594 3.644531 18.105469 3.597656 18.042969 Z M 18.746094 19.117188 C 18.839844 19.035156 19.125 18.761719 19.191406 18.691406 L 19.363281 18.863281 C 19.332031 18.894531 19.335938 18.894531 19.277344 18.949219 C 19.109375 19.109375 19.058594 19.136719 19.101562 19.183594 C 19.566406 19.675781 19.546875 19.667969 19.582031 19.671875 C 19.59375 19.671875 19.605469 19.664062 19.613281 19.65625 C 19.617188 19.65625 19.792969 19.488281 19.792969 19.488281 C 19.859375 19.425781 19.816406 19.46875 20.199219 19.066406 C 20.246094 19.015625 20.289062 18.964844 20.328125 18.921875 C 20.570312 18.640625 20.546875 18.667969 20.59375 18.605469 C 20.933594 18.175781 20.835938 18.304688 21.058594 17.992188 C 21.074219 17.96875 21.070312 17.941406 21.046875 17.925781 C 21.027344 17.910156 20.511719 17.542969 20.488281 17.542969 C 20.453125 17.542969 20.460938 17.546875 20.285156 17.792969 C 20.277344 17.804688 20.246094 17.84375 20.238281 17.855469 L 20.042969 17.710938 C 20.097656 17.640625 20.34375 17.296875 20.398438 17.207031 L 21.425781 17.886719 C 21 18.546875 20.253906 19.433594 19.5625 20.035156 Z M 2.859375 17.886719 L 3.882812 17.207031 C 3.933594 17.289062 4.175781 17.628906 4.242188 17.710938 L 4.046875 17.855469 C 3.863281 17.621094 3.84375 17.542969 3.796875 17.542969 C 3.769531 17.542969 3.257812 17.910156 3.238281 17.925781 C 3.183594 17.964844 3.207031 17.992188 3.726562 18.652344 C 3.796875 18.734375 4.617188 19.671875 4.703125 19.671875 C 4.734375 19.667969 4.714844 19.675781 5.183594 19.183594 C 5.234375 19.125 5.136719 19.089844 4.917969 18.863281 L 5.09375 18.691406 C 5.128906 18.730469 5.429688 19.023438 5.539062 19.117188 L 4.722656 20.035156 C 4.105469 19.503906 3.328125 18.617188 2.859375 17.886719 Z M 17.34375 19.546875 C 17.851562 19.222656 18.585938 18.613281 19.148438 17.984375 L 20.070312 18.796875 C 19.976562 18.902344 19.683594 19.210938 19.609375 19.28125 L 19.441406 19.109375 C 19.46875 19.082031 19.714844 18.84375 19.714844 18.804688 C 19.710938 18.773438 19.71875 18.792969 19.226562 18.328125 C 19.207031 18.308594 19.175781 18.308594 19.15625 18.328125 C 18.859375 18.644531 18.628906 18.855469 18.578125 18.898438 C 18.574219 18.898438 18.273438 19.160156 18.269531 19.164062 C 18.046875 19.339844 18.09375 19.300781 18.027344 19.351562 C 17.871094 19.476562 17.898438 19.453125 17.683594 19.605469 C 17.632812 19.644531 17.652344 19.644531 18.046875 20.203125 C 18.054688 20.21875 18.070312 20.226562 18.085938 20.226562 C 18.117188 20.226562 18.378906 20.027344 18.414062 19.996094 L 18.5625 20.191406 C 18.453125 20.277344 18.105469 20.519531 18.019531 20.574219 Z M 5.726562 20.191406 L 5.871094 20 C 6.183594 20.246094 6.210938 20.246094 6.238281 20.207031 C 6.632812 19.648438 6.65625 19.648438 6.601562 19.609375 C 6.222656 19.339844 6.5 19.539062 6.042969 19.1875 C 6.011719 19.160156 5.597656 18.824219 5.125 18.328125 C 5.109375 18.308594 5.078125 18.308594 5.058594 18.328125 C 4.566406 18.792969 4.570312 18.773438 4.570312 18.804688 C 4.570312 18.839844 4.589844 18.847656 4.753906 19.019531 C 4.8125 19.078125 4.808594 19.074219 4.84375 19.109375 L 4.671875 19.28125 C 4.605469 19.214844 4.3125 18.910156 4.214844 18.796875 L 5.136719 17.984375 C 5.679688 18.59375 6.382812 19.1875 6.941406 19.550781 L 6.265625 20.578125 C 6.160156 20.507812 5.824219 20.269531 5.726562 20.191406 Z M 16.402344 20.679688 C 16.445312 20.660156 16.824219 20.464844 16.945312 20.394531 L 17.0625 20.605469 C 16.785156 20.765625 16.6875 20.773438 16.722656 20.839844 C 17.015625 21.417969 17.019531 21.472656 17.082031 21.441406 C 17.195312 21.382812 17.40625 21.28125 17.808594 21.039062 C 17.851562 21.011719 19.019531 20.277344 18.941406 20.179688 C 18.507812 19.632812 18.535156 19.652344 18.5 19.652344 C 18.472656 19.652344 18.472656 19.664062 18.308594 19.792969 C 18.25 19.835938 18.25 19.839844 18.183594 19.886719 L 18.039062 19.691406 C 18.074219 19.671875 18.398438 19.414062 18.519531 19.308594 L 19.316406 20.246094 C 18.671875 20.804688 17.671875 21.449219 16.925781 21.789062 Z M 4.972656 20.253906 L 5.769531 19.316406 C 5.867188 19.398438 6.171875 19.640625 6.25 19.695312 L 6.105469 19.890625 C 5.851562 19.710938 5.800781 19.617188 5.753906 19.675781 C 5.328125 20.207031 5.332031 20.1875 5.335938 20.21875 C 5.34375 20.289062 6.253906 20.910156 6.515625 21.0625 C 7.195312 21.453125 7.242188 21.480469 7.273438 21.425781 C 7.585938 20.8125 7.605469 20.808594 7.546875 20.78125 C 7.253906 20.628906 7.316406 20.664062 7.226562 20.609375 L 7.34375 20.398438 C 7.457031 20.464844 7.824219 20.652344 7.890625 20.679688 L 7.367188 21.792969 C 6.71875 21.5 5.703125 20.882812 4.972656 20.253906 Z M 14.929688 20.699219 C 15.679688 20.476562 16.550781 20.058594 17.101562 19.703125 L 17.753906 20.746094 C 17.597656 20.847656 17.214844 21.0625 17.179688 21.082031 L 17.066406 20.867188 C 17.09375 20.851562 17.402344 20.6875 17.410156 20.652344 C 17.421875 20.621094 17.421875 20.644531 17.078125 20.058594 C 17.066406 20.035156 17.035156 20.027344 17.011719 20.039062 C 16.574219 20.292969 16.851562 20.136719 16.375 20.386719 C 16.070312 20.542969 15.59375 20.722656 15.449219 20.777344 C 15.246094 20.847656 15.222656 20.847656 15.210938 20.875 C 15.195312 20.90625 15.199219 20.882812 15.417969 21.527344 C 15.4375 21.585938 15.480469 21.554688 15.710938 21.476562 L 15.828125 21.433594 L 15.914062 21.660156 C 15.757812 21.71875 15.320312 21.867188 15.285156 21.875 Z M 9 21.875 C 8.964844 21.867188 8.550781 21.730469 8.371094 21.660156 L 8.457031 21.433594 C 8.8125 21.574219 8.851562 21.582031 8.867188 21.527344 C 9.125 20.769531 9.148438 20.886719 8.917969 20.808594 C 8.84375 20.785156 8.777344 20.757812 8.484375 20.640625 C 8.4375 20.625 8.390625 20.605469 8.355469 20.589844 C 7.882812 20.375 8.015625 20.441406 7.746094 20.300781 C 7.546875 20.199219 7.558594 20.207031 7.46875 20.152344 C 7.457031 20.144531 7.289062 20.050781 7.273438 20.042969 C 7.25 20.027344 7.222656 20.035156 7.210938 20.058594 C 6.867188 20.644531 6.867188 20.625 6.875 20.65625 C 6.882812 20.6875 7.191406 20.855469 7.222656 20.867188 L 7.105469 21.082031 C 7.074219 21.066406 6.6875 20.847656 6.53125 20.746094 L 7.1875 19.707031 C 7.839844 20.125 8.75 20.519531 9.355469 20.699219 Z M 12.289062 21.117188 C 13.058594 21.097656 13.8125 21.015625 14.652344 20.777344 L 14.984375 21.960938 C 14.761719 22.027344 14.886719 21.996094 14.339844 22.121094 L 14.292969 21.882812 C 14.660156 21.796875 14.667969 21.804688 14.683594 21.777344 C 14.699219 21.75 14.695312 21.769531 14.53125 21.109375 C 14.515625 21.039062 14.507812 21.089844 13.613281 21.25 C 13.019531 21.328125 13.242188 21.304688 12.640625 21.347656 C 12.628906 21.351562 12.558594 21.351562 12.546875 21.351562 C 12.519531 21.351562 12.496094 21.375 12.5 21.402344 C 12.527344 22.078125 12.511719 22.097656 12.574219 22.097656 C 12.648438 22.097656 12.703125 22.09375 12.734375 22.089844 C 12.75 22.089844 12.769531 22.085938 12.785156 22.085938 L 12.945312 22.074219 L 12.964844 22.316406 C 12.605469 22.34375 12.742188 22.335938 12.300781 22.347656 Z M 11.324219 22.316406 L 11.34375 22.074219 C 11.71875 22.101562 11.761719 22.113281 11.761719 22.050781 C 11.792969 21.277344 11.839844 21.355469 11.652344 21.351562 C 11.617188 21.347656 11.257812 21.324219 10.921875 21.28125 C 10.796875 21.265625 10.507812 21.238281 9.960938 21.109375 C 9.949219 21.109375 9.808594 21.074219 9.796875 21.074219 C 9.746094 21.074219 9.761719 21.070312 9.597656 21.742188 C 9.589844 21.769531 9.605469 21.792969 9.632812 21.800781 L 9.992188 21.882812 L 9.945312 22.121094 C 9.414062 22 9.539062 22.03125 9.296875 21.960938 L 9.632812 20.777344 C 10.414062 21 11.15625 21.09375 12 21.117188 L 11.984375 22.347656 C 11.542969 22.335938 11.664062 22.339844 11.324219 22.316406 Z M 13.703125 21.515625 C 14.207031 21.425781 14.089844 21.449219 14.304688 21.398438 L 14.359375 21.632812 C 14.003906 21.714844 13.953125 21.695312 13.964844 21.761719 C 14.089844 22.441406 14.074219 22.441406 14.128906 22.441406 C 14.136719 22.441406 14.320312 22.40625 14.324219 22.40625 C 14.417969 22.386719 14.496094 22.367188 14.84375 22.289062 C 14.882812 22.277344 14.917969 22.265625 14.949219 22.257812 C 15.371094 22.136719 15.554688 22.09375 16.253906 21.820312 C 16.28125 21.808594 16.292969 21.78125 16.28125 21.757812 C 16.019531 21.117188 16.039062 21.125 15.992188 21.125 C 15.976562 21.125 15.664062 21.25 15.652344 21.257812 C 15.644531 21.257812 15.640625 21.261719 15.636719 21.261719 L 15.554688 21.035156 C 15.589844 21.023438 15.953125 20.882812 16.121094 20.804688 L 16.621094 21.925781 C 15.695312 22.34375 14.84375 22.558594 13.890625 22.730469 Z M 7.660156 21.925781 L 8.160156 20.804688 C 8.328125 20.878906 8.695312 21.023438 8.730469 21.035156 L 8.648438 21.261719 C 8.632812 21.257812 8.304688 21.125 8.292969 21.125 C 8.246094 21.125 8.261719 21.117188 8.003906 21.757812 C 7.992188 21.78125 8.003906 21.808594 8.027344 21.820312 C 8.457031 21.988281 8.328125 21.941406 8.628906 22.042969 C 8.863281 22.121094 8.878906 22.128906 8.90625 22.136719 C 9.578125 22.328125 9.347656 22.265625 9.699219 22.347656 C 9.730469 22.355469 10.097656 22.441406 10.152344 22.441406 C 10.207031 22.441406 10.195312 22.441406 10.320312 21.761719 C 10.324219 21.734375 10.308594 21.710938 10.28125 21.707031 C 10.058594 21.667969 10.128906 21.679688 9.925781 21.632812 L 9.980469 21.398438 C 10.195312 21.449219 10.066406 21.421875 10.582031 21.515625 L 10.394531 22.730469 C 9.539062 22.578125 8.660156 22.375 7.660156 21.925781 Z M 10.722656 22.773438 L 10.882812 21.554688 C 11.183594 21.59375 11.042969 21.578125 11.496094 21.613281 L 11.480469 21.855469 C 11.476562 21.855469 11.117188 21.828125 11.113281 21.828125 C 11.054688 21.828125 11.070312 21.828125 11 22.519531 C 11 22.542969 11.019531 22.566406 11.046875 22.570312 C 11.046875 22.570312 11.492188 22.605469 11.492188 22.605469 C 11.90625 22.636719 12.425781 22.617188 12.625 22.613281 C 12.65625 22.613281 13.253906 22.582031 13.28125 22.554688 C 13.300781 22.527344 13.292969 22.546875 13.226562 21.871094 C 13.222656 21.84375 13.199219 21.824219 13.175781 21.828125 L 12.8125 21.855469 L 12.796875 21.613281 C 13.230469 21.582031 13.089844 21.59375 13.40625 21.554688 L 13.570312 22.773438 C 12.640625 22.890625 11.746094 22.902344 10.722656 22.773438 " fill-opacity="1" fill-rule="evenodd"/></g></svg>