<svg xmlns="http://www.w3.org/2000/svg" xmlns:xlink="http://www.w3.org/1999/xlink" width="48" zoomAndPan="magnify" viewBox="0 0 24 29" height="56" preserveAspectRatio="xMidYMid meet" version="1.0"><defs><clipPath id="67450c71b0"><path d="M 10 3 L 14 3 L 14 25.640625 L 10 25.640625 Z M 10 3 " clip-rule="nonzero"/></clipPath><clipPath id="ad4cfd989c"><path d="M 0.417969 7 L 23.859375 7 L 23.859375 25.640625 L 0.417969 25.640625 Z M 0.417969 7 " clip-rule="nonzero"/></clipPath><clipPath id="4090f661ff"><path d="M 2 7 L 23.859375 7 L 23.859375 25.640625 L 2 25.640625 Z M 2 7 " clip-rule="nonzero"/></clipPath></defs><g clip-path="url(#67450c71b0)"><path fill="#564937" d="M 11.964844 8.390625 L 12.496094 8.292969 C 12.640625 8.269531 12.746094 8.144531 12.75 8 C 12.785156 7.179688 12.800781 6.355469 12.671875 5.546875 C 12.542969 4.765625 12.265625 3.984375 11.769531 3.371094 C 11.667969 3.242188 11.472656 3.230469 11.355469 3.347656 C 11.207031 3.496094 11.046875 3.625 10.871094 3.742188 C 10.644531 3.890625 10.589844 4.207031 10.757812 4.421875 C 11.558594 5.433594 11.894531 6.800781 11.652344 8.070312 C 11.617188 8.257812 11.777344 8.421875 11.964844 8.390625 Z M 13.058594 25.269531 C 13.167969 25.382812 13.101562 25.570312 12.949219 25.589844 C 12.878906 25.601562 12.777344 25.578125 12.6875 25.550781 C 12.5625 25.515625 12.429688 25.527344 12.320312 25.585938 C 12.265625 25.617188 12.207031 25.640625 12.140625 25.640625 C 12.082031 25.640625 12.007812 25.613281 11.941406 25.582031 C 11.832031 25.53125 11.710938 25.523438 11.597656 25.554688 C 11.503906 25.578125 11.402344 25.601562 11.328125 25.589844 C 11.175781 25.570312 11.109375 25.382812 11.21875 25.269531 C 11.402344 25.089844 11.570312 24.894531 11.722656 24.699219 C 11.933594 24.425781 12.347656 24.425781 12.554688 24.699219 C 12.707031 24.894531 12.875 25.089844 13.058594 25.269531 " fill-opacity="1" fill-rule="nonzero"/></g><path fill="#87c227" d="M 13.101562 6.335938 C 12.972656 4.714844 13.550781 3.050781 14.65625 1.863281 C 15.699219 0.742188 17.199219 0.0625 18.722656 0.00390625 C 18.875 0 19.003906 0.113281 19.023438 0.261719 C 19.207031 1.742188 19.328125 3.304688 18.636719 4.613281 C 18.140625 5.550781 17.257812 6.25 16.273438 6.636719 C 15.390625 6.984375 14.425781 7.09375 13.476562 7.050781 C 13.292969 7.042969 13.144531 6.894531 13.128906 6.710938 L 13.101562 6.335938 " fill-opacity="1" fill-rule="nonzero"/><path fill="#7f9f26" d="M 18.636719 4.613281 C 18.140625 5.550781 17.257812 6.25 16.273438 6.636719 C 15.390625 6.984375 14.425781 7.09375 13.476562 7.050781 C 13.40625 7.046875 13.34375 7.023438 13.292969 6.992188 C 17.714844 4.089844 17.65625 2.269531 18.871094 0.0390625 C 18.953125 0.0859375 19.011719 0.164062 19.023438 0.261719 C 19.207031 1.742188 19.328125 3.304688 18.636719 4.613281 " fill-opacity="1" fill-rule="nonzero"/><g clip-path="url(#ad4cfd989c)"><path fill="#d71e29" d="M 12.140625 22.277344 C 8.730469 22.277344 5.96875 19.5 5.96875 16.074219 C 5.96875 12.652344 8.730469 9.875 12.140625 9.875 C 15.546875 9.875 18.308594 12.652344 18.308594 16.074219 C 18.308594 19.5 15.546875 22.277344 12.140625 22.277344 Z M 23.25 11.933594 C 22.644531 9.746094 20.976562 7.785156 18.789062 7.234375 C 17.175781 6.828125 15.496094 7.195312 13.882812 7.675781 C 13.316406 7.84375 12.730469 7.929688 12.140625 7.929688 C 11.546875 7.929688 10.960938 7.84375 10.394531 7.675781 C 8.78125 7.195312 7.101562 6.828125 5.488281 7.234375 C 3.300781 7.785156 1.632812 9.746094 1.027344 11.933594 C 0.421875 14.117188 0.757812 16.476562 1.542969 18.605469 C 2.539062 21.308594 4.4375 23.871094 7.171875 24.742188 C 8.769531 25.25 10.464844 25.132812 12.140625 24.851562 C 13.8125 25.132812 15.507812 25.25 17.105469 24.742188 C 19.839844 23.871094 21.738281 21.308594 22.734375 18.605469 C 23.519531 16.476562 23.855469 14.117188 23.25 11.933594 " fill-opacity="1" fill-rule="nonzero"/></g><g clip-path="url(#4090f661ff)"><path fill="#c11c2d" d="M 22.734375 18.605469 C 21.738281 21.308594 19.839844 23.871094 17.105469 24.742188 C 15.507812 25.25 13.8125 25.132812 12.140625 24.851562 C 10.464844 25.132812 8.769531 25.25 7.171875 24.742188 C 5.265625 24.136719 3.761719 22.699219 2.691406 20.96875 C 4.515625 21.019531 6.339844 21.007812 8.144531 20.804688 C 9.222656 21.722656 10.617188 22.277344 12.140625 22.277344 C 15.546875 22.277344 18.308594 19.5 18.308594 16.074219 C 18.308594 16.035156 18.308594 15.992188 18.308594 15.953125 C 19.976562 13.792969 20.875 10.53125 20.25 7.847656 C 21.707031 8.730469 22.789062 10.265625 23.25 11.933594 C 23.855469 14.117188 23.519531 16.476562 22.734375 18.605469 " fill-opacity="1" fill-rule="nonzero"/></g><path fill="#ffffff" d="M 6.652344 9.3125 C 5.691406 10.085938 4.859375 11 4.28125 12.089844 C 3.773438 13.042969 3.472656 14.089844 3.144531 15.121094 C 3.117188 15.214844 3.085938 15.304688 3.054688 15.398438 C 3.027344 15.480469 2.914062 15.484375 2.882812 15.40625 C 2.8125 15.230469 2.753906 15.050781 2.710938 14.867188 C 2.429688 13.734375 2.585938 12.503906 3.132812 11.46875 C 3.644531 10.503906 4.535156 9.710938 5.589844 9.410156 C 5.9375 9.320312 6.292969 9.261719 6.652344 9.3125 " fill-opacity="1" fill-rule="nonzero"/></svg>