<svg xmlns="http://www.w3.org/2000/svg" xmlns:xlink="http://www.w3.org/1999/xlink" width="48" zoomAndPan="magnify" viewBox="0 0 24 29" height="56" preserveAspectRatio="xMidYMid meet" version="1.0"><defs><clipPath id="f66cc9662f"><path d="M 0.417969 0 L 23.859375 0 L 23.859375 20.511719 L 0.417969 20.511719 Z M 0.417969 0 " clip-rule="nonzero"/></clipPath></defs><g clip-path="url(#f66cc9662f)"><path fill="#7ec7f8" d="M 23.855469 1.402344 C 23.839844 1.347656 23.777344 1.332031 23.726562 1.320312 L 22.582031 1.085938 C 22.472656 1.066406 22.355469 1.035156 22.296875 0.945312 C 22.246094 0.863281 22.257812 0.757812 22.273438 0.664062 L 22.34375 0.183594 C 22.351562 0.132812 22.335938 0.0859375 22.296875 0.0507812 C 22.257812 0.0117188 22.214844 0 22.160156 0.0117188 C 20.300781 0.4375 18.613281 1.230469 17.09375 2.386719 C 15.519531 1.675781 13.867188 1.320312 12.140625 1.320312 C 10.414062 1.320312 8.765625 1.675781 7.191406 2.386719 C 5.671875 1.230469 3.980469 0.4375 2.121094 0.0117188 C 2.070312 0 2.027344 0.0117188 1.988281 0.046875 C 1.949219 0.0859375 1.933594 0.128906 1.941406 0.183594 L 2.007812 0.660156 C 2.023438 0.757812 2.035156 0.859375 1.984375 0.941406 C 1.925781 1.035156 1.808594 1.0625 1.703125 1.085938 L 0.554688 1.320312 C 0.503906 1.328125 0.441406 1.347656 0.425781 1.398438 C 0.417969 1.4375 0.425781 1.472656 0.449219 1.507812 C 1.191406 3.101562 1.933594 4.695312 2.675781 6.285156 C 1.785156 7.699219 1.339844 9.246094 1.335938 10.917969 C 1.339844 16.21875 6.175781 20.511719 12.140625 20.511719 C 18.109375 20.511719 22.945312 16.214844 22.945312 10.917969 C 22.941406 9.246094 22.496094 7.699219 21.605469 6.285156 C 22.347656 4.695312 23.09375 3.101562 23.835938 1.507812 C 23.855469 1.472656 23.863281 1.4375 23.855469 1.402344 Z M 23.855469 1.402344 " fill-opacity="1" fill-rule="nonzero"/></g><path fill="#ffffff" d="M 2.835938 2.9375 C 2.980469 3.25 3.285156 3.949219 3.710938 4.917969 C 4.351562 4.214844 5.070312 3.613281 5.871094 3.105469 C 5.597656 2.925781 5.378906 2.777344 5.21875 2.667969 C 5.21875 2.667969 4.15625 1.953125 3.125 1.75 C 2.980469 1.722656 2.820312 1.710938 2.726562 1.804688 C 2.6875 1.84375 2.636719 1.921875 2.671875 2.25 C 2.695312 2.488281 2.75 2.71875 2.835938 2.9375 Z M 2.835938 2.9375 " fill-opacity="1" fill-rule="nonzero"/><path fill="#ffffff" d="M 20.570312 4.917969 C 21 3.949219 21.304688 3.25 21.449219 2.941406 C 21.535156 2.71875 21.589844 2.488281 21.617188 2.25 C 21.652344 1.921875 21.597656 1.839844 21.5625 1.804688 C 21.46875 1.710938 21.304688 1.722656 21.160156 1.75 C 20.128906 1.949219 19.066406 2.667969 19.066406 2.667969 C 18.910156 2.773438 18.691406 2.921875 18.414062 3.105469 C 19.214844 3.613281 19.933594 4.214844 20.570312 4.917969 Z M 20.570312 4.917969 " fill-opacity="1" fill-rule="nonzero"/><path fill="#ffffff" d="M 21.128906 10.917969 C 21.128906 11.441406 21.070312 11.960938 20.953125 12.476562 C 20.839844 12.988281 20.667969 13.488281 20.441406 13.972656 C 20.21875 14.457031 19.941406 14.914062 19.613281 15.351562 C 19.285156 15.789062 18.914062 16.191406 18.496094 16.5625 C 18.078125 16.929688 17.625 17.261719 17.132812 17.554688 C 16.644531 17.84375 16.125 18.089844 15.582031 18.289062 C 15.035156 18.492188 14.472656 18.640625 13.894531 18.746094 C 13.316406 18.847656 12.730469 18.898438 12.140625 18.898438 C 11.550781 18.898438 10.96875 18.847656 10.390625 18.746094 C 9.8125 18.640625 9.25 18.492188 8.703125 18.289062 C 8.160156 18.089844 7.640625 17.84375 7.148438 17.554688 C 6.660156 17.261719 6.207031 16.929688 5.789062 16.5625 C 5.371094 16.191406 5 15.789062 4.671875 15.351562 C 4.34375 14.914062 4.066406 14.457031 3.839844 13.972656 C 3.617188 13.488281 3.445312 12.988281 3.328125 12.476562 C 3.214844 11.960938 3.15625 11.441406 3.15625 10.917969 C 3.15625 10.394531 3.214844 9.875 3.328125 9.363281 C 3.445312 8.847656 3.617188 8.347656 3.839844 7.867188 C 4.066406 7.382812 4.34375 6.921875 4.671875 6.484375 C 5 6.050781 5.371094 5.648438 5.789062 5.277344 C 6.207031 4.90625 6.660156 4.574219 7.148438 4.285156 C 7.640625 3.992188 8.160156 3.746094 8.703125 3.546875 C 9.25 3.347656 9.8125 3.195312 10.390625 3.09375 C 10.96875 2.992188 11.550781 2.941406 12.140625 2.941406 C 12.730469 2.941406 13.316406 2.992188 13.894531 3.09375 C 14.472656 3.195312 15.035156 3.347656 15.582031 3.546875 C 16.125 3.746094 16.644531 3.992188 17.132812 4.285156 C 17.625 4.574219 18.078125 4.90625 18.496094 5.277344 C 18.914062 5.648438 19.285156 6.050781 19.613281 6.484375 C 19.941406 6.921875 20.21875 7.382812 20.441406 7.867188 C 20.667969 8.347656 20.839844 8.847656 20.953125 9.363281 C 21.070312 9.875 21.128906 10.394531 21.128906 10.917969 Z M 21.128906 10.917969 " fill-opacity="1" fill-rule="nonzero"/></svg>