<svg xmlns="http://www.w3.org/2000/svg" xmlns:xlink="http://www.w3.org/1999/xlink" width="48" zoomAndPan="magnify" viewBox="0 0 24 29" height="56" preserveAspectRatio="xMidYMid meet" version="1.0"><defs><clipPath id="3e5c6b4547"><path d="M 0.417969 0 L 23.859375 0 L 23.859375 23.441406 L 0.417969 23.441406 Z M 0.417969 0 " clip-rule="nonzero"/></clipPath></defs><path fill="#51ade5" d="M 18.664062 10.261719 C 18.425781 12.183594 17.769531 14.097656 16.816406 15.65625 C 16.695312 15.851562 16.574219 16.039062 16.457031 16.214844 C 15.199219 18.105469 14.453125 18.3125 14.292969 18.335938 C 14.1875 18.265625 13.898438 18.023438 13.664062 17.363281 C 13.546875 17.023438 13.460938 16.667969 13.382812 16.351562 C 13.308594 16.039062 13.238281 15.738281 13.140625 15.492188 C 12.878906 14.828125 12.449219 14.6875 12.136719 14.6875 C 11.851562 14.6875 11.453125 14.804688 11.191406 15.371094 C 11.0625 15.640625 10.984375 15.972656 10.890625 16.351562 C 10.816406 16.667969 10.730469 17.023438 10.613281 17.363281 C 10.378906 18.023438 10.089844 18.265625 9.984375 18.335938 C 9.808594 18.3125 8.9375 18.066406 7.460938 15.65625 C 7.265625 15.335938 7.078125 14.992188 6.902344 14.628906 C 6.183594 13.15625 5.707031 11.441406 5.5625 9.804688 C 5.441406 8.4375 5.558594 7.179688 5.886719 6.359375 C 6.199219 5.566406 6.695312 5.171875 7.445312 5.109375 C 7.511719 5.105469 7.578125 5.101562 7.644531 5.101562 C 8.011719 5.101562 8.367188 5.1875 8.734375 5.367188 C 9.078125 5.539062 9.429688 5.726562 9.765625 5.90625 C 9.9375 6 10.113281 6.109375 10.300781 6.191406 C 14.460938 8.027344 17.269531 7.015625 17.269531 7.015625 C 16.714844 6.867188 14.425781 6.15625 14.03125 5.769531 C 14.296875 5.699219 14.558594 5.613281 14.808594 5.515625 C 15.511719 5.242188 16.121094 5.101562 16.625 5.101562 C 17.488281 5.101562 18.050781 5.5 18.390625 6.359375 C 18.761719 7.285156 18.859375 8.707031 18.664062 10.261719 Z M 18.921875 6.148438 C 18.082031 4.03125 16.089844 4.402344 14.597656 4.984375 C 14.257812 5.117188 13.929688 5.214844 13.632812 5.28125 C 11.75 5.878906 15.375 6.847656 15.375 6.847656 C 15.328125 6.84375 15.285156 6.839844 15.234375 6.839844 C 13.054688 6.75 11.519531 6.191406 10.566406 5.6875 C 10.039062 5.410156 9.519531 5.121094 8.988281 4.859375 C 8.480469 4.609375 7.96875 4.496094 7.398438 4.542969 C 6.558594 4.609375 5.796875 5.035156 5.355469 6.148438 C 4.992188 7.058594 4.863281 8.378906 4.992188 9.855469 C 5.136719 11.453125 5.585938 13.234375 6.390625 14.878906 C 6.566406 15.246094 6.761719 15.605469 6.972656 15.953125 C 9.03125 19.3125 10.148438 18.890625 10.148438 18.890625 C 10.148438 18.890625 10.746094 18.699219 11.152344 17.550781 C 11.554688 16.402344 11.554688 15.257812 12.136719 15.257812 C 12.363281 15.257812 12.5 15.425781 12.609375 15.699219 C 12.78125 16.140625 12.878906 16.84375 13.125 17.550781 C 13.53125 18.699219 14.128906 18.890625 14.128906 18.890625 C 14.128906 18.890625 15.113281 19.261719 16.933594 16.53125 C 17.054688 16.351562 17.175781 16.160156 17.304688 15.953125 C 18.378906 14.191406 19.003906 12.167969 19.234375 10.332031 C 19.441406 8.664062 19.324219 7.15625 18.921875 6.148438 " fill-opacity="1" fill-rule="nonzero"/><g clip-path="url(#3e5c6b4547)"><path fill="#51ade5" d="M 12.109375 0 C 6.015625 0 1.007812 4.625 0.417969 10.550781 C 1.019531 5.003906 5.835938 0.683594 11.6875 0.683594 C 17.945312 0.683594 23.019531 5.625 23.019531 11.71875 C 23.019531 17.816406 17.945312 22.757812 11.6875 22.757812 C 5.835938 22.757812 1.019531 18.433594 0.417969 12.890625 C 1.007812 18.8125 6.015625 23.441406 12.109375 23.441406 C 18.597656 23.441406 23.859375 18.191406 23.859375 11.71875 C 23.859375 5.246094 18.597656 0 12.109375 0 " fill-opacity="1" fill-rule="nonzero"/></g></svg>