<svg xmlns="http://www.w3.org/2000/svg" xmlns:xlink="http://www.w3.org/1999/xlink" width="48" zoomAndPan="magnify" viewBox="0 0 24 29" height="56" preserveAspectRatio="xMidYMid meet" version="1.0"><defs><clipPath id="ead47164fd"><path d="M 0.417969 0 L 23.859375 0 L 23.859375 23.441406 L 0.417969 23.441406 Z M 0.417969 0 " clip-rule="nonzero"/></clipPath></defs><g clip-path="url(#ead47164fd)"><path fill="#ff99b4" d="M 22.734375 0.046875 C 22.589844 0.046875 22.453125 0.0742188 22.320312 0.128906 C 22.1875 0.183594 22.070312 0.261719 21.96875 0.363281 C 21.867188 0.464844 21.789062 0.582031 21.734375 0.714844 C 21.679688 0.847656 21.652344 0.984375 21.652344 1.128906 C 21.652344 0.988281 21.628906 0.851562 21.574219 0.71875 C 21.523438 0.585938 21.445312 0.472656 21.347656 0.371094 C 21.25 0.269531 21.132812 0.1875 21.003906 0.132812 C 20.871094 0.078125 20.738281 0.0507812 20.59375 0.046875 C 20.410156 0.046875 20.238281 0.09375 20.078125 0.183594 C 19.71875 0.394531 19.359375 0.394531 19 0.183594 C 18.65625 -0.0117188 18.3125 -0.0117188 17.964844 0.183594 C 17.605469 0.394531 17.246094 0.394531 16.882812 0.183594 C 16.539062 -0.0117188 16.195312 -0.0117188 15.851562 0.183594 C 15.492188 0.394531 15.132812 0.394531 14.773438 0.183594 C 14.429688 -0.0117188 14.085938 -0.0117188 13.738281 0.183594 C 13.378906 0.394531 13.019531 0.394531 12.660156 0.183594 C 12.316406 -0.0117188 11.972656 -0.0117188 11.628906 0.183594 C 11.269531 0.394531 10.910156 0.394531 10.546875 0.183594 C 10.203125 -0.0117188 9.859375 -0.0117188 9.515625 0.183594 C 9.15625 0.394531 8.792969 0.394531 8.433594 0.183594 C 8.089844 -0.0117188 7.746094 -0.0117188 7.402344 0.183594 C 7.039062 0.394531 6.679688 0.394531 6.320312 0.183594 C 5.972656 -0.0117188 5.628906 -0.0117188 5.285156 0.183594 C 4.925781 0.394531 4.566406 0.394531 4.203125 0.183594 C 4.042969 0.09375 3.871094 0.046875 3.6875 0.046875 C 3.546875 0.0507812 3.410156 0.078125 3.28125 0.132812 C 3.148438 0.1875 3.035156 0.269531 2.933594 0.371094 C 2.835938 0.472656 2.761719 0.585938 2.707031 0.71875 C 2.65625 0.851562 2.628906 0.988281 2.632812 1.128906 C 2.632812 0.984375 2.605469 0.847656 2.550781 0.714844 C 2.496094 0.582031 2.417969 0.464844 2.316406 0.363281 C 2.214844 0.261719 2.097656 0.183594 1.964844 0.128906 C 1.832031 0.0742188 1.691406 0.046875 1.550781 0.046875 C 1.40625 0.046875 1.269531 0.0742188 1.136719 0.128906 C 1.003906 0.183594 0.886719 0.261719 0.785156 0.363281 C 0.683594 0.464844 0.605469 0.582031 0.550781 0.714844 C 0.496094 0.847656 0.46875 0.984375 0.46875 1.128906 C 0.46875 1.273438 0.496094 1.410156 0.550781 1.542969 C 0.605469 1.675781 0.683594 1.792969 0.785156 1.894531 C 0.886719 1.996094 1.003906 2.074219 1.136719 2.128906 C 1.269531 2.183594 1.40625 2.210938 1.550781 2.210938 C 1.40625 2.210938 1.269531 2.234375 1.140625 2.289062 C 1.007812 2.339844 0.890625 2.417969 0.789062 2.515625 C 0.6875 2.613281 0.609375 2.730469 0.554688 2.859375 C 0.496094 2.992188 0.46875 3.125 0.46875 3.269531 C 0.464844 3.453125 0.511719 3.625 0.605469 3.785156 C 0.8125 4.144531 0.8125 4.507812 0.605469 4.867188 C 0.40625 5.210938 0.40625 5.554688 0.605469 5.898438 C 0.8125 6.257812 0.8125 6.621094 0.605469 6.980469 C 0.40625 7.324219 0.40625 7.667969 0.605469 8.011719 C 0.8125 8.375 0.8125 8.734375 0.605469 9.097656 C 0.40625 9.441406 0.40625 9.785156 0.605469 10.128906 C 0.8125 10.488281 0.8125 10.847656 0.605469 11.207031 C 0.40625 11.550781 0.40625 11.894531 0.605469 12.242188 C 0.8125 12.601562 0.8125 12.960938 0.605469 13.320312 C 0.40625 13.664062 0.40625 14.007812 0.605469 14.351562 C 0.8125 14.710938 0.8125 15.074219 0.605469 15.433594 C 0.40625 15.777344 0.40625 16.121094 0.605469 16.464844 C 0.8125 16.824219 0.8125 17.1875 0.605469 17.546875 C 0.40625 17.890625 0.40625 18.234375 0.605469 18.578125 C 0.8125 18.9375 0.8125 19.300781 0.605469 19.660156 C 0.511719 19.820312 0.464844 19.992188 0.46875 20.175781 C 0.46875 20.316406 0.496094 20.453125 0.554688 20.582031 C 0.609375 20.714844 0.6875 20.828125 0.789062 20.925781 C 0.890625 21.027344 1.007812 21.101562 1.140625 21.15625 C 1.269531 21.207031 1.40625 21.234375 1.550781 21.230469 C 1.40625 21.230469 1.269531 21.257812 1.136719 21.3125 C 1.003906 21.367188 0.886719 21.445312 0.785156 21.546875 C 0.683594 21.648438 0.605469 21.765625 0.550781 21.898438 C 0.496094 22.03125 0.46875 22.167969 0.46875 22.3125 C 0.46875 22.457031 0.496094 22.59375 0.550781 22.726562 C 0.605469 22.859375 0.683594 22.976562 0.785156 23.078125 C 0.886719 23.179688 1.003906 23.257812 1.136719 23.3125 C 1.269531 23.367188 1.40625 23.394531 1.550781 23.394531 C 1.691406 23.394531 1.832031 23.367188 1.964844 23.3125 C 2.097656 23.257812 2.214844 23.179688 2.316406 23.078125 C 2.417969 22.976562 2.496094 22.859375 2.550781 22.726562 C 2.605469 22.59375 2.632812 22.457031 2.632812 22.3125 C 2.628906 22.457031 2.65625 22.59375 2.707031 22.722656 C 2.761719 22.855469 2.835938 22.972656 2.933594 23.074219 C 3.035156 23.175781 3.148438 23.253906 3.28125 23.308594 C 3.410156 23.367188 3.546875 23.394531 3.6875 23.394531 C 3.871094 23.394531 4.042969 23.351562 4.203125 23.257812 C 4.566406 23.046875 4.925781 23.046875 5.285156 23.257812 C 5.628906 23.457031 5.972656 23.457031 6.320312 23.257812 C 6.679688 23.046875 7.039062 23.046875 7.402344 23.257812 C 7.746094 23.457031 8.089844 23.457031 8.433594 23.257812 C 8.792969 23.046875 9.15625 23.046875 9.515625 23.257812 C 9.859375 23.457031 10.203125 23.457031 10.546875 23.257812 C 10.910156 23.050781 11.269531 23.050781 11.628906 23.257812 C 11.972656 23.457031 12.316406 23.457031 12.660156 23.257812 C 13.019531 23.050781 13.378906 23.050781 13.738281 23.257812 C 14.085938 23.457031 14.429688 23.457031 14.773438 23.257812 C 15.132812 23.050781 15.492188 23.050781 15.851562 23.257812 C 16.195312 23.457031 16.539062 23.457031 16.882812 23.257812 C 17.246094 23.046875 17.605469 23.046875 17.964844 23.257812 C 18.3125 23.457031 18.65625 23.457031 19 23.257812 C 19.359375 23.050781 19.71875 23.050781 20.078125 23.257812 C 20.238281 23.351562 20.410156 23.394531 20.59375 23.394531 C 20.738281 23.394531 20.871094 23.367188 21.003906 23.308594 C 21.132812 23.253906 21.25 23.175781 21.347656 23.074219 C 21.445312 22.972656 21.523438 22.855469 21.574219 22.722656 C 21.628906 22.59375 21.652344 22.457031 21.652344 22.3125 C 21.652344 22.457031 21.679688 22.59375 21.734375 22.726562 C 21.789062 22.859375 21.867188 22.976562 21.96875 23.078125 C 22.070312 23.179688 22.1875 23.257812 22.320312 23.3125 C 22.453125 23.367188 22.589844 23.394531 22.734375 23.394531 C 22.875 23.394531 23.015625 23.367188 23.148438 23.3125 C 23.28125 23.257812 23.398438 23.179688 23.5 23.078125 C 23.601562 22.976562 23.679688 22.859375 23.734375 22.726562 C 23.789062 22.59375 23.816406 22.457031 23.816406 22.3125 C 23.816406 22.167969 23.789062 22.03125 23.734375 21.898438 C 23.679688 21.765625 23.601562 21.648438 23.5 21.546875 C 23.398438 21.445312 23.28125 21.367188 23.148438 21.3125 C 23.015625 21.257812 22.875 21.230469 22.734375 21.230469 C 22.875 21.234375 23.011719 21.207031 23.144531 21.15625 C 23.273438 21.101562 23.390625 21.027344 23.492188 20.925781 C 23.59375 20.828125 23.671875 20.714844 23.730469 20.582031 C 23.785156 20.453125 23.8125 20.316406 23.816406 20.175781 C 23.816406 19.992188 23.769531 19.820312 23.679688 19.660156 C 23.46875 19.300781 23.46875 18.9375 23.679688 18.578125 C 23.875 18.234375 23.875 17.890625 23.679688 17.546875 C 23.46875 17.1875 23.46875 16.824219 23.679688 16.464844 C 23.875 16.121094 23.875 15.777344 23.679688 15.433594 C 23.46875 15.074219 23.46875 14.710938 23.679688 14.351562 C 23.875 14.007812 23.875 13.664062 23.679688 13.320312 C 23.46875 12.960938 23.46875 12.601562 23.679688 12.242188 C 23.875 11.894531 23.875 11.550781 23.679688 11.207031 C 23.46875 10.847656 23.46875 10.488281 23.679688 10.128906 C 23.875 9.785156 23.875 9.441406 23.679688 9.097656 C 23.46875 8.734375 23.46875 8.375 23.679688 8.011719 C 23.875 7.667969 23.875 7.324219 23.679688 6.980469 C 23.46875 6.621094 23.46875 6.257812 23.679688 5.898438 C 23.875 5.554688 23.875 5.210938 23.679688 4.867188 C 23.46875 4.507812 23.46875 4.144531 23.679688 3.785156 C 23.769531 3.625 23.816406 3.453125 23.816406 3.269531 C 23.8125 3.125 23.785156 2.992188 23.730469 2.859375 C 23.671875 2.730469 23.59375 2.613281 23.492188 2.515625 C 23.390625 2.417969 23.273438 2.339844 23.144531 2.289062 C 23.011719 2.234375 22.875 2.210938 22.734375 2.210938 C 22.875 2.210938 23.015625 2.183594 23.148438 2.128906 C 23.28125 2.074219 23.398438 1.996094 23.5 1.894531 C 23.601562 1.792969 23.679688 1.675781 23.734375 1.542969 C 23.789062 1.410156 23.816406 1.273438 23.816406 1.128906 C 23.816406 0.984375 23.789062 0.847656 23.734375 0.714844 C 23.679688 0.582031 23.601562 0.464844 23.5 0.363281 C 23.398438 0.261719 23.28125 0.183594 23.148438 0.128906 C 23.015625 0.0742188 22.875 0.046875 22.734375 0.046875 Z M 20.902344 21.546875 L 3.394531 21.546875 C 3.25 21.546875 3.113281 21.519531 2.980469 21.464844 C 2.847656 21.40625 2.730469 21.328125 2.628906 21.226562 C 2.527344 21.125 2.449219 21.011719 2.394531 20.878906 C 2.339844 20.746094 2.3125 20.605469 2.3125 20.464844 L 2.3125 2.960938 C 2.3125 2.816406 2.339844 2.679688 2.394531 2.546875 C 2.449219 2.414062 2.527344 2.296875 2.628906 2.195312 C 2.730469 2.09375 2.847656 2.015625 2.980469 1.960938 C 3.113281 1.90625 3.25 1.878906 3.394531 1.878906 L 20.902344 1.878906 C 21.042969 1.878906 21.183594 1.90625 21.316406 1.960938 C 21.449219 2.015625 21.566406 2.09375 21.667969 2.195312 C 21.769531 2.296875 21.847656 2.414062 21.902344 2.546875 C 21.957031 2.679688 21.984375 2.816406 21.984375 2.960938 L 21.984375 20.464844 C 21.984375 20.609375 21.957031 20.746094 21.898438 20.878906 C 21.84375 21.011719 21.765625 21.128906 21.664062 21.230469 C 21.5625 21.332031 21.445312 21.410156 21.316406 21.464844 C 21.183594 21.519531 21.042969 21.546875 20.902344 21.546875 Z M 20.902344 21.546875 " fill-opacity="1" fill-rule="nonzero"/></g></svg>